<svg width="335" height="141" viewBox="0 0 335 141" fill="none" xmlns="http://www.w3.org/2000/svg">
<path d="M153.874 104L153.757 104.117L149.509 104C149.255 104 147.869 104.039 145.349 104.117L145.246 104V103.268L145.349 103.165C146.824 103.155 147.659 103.009 147.854 102.726C148.059 102.433 148.162 100.558 148.162 97.1006V93.043C147.038 94.4004 145.935 95.3623 144.851 95.9287C143.777 96.4854 142.551 96.7637 141.174 96.7637C139.739 96.7637 138.552 96.5244 137.615 96.0459C136.687 95.5576 136.003 94.874 135.564 93.9951C135.134 93.1162 134.919 91.8662 134.919 90.2451V87.8428C134.919 86.6123 134.905 85.8555 134.875 85.5723C134.856 85.2891 134.822 85.0742 134.773 84.9277C134.734 84.7812 134.665 84.6689 134.568 84.5908C134.47 84.5127 134.216 84.4395 133.806 84.3711C133.406 84.3027 132.859 84.2588 132.165 84.2393L132.048 84.1367V83.4043L132.165 83.3018L136.355 83.4189C136.492 83.4189 137.195 83.3994 138.464 83.3604L140.515 83.3018L140.632 83.4043V84.1367L140.515 84.2393C139.431 84.2393 138.767 84.2783 138.523 84.3564C138.288 84.4346 138.122 84.542 138.025 84.6787C137.927 84.8057 137.849 85.1182 137.79 85.6162C137.742 86.1045 137.717 87.0127 137.717 88.3408V89.9375C137.717 91.5098 138.132 92.7451 138.962 93.6436C139.802 94.542 140.964 94.9912 142.449 94.9912C143.328 94.9912 144.197 94.7861 145.056 94.376C145.915 93.9561 146.643 93.4238 147.239 92.7793C147.834 92.125 148.132 91.5977 148.132 91.1973L148.162 88.2529C148.162 86.2998 148.093 85.1572 147.956 84.8252C147.829 84.4932 146.96 84.2979 145.349 84.2393L145.246 84.1367V83.4043L145.349 83.3018C147.341 83.3799 148.757 83.4189 149.597 83.4189C150.203 83.4189 151.589 83.3799 153.757 83.3018L153.874 83.4043V84.1367L153.757 84.2393C152.283 84.2686 151.453 84.4297 151.267 84.7227C151.091 85.0156 150.998 86.0508 150.989 87.8281L150.959 90.3184V97.1006C150.959 100.128 150.994 101.822 151.062 102.184C151.14 102.545 151.311 102.789 151.575 102.916C151.848 103.043 152.576 103.126 153.757 103.165L153.874 103.268V104ZM156.151 104.117L156.02 104V103.238L156.151 103.121C156.864 103.111 157.323 103.077 157.528 103.019C157.733 102.95 157.914 102.823 158.07 102.638C158.236 102.442 158.563 101.817 159.052 100.763L160.59 97.4229L164.574 88.3994C165.326 86.6318 166.073 84.8643 166.815 83.0967H167.768L174.022 97.8037L174.857 99.7666C175.102 100.323 175.38 100.929 175.692 101.583C176.015 102.237 176.234 102.623 176.352 102.74C176.479 102.857 176.63 102.95 176.806 103.019C176.991 103.077 177.396 103.111 178.021 103.121L178.139 103.238V104L178.021 104.117C176.986 104.029 176.054 103.985 175.224 103.985C173.603 104.034 171.981 104.078 170.36 104.117L170.243 104V103.238L170.36 103.121C171.454 103.102 172.138 103.058 172.411 102.989C172.685 102.911 172.821 102.74 172.821 102.477C172.821 102.262 172.753 101.979 172.616 101.627L170.814 97.1592H162.333L160.736 100.909C160.453 101.583 160.312 102.076 160.312 102.389C160.312 102.633 160.443 102.813 160.707 102.931C160.971 103.048 161.635 103.111 162.699 103.121L162.831 103.238V104L162.714 104.117C161.454 104.039 160.351 104 159.403 104C158.329 104 157.245 104.039 156.151 104.117ZM162.831 95.8994H170.243L166.566 87.0664L162.831 95.8994ZM180.504 104V103.268L180.621 103.18C181.48 103.15 182.076 103.106 182.408 103.048C182.75 102.989 182.974 102.896 183.082 102.77C183.189 102.643 183.262 102.438 183.301 102.154C183.34 101.861 183.37 101.134 183.389 99.9717C183.409 98.7998 183.419 97.8428 183.419 97.1006V90.3184C183.419 89.3027 183.404 88.2236 183.375 87.0811C183.355 85.9385 183.316 85.2646 183.257 85.0596C183.209 84.8447 183.13 84.6934 183.023 84.6055C182.925 84.5078 182.72 84.4297 182.408 84.3711C182.105 84.3125 181.509 84.2686 180.621 84.2393L180.504 84.1367V83.4043L180.621 83.3018C180.67 83.3018 181.309 83.3213 182.54 83.3604C183.702 83.3994 184.473 83.4189 184.854 83.4189C185.088 83.4189 186.475 83.3799 189.014 83.3018L189.131 83.4043V84.1367L189.014 84.2393C188.155 84.2686 187.554 84.3125 187.212 84.3711C186.88 84.4297 186.661 84.5225 186.553 84.6494C186.446 84.7666 186.373 84.9668 186.334 85.25C186.295 85.5332 186.265 86.2754 186.246 87.4766C186.226 88.6777 186.216 89.625 186.216 90.3184V101.568L186.436 101.671C188.497 98.7021 190.831 95.167 193.438 91.0654C196.046 86.9639 197.642 84.376 198.228 83.3018C199.254 83.3799 200.206 83.4189 201.085 83.4189C202.081 83.4189 203.028 83.3799 203.926 83.3018L204.044 83.4043V84.1367L203.926 84.2393C202.969 84.2686 202.344 84.3174 202.051 84.3857C201.768 84.4443 201.578 84.5225 201.48 84.6201C201.382 84.7178 201.309 84.8838 201.26 85.1182C201.212 85.3525 201.177 86.0898 201.158 87.3301C201.138 88.5703 201.129 89.5664 201.129 90.3184V97.1006C201.129 97.9014 201.138 98.873 201.158 100.016C201.177 101.148 201.207 101.861 201.246 102.154C201.285 102.447 201.363 102.657 201.48 102.784C201.597 102.901 201.827 102.989 202.169 103.048C202.52 103.106 203.106 103.146 203.926 103.165L204.044 103.268V104L203.926 104.117C203.878 104.117 203.238 104.098 202.007 104.059C200.875 104.02 200.103 104 199.693 104C199.429 104 198.043 104.039 195.533 104.117L195.416 104V103.268L195.533 103.165C196.392 103.146 196.988 103.106 197.32 103.048C197.662 102.979 197.886 102.887 197.994 102.77C198.101 102.652 198.174 102.452 198.213 102.169C198.253 101.876 198.282 101.134 198.301 99.9424C198.321 98.7412 198.331 97.7939 198.331 97.1006L198.345 86.1729L198.052 86.0703C197.203 87.3105 195.23 90.2939 192.134 95.0205L186.246 104.117C185.416 104.039 184.454 104 183.36 104C182.598 104 181.685 104.039 180.621 104.117L180.504 104ZM188.443 78.6143L189.879 77.501L190.245 77.6914C190.626 79.4004 191.583 80.2549 193.116 80.2549C193.897 80.2549 194.532 80.0303 195.02 79.5811C195.518 79.1221 195.767 78.4531 195.767 77.5742L196.148 77.457L196.778 79.0244C195.577 80.4307 194.175 81.1338 192.574 81.1338C191.685 81.1338 190.899 80.9189 190.215 80.4893C189.532 80.0498 188.941 79.4248 188.443 78.6143Z" fill="black"/>
<rect x="268.81" y="78" width="33" height="22" rx="10" fill="#FF9999"/>
<path d="M279.56 101.75H290.56C294.206 101.75 297.704 100.301 300.282 97.7227C302.861 95.1441 304.31 91.6467 304.31 88V85.25H307.06C309.248 85.25 311.346 84.3808 312.893 82.8336C314.44 81.2865 315.31 79.188 315.31 77C315.31 74.812 314.44 72.7135 312.893 71.1664C311.346 69.6192 309.248 68.75 307.06 68.75H304.31V66C304.31 65.2707 304.02 64.5712 303.504 64.0555C302.988 63.5397 302.289 63.25 301.56 63.25H268.56C267.83 63.25 267.131 63.5397 266.615 64.0555C266.099 64.5712 265.81 65.2707 265.81 66V88C265.81 91.6467 267.258 95.1441 269.837 97.7227C272.415 100.301 275.913 101.75 279.56 101.75ZM304.31 74.25H307.06C307.789 74.25 308.488 74.5397 309.004 75.0555C309.52 75.5712 309.81 76.2707 309.81 77C309.81 77.7293 309.52 78.4288 309.004 78.9445C308.488 79.4603 307.789 79.75 307.06 79.75H304.31V74.25ZM271.31 68.75H298.81V88C298.81 90.188 297.94 92.2865 296.393 93.8336C294.846 95.3808 292.748 96.25 290.56 96.25H279.56C277.372 96.25 275.273 95.3808 273.726 93.8336C272.179 92.2865 271.31 90.188 271.31 88V68.75ZM312.56 107.25H263.06C262.33 107.25 261.631 107.54 261.115 108.055C260.599 108.571 260.31 109.271 260.31 110C260.31 110.729 260.599 111.429 261.115 111.945C261.631 112.46 262.33 112.75 263.06 112.75H312.56C313.289 112.75 313.988 112.46 314.504 111.945C315.02 111.429 315.31 110.729 315.31 110C315.31 109.271 315.02 108.571 314.504 108.055C313.988 107.54 313.289 107.25 312.56 107.25Z" fill="#330000"/>
<path d="M280.03 86.36C280.803 86.5867 281.45 86.6533 281.97 86.56C282.503 86.4533 282.976 86.08 283.39 85.44L284.07 84.42L284.37 84.08L289.01 75H292.19L286.23 86.08C285.696 87.08 285.063 87.8467 284.33 88.38C283.61 88.9133 282.816 89.2133 281.95 89.28C281.083 89.36 280.183 89.2067 279.25 88.82L280.03 86.36ZM284.31 86.78L277.99 75H281.45L286.09 84.4L284.31 86.78Z" fill="#330000"/>
<rect width="33" height="22" rx="10" transform="matrix(-1 0 0 1 66.8096 78)" fill="#FF9999"/>
<path d="M56.0596 101.75H45.0596C41.4128 101.75 37.9155 100.301 35.3368 97.7227C32.7582 95.1441 31.3096 91.6467 31.3096 88V85.25H28.5596C26.3715 85.25 24.2731 84.3808 22.7259 82.8336C21.1788 81.2865 20.3096 79.188 20.3096 77C20.3096 74.812 21.1788 72.7135 22.7259 71.1664C24.2731 69.6192 26.3715 68.75 28.5596 68.75H31.3096V66C31.3096 65.2707 31.5993 64.5712 32.115 64.0555C32.6307 63.5397 33.3302 63.25 34.0596 63.25H67.0596C67.7889 63.25 68.4884 63.5397 69.0041 64.0555C69.5198 64.5712 69.8096 65.2707 69.8096 66V88C69.8096 91.6467 68.3609 95.1441 65.7823 97.7227C63.2037 100.301 59.7063 101.75 56.0596 101.75ZM31.3096 74.25H28.5596C27.8302 74.25 27.1307 74.5397 26.615 75.0555C26.0993 75.5712 25.8096 76.2707 25.8096 77C25.8096 77.7293 26.0993 78.4288 26.615 78.9445C27.1307 79.4603 27.8302 79.75 28.5596 79.75H31.3096V74.25ZM64.3096 68.75H36.8096V88C36.8096 90.188 37.6788 92.2865 39.2259 93.8336C40.7731 95.3808 42.8715 96.25 45.0596 96.25H56.0596C58.2476 96.25 60.346 95.3808 61.8932 93.8336C63.4404 92.2865 64.3096 90.188 64.3096 88V68.75ZM23.0596 107.25H72.5596C73.2889 107.25 73.9884 107.54 74.5041 108.055C75.0198 108.571 75.3096 109.271 75.3096 110C75.3096 110.729 75.0198 111.429 74.5041 111.945C73.9884 112.46 73.2889 112.75 72.5596 112.75H23.0596C22.3302 112.75 21.6307 112.46 21.115 111.945C20.5993 111.429 20.3096 110.729 20.3096 110C20.3096 109.271 20.5993 108.571 21.115 108.055C21.6307 107.54 22.3302 107.25 23.0596 107.25Z" fill="#330000"/>
<path d="M46.0296 86.36C46.8029 86.5867 47.4496 86.6533 47.9696 86.56C48.5029 86.4533 48.9762 86.08 49.3896 85.44L50.0696 84.42L50.3696 84.08L55.0096 75H58.1896L52.2296 86.08C51.6962 87.08 51.0629 87.8467 50.3296 88.38C49.6096 88.9133 48.8162 89.2133 47.9496 89.28C47.0829 89.36 46.1829 89.2067 45.2496 88.82L46.0296 86.36ZM50.3096 86.78L43.9896 75H47.4496L52.0896 84.4L50.3096 86.78Z" fill="#330000"/>
<path d="M41.8096 110H285.81" stroke="#330000" stroke-width="5"/>
<line x1="5.33447" y1="112.472" x2="5.33447" y2="55.1028" stroke="#330000" stroke-width="10"/>
<path d="M2.30957 59.5L168.931 5.36616" stroke="#330000" stroke-width="10"/>
<line y1="-5" x2="57.3696" y2="-5" transform="matrix(0 -1 -1 0 324.716 112.106)" stroke="#330000" stroke-width="10"/>
<path d="M332.741 59.1339L166.119 5.00001" stroke="#330000" stroke-width="10"/>
</svg>
