<svg width="335" height="144" viewBox="0 0 335 144" fill="none" xmlns="http://www.w3.org/2000/svg">
<path d="M88.1756 103.117L88.0437 103V102.238L88.1756 102.121C88.8885 102.111 89.3475 102.077 89.5525 102.019C89.7576 101.95 89.9383 101.823 90.0945 101.638C90.2605 101.442 90.5877 100.817 91.076 99.7627L92.6141 96.4229L96.5984 87.3994C97.3504 85.6318 98.0975 83.8643 98.8396 82.0967H99.7918L106.047 96.8037L106.882 98.7666C107.126 99.3232 107.404 99.9287 107.717 100.583C108.039 101.237 108.259 101.623 108.376 101.74C108.503 101.857 108.654 101.95 108.83 102.019C109.015 102.077 109.421 102.111 110.046 102.121L110.163 102.238V103L110.046 103.117C109.011 103.029 108.078 102.985 107.248 102.985C105.627 103.034 104.006 103.078 102.385 103.117L102.267 103V102.238L102.385 102.121C103.478 102.102 104.162 102.058 104.435 101.989C104.709 101.911 104.846 101.74 104.846 101.477C104.846 101.262 104.777 100.979 104.64 100.627L102.839 96.1592H94.3572L92.7605 99.9092C92.4773 100.583 92.3357 101.076 92.3357 101.389C92.3357 101.633 92.4676 101.813 92.7312 101.931C92.9949 102.048 93.659 102.111 94.7234 102.121L94.8553 102.238V103L94.7381 103.117C93.4783 103.039 92.3748 103 91.4275 103C90.3533 103 89.2693 103.039 88.1756 103.117ZM94.8553 94.8994H102.267L98.5906 86.0664L94.8553 94.8994ZM112.674 103V102.385L112.791 102.282C113.524 102.214 113.968 102.15 114.124 102.092C114.281 102.023 114.408 101.896 114.505 101.711C114.613 101.525 114.676 101.076 114.696 100.363C114.715 99.6504 114.725 98.6836 114.725 97.4629V94.9727C114.725 94.2109 114.715 93.3613 114.696 92.4238C114.676 91.4766 114.613 90.9102 114.505 90.7246C114.398 90.5391 114.261 90.417 114.095 90.3584C113.939 90.29 113.504 90.2266 112.791 90.168L112.674 90.0508V89.4355L112.791 89.333C114.129 89.4111 115.145 89.4502 115.838 89.4502C116.17 89.4502 116.634 89.4404 117.23 89.4209C118.939 89.3721 120.111 89.3477 120.746 89.3477C121.869 89.3477 122.694 89.5967 123.221 90.0947C123.748 90.5928 124.012 91.2178 124.012 91.9697C124.012 93.5713 122.923 94.665 120.746 95.251C122.093 95.3291 123.089 95.666 123.734 96.2617C124.378 96.8477 124.701 97.6143 124.701 98.5615C124.701 99.7236 124.256 100.769 123.368 101.696C122.489 102.624 121.073 103.088 119.12 103.088C118.983 103.088 118.695 103.078 118.255 103.059C117.445 103.02 116.8 103 116.322 103C115.14 103.039 113.963 103.078 112.791 103.117L112.674 103ZM117.039 95.0752C117.43 95.0947 117.743 95.1045 117.977 95.1045C119.334 95.1045 120.282 94.8848 120.819 94.4453C121.366 93.9961 121.639 93.3809 121.639 92.5996C121.639 91.916 121.419 91.3545 120.98 90.915C120.55 90.4658 119.784 90.2412 118.68 90.2412C118.192 90.2412 117.679 90.2656 117.142 90.3145L117.039 95.0752ZM117.039 95.9541L117.142 102.062C117.63 102.131 118.167 102.165 118.753 102.165C119.603 102.165 120.277 101.999 120.775 101.667C121.283 101.335 121.644 100.93 121.859 100.451C122.074 99.9727 122.181 99.4551 122.181 98.8984C122.181 98.2539 122.035 97.6875 121.742 97.1992C121.449 96.7109 121.019 96.374 120.453 96.1885C119.896 96.0029 119.124 95.9102 118.138 95.9102C117.884 95.9102 117.518 95.9248 117.039 95.9541ZM127.388 89.4355L127.505 89.333C129.409 89.4307 131.543 89.4795 133.906 89.4795C136.309 89.4795 138.442 89.4307 140.308 89.333L140.41 89.4355C140.352 90.7246 140.322 91.8135 140.322 92.7021L140.234 92.79H139.648L139.561 92.7021C139.434 91.6475 139.331 91.0273 139.253 90.8418C139.175 90.6465 139.062 90.5195 138.916 90.4609C138.779 90.4023 138.506 90.373 138.096 90.373H135.122L135.063 94.123V97.4629C135.063 98.1855 135.073 99.0303 135.093 99.9971C135.112 100.954 135.171 101.525 135.269 101.711C135.366 101.896 135.498 102.023 135.664 102.092C135.83 102.15 136.274 102.214 136.997 102.282L137.114 102.385V103L136.997 103.117C136.021 103.039 134.99 103 133.906 103C132.773 103 131.743 103.039 130.815 103.117L130.698 103V102.385L130.815 102.282C131.548 102.214 131.992 102.15 132.148 102.092C132.314 102.023 132.446 101.896 132.544 101.711C132.642 101.516 132.7 101.042 132.72 100.29C132.739 99.5283 132.749 98.5859 132.749 97.4629V94.167C132.72 92.8975 132.695 91.6328 132.676 90.373H129.702C129.282 90.373 128.999 90.4072 128.853 90.4756C128.716 90.5342 128.608 90.6709 128.53 90.8857C128.462 91.0908 128.364 91.6963 128.237 92.7021L128.149 92.79H127.578L127.476 92.7021C127.476 92.3115 127.446 91.2227 127.388 89.4355ZM157.672 95.6172C157.672 96.8477 157.472 97.9561 157.072 98.9424C156.681 99.9287 156.11 100.778 155.358 101.491C154.616 102.194 153.844 102.692 153.044 102.985C152.253 103.269 151.32 103.41 150.246 103.41C147.843 103.41 146.012 102.722 144.753 101.345C143.503 99.9678 142.878 98.249 142.878 96.1885C142.878 94.7725 143.18 93.5127 143.786 92.4092C144.391 91.3057 145.265 90.4609 146.408 89.875C147.56 89.2891 148.908 88.9961 150.451 88.9961C151.955 88.9961 153.239 89.2793 154.303 89.8457C155.368 90.4023 156.193 91.1934 156.779 92.2188C157.375 93.2344 157.672 94.3672 157.672 95.6172ZM154.845 96.4814C154.845 94.5283 154.44 92.9609 153.629 91.7793C152.829 90.5977 151.652 90.0068 150.099 90.0068C148.8 90.0068 147.741 90.4658 146.921 91.3838C146.1 92.292 145.69 93.6689 145.69 95.5146C145.69 97.4092 146.1 99.0449 146.921 100.422C147.751 101.789 148.942 102.473 150.495 102.473C151.852 102.473 152.917 101.931 153.688 100.847C154.46 99.7529 154.845 98.2979 154.845 96.4814ZM165.018 88.8643L165.281 89.04C165.184 90.1924 165.13 91.1787 165.12 91.999C165.726 91.4326 166.321 90.9004 166.907 90.4023C167.493 89.8945 167.889 89.582 168.094 89.4648C168.309 89.3379 168.626 89.2305 169.046 89.1426C169.466 89.0547 169.984 89.0107 170.599 89.0107C172.386 89.0107 173.797 89.5674 174.832 90.6807C175.867 91.7842 176.385 93.2051 176.385 94.9434C176.385 95.666 176.268 96.3984 176.033 97.1406C175.799 97.8828 175.491 98.5615 175.111 99.1768C174.739 99.792 174.451 100.188 174.246 100.363C174.041 100.529 173.47 100.896 172.532 101.462C172.152 101.687 171.766 101.94 171.375 102.224C170.819 102.614 170.452 102.863 170.277 102.971C170.111 103.068 169.827 103.161 169.427 103.249C169.036 103.347 168.612 103.396 168.153 103.396C167.137 103.396 166.126 103.137 165.12 102.619V105.358C165.12 106.101 165.14 107.038 165.179 108.171C165.228 109.304 165.291 109.943 165.369 110.09C165.457 110.246 165.574 110.349 165.721 110.397C165.877 110.446 166.351 110.505 167.142 110.573L167.274 110.69V111.306L167.142 111.438C165.97 111.359 164.886 111.32 163.89 111.32C162.894 111.32 161.81 111.359 160.638 111.438L160.521 111.306V110.69L160.638 110.573C161.38 110.515 161.824 110.466 161.971 110.427C162.127 110.388 162.239 110.324 162.308 110.236C162.386 110.158 162.445 110.021 162.484 109.826C162.532 109.641 162.576 108.962 162.615 107.79C162.654 106.628 162.674 105.817 162.674 105.358V94.123C162.674 93.6836 162.654 93.1221 162.615 92.4385C162.586 91.7451 162.557 91.3447 162.528 91.2373C162.498 91.1299 162.425 91.042 162.308 90.9736C162.2 90.8955 161.961 90.8564 161.59 90.8564C161.531 90.8564 161.219 90.8467 160.653 90.8271L160.521 90.71V90.0801L160.638 89.9482C162.386 89.6943 163.846 89.333 165.018 88.8643ZM165.12 100.1C166.243 101.232 167.532 101.799 168.987 101.799C170.482 101.799 171.654 101.237 172.503 100.114C173.362 98.9912 173.792 97.6191 173.792 95.998C173.792 95.002 173.602 94.1133 173.221 93.332C172.85 92.541 172.288 91.9307 171.536 91.501C170.794 91.0713 170.023 90.8564 169.222 90.8564C168.685 90.8564 168.167 90.9541 167.669 91.1494C167.181 91.335 166.727 91.6035 166.307 91.9551C165.887 92.3066 165.594 92.6289 165.428 92.9219C165.262 93.2148 165.169 93.4395 165.15 93.5957C165.13 93.752 165.12 94.0254 165.12 94.416V100.1ZM191.23 101.433L190.644 102.414C189.385 103.107 187.978 103.454 186.426 103.454C184.277 103.454 182.617 102.814 181.445 101.535C180.273 100.256 179.687 98.6055 179.687 96.584C179.687 95.666 179.785 94.8506 179.98 94.1377C180.185 93.415 180.439 92.8193 180.742 92.3506C181.054 91.8818 181.396 91.5107 181.767 91.2373C182.138 90.9639 182.763 90.583 183.642 90.0947C184.531 89.6064 185.2 89.2891 185.649 89.1426C186.098 88.9863 186.719 88.9082 187.51 88.9082C189.023 88.9082 190.263 89.1963 191.23 89.7725C191.045 90.876 190.903 92.1064 190.805 93.4639L190.674 93.5811H190.073L189.941 93.4492C189.902 92.6289 189.848 92.0771 189.78 91.7939C189.712 91.5107 189.321 91.208 188.608 90.8857C187.905 90.5635 187.153 90.4023 186.352 90.4023C185.552 90.4023 184.839 90.5732 184.214 90.915C183.589 91.2471 183.115 91.7988 182.793 92.5703C182.48 93.332 182.324 94.2451 182.324 95.3096C182.324 96.208 182.451 97.0869 182.705 97.9463C182.959 98.7959 183.291 99.5039 183.701 100.07C184.121 100.627 184.673 101.076 185.356 101.418C186.04 101.76 186.802 101.931 187.641 101.931C188.169 101.931 188.681 101.862 189.179 101.726C189.687 101.589 190.268 101.364 190.923 101.052L191.23 101.433ZM193.903 103V102.385L194.02 102.282C194.752 102.214 195.197 102.15 195.353 102.092C195.509 102.023 195.636 101.896 195.734 101.711C195.841 101.525 195.905 101.076 195.924 100.363C195.944 99.6504 195.954 98.6836 195.954 97.4629V94.9727C195.954 94.2109 195.944 93.3613 195.924 92.4238C195.905 91.4766 195.841 90.9102 195.734 90.7246C195.626 90.5391 195.49 90.417 195.324 90.3584C195.167 90.29 194.733 90.2266 194.02 90.168L193.903 90.0508V89.4355L194.02 89.333C194.987 89.4111 196.037 89.4502 197.169 89.4502C198.351 89.4502 199.406 89.4111 200.333 89.333L200.451 89.4355V90.0508L200.333 90.168C199.601 90.2363 199.152 90.3047 198.986 90.373C198.829 90.4316 198.703 90.5537 198.605 90.7393C198.517 90.9248 198.458 91.374 198.429 92.0869C198.41 92.7998 198.4 93.7617 198.4 94.9727V95.9395H198.517C199.777 94.8457 200.978 93.7227 202.121 92.5703C203.263 91.4082 203.888 90.7588 203.996 90.6221C204.113 90.4854 204.171 90.3633 204.171 90.2559C204.171 90.1387 204.083 90.0557 203.908 90.0068V89.4355L204.025 89.3184C204.865 89.3965 205.426 89.4355 205.709 89.4355C206.188 89.4355 206.749 89.3965 207.394 89.3184L207.496 89.4355V90.0508L207.394 90.1533C206.759 90.2119 206.212 90.3779 205.753 90.6514C205.294 90.915 203.62 92.3604 200.729 94.9873L206.72 101.286C207.15 101.745 207.438 102.028 207.584 102.136C207.741 102.233 207.965 102.287 208.258 102.297L208.331 102.37V103L208.258 103.088C206.735 103.039 205.812 102.971 205.49 102.883C205.167 102.795 204.806 102.585 204.406 102.253C204.015 101.911 203.356 101.242 202.428 100.246C200.543 98.2441 199.24 96.9355 198.517 96.3203H198.4V97.4629C198.4 98.2637 198.41 99.1279 198.429 100.056C198.449 100.983 198.507 101.54 198.605 101.726C198.712 101.911 198.849 102.033 199.015 102.092C199.181 102.15 199.621 102.214 200.333 102.282L200.451 102.385V103L200.333 103.117C199.367 103.039 198.312 103 197.169 103C195.997 103 194.948 103.039 194.02 103.117L193.903 103ZM210.535 103V102.385L210.652 102.282C211.238 102.194 211.673 102.097 211.956 101.989C212.239 101.882 212.425 101.76 212.513 101.623C212.61 101.477 212.669 101.301 212.688 101.096C212.718 100.891 212.742 100.363 212.762 99.5137C212.791 98.6543 212.806 98 212.806 97.5508V94.8994C212.806 92.5947 212.728 91.2666 212.571 90.915C212.425 90.5635 211.785 90.3145 210.652 90.168L210.535 90.0508V89.4355L210.652 89.333C212.01 89.4111 213.138 89.4502 214.036 89.4502C214.905 89.4502 216.033 89.4111 217.42 89.333L217.522 89.4355V90.0508L217.42 90.168C216.795 90.2559 216.355 90.3535 216.102 90.4609C215.857 90.5586 215.687 90.666 215.589 90.7832C215.491 90.8906 215.428 91.0273 215.398 91.1934C215.369 91.3594 215.335 91.8916 215.296 92.79C215.267 93.6787 215.252 94.3818 215.252 94.8994V100.949L215.486 101.037C216.414 99.6504 217.61 97.7119 219.075 95.2217C220.54 92.7217 221.658 90.7588 222.43 89.333C223.348 89.4111 224.114 89.4502 224.729 89.4502C225.364 89.4502 226.146 89.4111 227.073 89.333L227.19 89.4355V90.0508L227.073 90.168C225.931 90.3145 225.286 90.5732 225.14 90.9443C224.993 91.3057 224.92 92.624 224.92 94.8994V97.5508C224.92 99.8457 224.993 101.169 225.14 101.521C225.296 101.872 225.94 102.126 227.073 102.282L227.19 102.385V103L227.073 103.117C225.716 103.039 224.588 103 223.689 103C222.82 103 221.692 103.039 220.306 103.117L220.188 103V102.385L220.306 102.282C221.448 102.126 222.093 101.867 222.239 101.506C222.396 101.145 222.474 99.8262 222.474 97.5508V91.5889L222.239 91.501C221.526 92.5557 220.384 94.4404 218.812 97.1553C217.249 99.8701 216.15 101.857 215.516 103.117C214.598 103.039 213.846 103 213.26 103C212.625 103 211.756 103.039 210.652 103.117L210.535 103ZM230.39 103V102.385L230.507 102.282C231.093 102.194 231.528 102.097 231.811 101.989C232.094 101.882 232.28 101.76 232.368 101.623C232.465 101.477 232.524 101.301 232.544 101.096C232.573 100.891 232.597 100.363 232.617 99.5137C232.646 98.6543 232.661 98 232.661 97.5508V94.8994C232.661 92.5947 232.583 91.2666 232.426 90.915C232.28 90.5635 231.64 90.3145 230.507 90.168L230.39 90.0508V89.4355L230.507 89.333C231.865 89.4111 232.993 89.4502 233.891 89.4502C234.76 89.4502 235.888 89.4111 237.275 89.333L237.378 89.4355V90.0508L237.275 90.168C236.65 90.2559 236.211 90.3535 235.957 90.4609C235.712 90.5586 235.542 90.666 235.444 90.7832C235.346 90.8906 235.283 91.0273 235.254 91.1934C235.224 91.3594 235.19 91.8916 235.151 92.79C235.122 93.6787 235.107 94.3818 235.107 94.8994V100.949L235.341 101.037C236.269 99.6504 237.465 97.7119 238.93 95.2217C240.395 92.7217 241.513 90.7588 242.285 89.333C243.203 89.4111 243.969 89.4502 244.585 89.4502C245.219 89.4502 246.001 89.4111 246.928 89.333L247.046 89.4355V90.0508L246.928 90.168C245.786 90.3145 245.141 90.5732 244.995 90.9443C244.848 91.3057 244.775 92.624 244.775 94.8994V97.5508C244.775 99.8457 244.848 101.169 244.995 101.521C245.151 101.872 245.796 102.126 246.928 102.282L247.046 102.385V103L246.928 103.117C245.571 103.039 244.443 103 243.545 103C242.675 103 241.547 103.039 240.161 103.117L240.044 103V102.385L240.161 102.282C241.303 102.126 241.948 101.867 242.094 101.506C242.251 101.145 242.329 99.8262 242.329 97.5508V91.5889L242.094 91.501C241.381 92.5557 240.239 94.4404 238.667 97.1553C237.104 99.8701 236.005 101.857 235.371 103.117C234.453 103.039 233.701 103 233.115 103C232.48 103 231.611 103.039 230.507 103.117L230.39 103ZM234.624 84.3672L236.059 83.2539L236.425 83.4443C236.806 85.1533 237.763 86.0078 239.296 86.0078C240.078 86.0078 240.712 85.7832 241.201 85.334C241.699 84.875 241.948 84.2061 241.948 83.3271L242.329 83.21L242.959 84.7773C241.757 86.1836 240.356 86.8867 238.754 86.8867C237.866 86.8867 237.08 86.6719 236.396 86.2422C235.712 85.8027 235.122 85.1777 234.624 84.3672ZM133.224 135V134.385L133.341 134.282C134.074 134.214 134.518 134.15 134.674 134.092C134.831 134.023 134.958 133.896 135.055 133.711C135.163 133.525 135.226 133.076 135.246 132.363C135.265 131.65 135.275 130.684 135.275 129.463V126.973C135.275 126.211 135.265 125.361 135.246 124.424C135.226 123.477 135.163 122.91 135.055 122.725C134.948 122.539 134.811 122.417 134.645 122.358C134.489 122.29 134.054 122.227 133.341 122.168L133.224 122.051V121.436L133.341 121.333C134.308 121.411 135.358 121.45 136.491 121.45C137.672 121.45 138.727 121.411 139.655 121.333L139.772 121.436V122.051L139.655 122.168C138.922 122.236 138.473 122.305 138.307 122.373C138.151 122.432 138.024 122.554 137.926 122.739C137.838 122.925 137.78 123.374 137.751 124.087C137.731 124.8 137.721 125.762 137.721 126.973V127.939H137.838C139.098 126.846 140.299 125.723 141.442 124.57C142.585 123.408 143.21 122.759 143.317 122.622C143.434 122.485 143.493 122.363 143.493 122.256C143.493 122.139 143.405 122.056 143.229 122.007V121.436L143.346 121.318C144.186 121.396 144.748 121.436 145.031 121.436C145.509 121.436 146.071 121.396 146.715 121.318L146.818 121.436V122.051L146.715 122.153C146.081 122.212 145.534 122.378 145.075 122.651C144.616 122.915 142.941 124.36 140.05 126.987L146.042 133.286C146.471 133.745 146.759 134.028 146.906 134.136C147.062 134.233 147.287 134.287 147.58 134.297L147.653 134.37V135L147.58 135.088C146.056 135.039 145.133 134.971 144.811 134.883C144.489 134.795 144.128 134.585 143.727 134.253C143.337 133.911 142.677 133.242 141.75 132.246C139.865 130.244 138.561 128.936 137.838 128.32H137.721V129.463C137.721 130.264 137.731 131.128 137.751 132.056C137.77 132.983 137.829 133.54 137.926 133.726C138.034 133.911 138.171 134.033 138.337 134.092C138.503 134.15 138.942 134.214 139.655 134.282L139.772 134.385V135L139.655 135.117C138.688 135.039 137.633 135 136.491 135C135.319 135 134.269 135.039 133.341 135.117L133.224 135ZM164.49 127.617C164.49 128.848 164.29 129.956 163.89 130.942C163.499 131.929 162.928 132.778 162.176 133.491C161.434 134.194 160.662 134.692 159.862 134.985C159.071 135.269 158.138 135.41 157.064 135.41C154.661 135.41 152.83 134.722 151.571 133.345C150.321 131.968 149.696 130.249 149.696 128.188C149.696 126.772 149.998 125.513 150.604 124.409C151.209 123.306 152.083 122.461 153.226 121.875C154.378 121.289 155.726 120.996 157.269 120.996C158.773 120.996 160.057 121.279 161.121 121.846C162.186 122.402 163.011 123.193 163.597 124.219C164.193 125.234 164.49 126.367 164.49 127.617ZM161.663 128.481C161.663 126.528 161.258 124.961 160.447 123.779C159.647 122.598 158.47 122.007 156.917 122.007C155.618 122.007 154.559 122.466 153.738 123.384C152.918 124.292 152.508 125.669 152.508 127.515C152.508 129.409 152.918 131.045 153.738 132.422C154.569 133.789 155.76 134.473 157.313 134.473C158.67 134.473 159.735 133.931 160.506 132.847C161.278 131.753 161.663 130.298 161.663 128.481ZM173.887 115.122V114.507L174.004 114.404C175.849 114.111 177.519 113.74 179.013 113.291L179.204 113.481C179.165 114.282 179.136 115.312 179.116 116.572L179.043 120.747C182.051 120.845 184.336 121.553 185.898 122.871C187.471 124.18 188.257 125.898 188.257 128.027C188.257 130.303 187.417 132.119 185.737 133.477C184.057 134.824 181.826 135.518 179.043 135.557V137.856C179.043 140.171 179.121 141.499 179.277 141.841C179.433 142.183 180.078 142.432 181.211 142.588L181.313 142.705V143.32L181.211 143.423C179.902 143.345 178.774 143.306 177.827 143.306C176.86 143.306 175.732 143.345 174.443 143.423L174.326 143.32V142.705L174.443 142.588C175.039 142.5 175.473 142.402 175.747 142.295C176.03 142.197 176.216 142.075 176.304 141.929C176.401 141.792 176.46 141.621 176.479 141.416C176.509 141.211 176.533 140.684 176.553 139.834C176.582 138.984 176.596 138.325 176.596 137.856V135.557C173.813 135.518 171.582 134.824 169.902 133.477C168.222 132.119 167.383 130.303 167.383 128.027C167.383 125.898 168.169 124.18 169.741 122.871C171.313 121.553 173.598 120.845 176.596 120.747C176.557 118.179 176.518 116.719 176.479 116.367C176.44 116.006 176.289 115.737 176.025 115.562C175.771 115.386 175.097 115.278 174.004 115.239L173.887 115.122ZM176.596 121.509C174.536 121.519 172.973 122.07 171.909 123.164C170.845 124.248 170.312 125.84 170.312 127.939C170.312 130.049 170.84 131.719 171.894 132.949C172.949 134.18 174.516 134.819 176.596 134.868V121.509ZM179.043 121.509V134.868C181.113 134.829 182.676 134.199 183.73 132.979C184.795 131.748 185.327 130.068 185.327 127.939C185.327 125.84 184.79 124.243 183.716 123.149C182.651 122.056 181.094 121.509 179.043 121.509ZM203.117 132.847L202.648 133.901C201.632 134.556 200.724 134.98 199.923 135.176C199.132 135.371 198.424 135.469 197.799 135.469C196.627 135.469 195.514 135.239 194.459 134.78C193.414 134.321 192.56 133.545 191.896 132.451C191.242 131.357 190.914 130.039 190.914 128.496C190.914 127.471 191.041 126.548 191.295 125.728C191.549 124.897 191.813 124.282 192.086 123.882C192.37 123.481 192.843 123.037 193.507 122.549C194.171 122.061 194.874 121.67 195.617 121.377C196.359 121.084 197.16 120.938 198.019 120.938C199.191 120.938 200.221 121.216 201.11 121.772C202.008 122.319 202.638 123.022 202.999 123.882C203.361 124.741 203.541 125.654 203.541 126.621C203.541 126.924 203.527 127.217 203.497 127.5L203.336 127.661C202.672 127.808 201.779 127.905 200.656 127.954C199.533 128.003 198.79 128.027 198.429 128.027H193.727C193.746 130.049 194.254 131.538 195.25 132.495C196.246 133.452 197.467 133.931 198.913 133.931C199.596 133.931 200.25 133.813 200.875 133.579C201.51 133.345 202.179 133.018 202.882 132.598L203.117 132.847ZM193.727 126.855C193.903 126.885 194.577 126.919 195.748 126.958C196.93 126.997 197.804 127.017 198.371 127.017C199.728 127.017 200.553 126.992 200.846 126.943C200.856 126.709 200.861 126.528 200.861 126.401C200.861 124.888 200.553 123.765 199.938 123.032C199.323 122.29 198.483 121.919 197.418 121.919C196.256 121.919 195.348 122.334 194.694 123.164C194.049 123.994 193.727 125.225 193.727 126.855Z" fill="black"/>
<rect x="268.81" y="78" width="33" height="22" rx="10" fill="#FFCC99"/>
<path d="M279.56 101.75H290.56C294.206 101.75 297.704 100.301 300.282 97.7227C302.861 95.1441 304.31 91.6467 304.31 88V85.25H307.06C309.248 85.25 311.346 84.3808 312.893 82.8336C314.44 81.2865 315.31 79.188 315.31 77C315.31 74.812 314.44 72.7135 312.893 71.1664C311.346 69.6192 309.248 68.75 307.06 68.75H304.31V66C304.31 65.2707 304.02 64.5712 303.504 64.0555C302.988 63.5397 302.289 63.25 301.56 63.25H268.56C267.83 63.25 267.131 63.5397 266.615 64.0555C266.099 64.5712 265.81 65.2707 265.81 66V88C265.81 91.6467 267.258 95.1441 269.837 97.7227C272.415 100.301 275.913 101.75 279.56 101.75ZM304.31 74.25H307.06C307.789 74.25 308.488 74.5397 309.004 75.0555C309.52 75.5712 309.81 76.2707 309.81 77C309.81 77.7293 309.52 78.4288 309.004 78.9445C308.488 79.4603 307.789 79.75 307.06 79.75H304.31V74.25ZM271.31 68.75H298.81V88C298.81 90.188 297.94 92.2865 296.393 93.8336C294.846 95.3808 292.748 96.25 290.56 96.25H279.56C277.372 96.25 275.273 95.3808 273.726 93.8336C272.179 92.2865 271.31 90.188 271.31 88V68.75ZM312.56 107.25H263.06C262.33 107.25 261.631 107.54 261.115 108.055C260.599 108.571 260.31 109.271 260.31 110C260.31 110.729 260.599 111.429 261.115 111.945C261.631 112.46 262.33 112.75 263.06 112.75H312.56C313.289 112.75 313.988 112.46 314.504 111.945C315.02 111.429 315.31 110.729 315.31 110C315.31 109.271 315.02 108.571 314.504 108.055C313.988 107.54 313.289 107.25 312.56 107.25Z" fill="#330000"/>
<path d="M280.03 86.36C280.803 86.5867 281.45 86.6533 281.97 86.56C282.503 86.4533 282.976 86.08 283.39 85.44L284.07 84.42L284.37 84.08L289.01 75H292.19L286.23 86.08C285.696 87.08 285.063 87.8467 284.33 88.38C283.61 88.9133 282.816 89.2133 281.95 89.28C281.083 89.36 280.183 89.2067 279.25 88.82L280.03 86.36ZM284.31 86.78L277.99 75H281.45L286.09 84.4L284.31 86.78Z" fill="#330000"/>
<rect width="33" height="22" rx="10" transform="matrix(-1 0 0 1 66.8096 78)" fill="#FFCC99"/>
<path d="M56.0596 101.75H45.0596C41.4128 101.75 37.9155 100.301 35.3368 97.7227C32.7582 95.1441 31.3096 91.6467 31.3096 88V85.25H28.5596C26.3715 85.25 24.2731 84.3808 22.7259 82.8336C21.1788 81.2865 20.3096 79.188 20.3096 77C20.3096 74.812 21.1788 72.7135 22.7259 71.1664C24.2731 69.6192 26.3715 68.75 28.5596 68.75H31.3096V66C31.3096 65.2707 31.5993 64.5712 32.115 64.0555C32.6307 63.5397 33.3302 63.25 34.0596 63.25H67.0596C67.7889 63.25 68.4884 63.5397 69.0041 64.0555C69.5198 64.5712 69.8096 65.2707 69.8096 66V88C69.8096 91.6467 68.3609 95.1441 65.7823 97.7227C63.2037 100.301 59.7063 101.75 56.0596 101.75ZM31.3096 74.25H28.5596C27.8302 74.25 27.1307 74.5397 26.615 75.0555C26.0993 75.5712 25.8096 76.2707 25.8096 77C25.8096 77.7293 26.0993 78.4288 26.615 78.9445C27.1307 79.4603 27.8302 79.75 28.5596 79.75H31.3096V74.25ZM64.3096 68.75H36.8096V88C36.8096 90.188 37.6788 92.2865 39.2259 93.8336C40.7731 95.3808 42.8715 96.25 45.0596 96.25H56.0596C58.2476 96.25 60.346 95.3808 61.8932 93.8336C63.4404 92.2865 64.3096 90.188 64.3096 88V68.75ZM23.0596 107.25H72.5596C73.2889 107.25 73.9884 107.54 74.5041 108.055C75.0198 108.571 75.3096 109.271 75.3096 110C75.3096 110.729 75.0198 111.429 74.5041 111.945C73.9884 112.46 73.2889 112.75 72.5596 112.75H23.0596C22.3302 112.75 21.6307 112.46 21.115 111.945C20.5993 111.429 20.3096 110.729 20.3096 110C20.3096 109.271 20.5993 108.571 21.115 108.055C21.6307 107.54 22.3302 107.25 23.0596 107.25Z" fill="#330000"/>
<path d="M46.0296 86.36C46.8029 86.5867 47.4496 86.6533 47.9696 86.56C48.5029 86.4533 48.9762 86.08 49.3896 85.44L50.0696 84.42L50.3696 84.08L55.0096 75H58.1896L52.2296 86.08C51.6962 87.08 51.0629 87.8467 50.3296 88.38C49.6096 88.9133 48.8162 89.2133 47.9496 89.28C47.0829 89.36 46.1829 89.2067 45.2496 88.82L46.0296 86.36ZM50.3096 86.78L43.9896 75H47.4496L52.0896 84.4L50.3096 86.78Z" fill="#330000"/>
<path d="M41.8096 110H285.81" stroke="#330000" stroke-width="5"/>
<line x1="5.33447" y1="112.472" x2="5.33447" y2="55.1028" stroke="#330000" stroke-width="10"/>
<path d="M2.30957 59.5L168.931 5.36616" stroke="#330000" stroke-width="10"/>
<line y1="-5" x2="57.3696" y2="-5" transform="matrix(0 -1 -1 0 324.716 112.106)" stroke="#330000" stroke-width="10"/>
<path d="M332.741 59.1339L166.119 5.00001" stroke="#330000" stroke-width="10"/>
</svg>
