<svg width="444" height="416" viewBox="0 0 444 416" fill="none" xmlns="http://www.w3.org/2000/svg">
<g clip-path="url(#clip0_43_3)">
<g clip-path="url(#clip1_43_3)">
<path d="M213.19 133.637C212.839 133.558 212.475 133.558 212.124 133.637H211.717H210.905C206.476 133.815 202.296 135.794 199.279 139.143C196.261 142.491 194.652 146.936 194.803 151.505V162.928C194.637 167.122 195.943 171.238 198.48 174.52C201.018 177.802 204.618 180.03 208.619 180.795C208.97 180.875 209.334 180.875 209.686 180.795H210.092H210.905C215.333 180.618 219.513 178.638 222.531 175.29C225.548 171.942 227.157 167.497 227.006 162.928V151.505C227.172 147.31 225.867 143.195 223.329 139.913C220.791 136.631 217.192 134.403 213.19 133.637ZM208.517 170.316C207.984 171.788 207.609 173.317 207.4 174.874C205.141 173.896 203.22 172.237 201.888 170.115C200.556 167.994 199.875 165.507 199.933 162.98V151.505C199.778 148.581 200.647 145.697 202.381 143.379C204.116 141.061 206.6 139.463 209.381 138.877C209.202 140.005 208.913 141.111 208.517 142.178C207.56 144.678 207.094 147.35 207.146 150.038C207.095 152.726 207.561 155.397 208.517 157.898C209.943 161.834 209.943 166.169 208.517 170.106V170.316ZM221.927 162.928C222.08 165.859 221.204 168.749 219.459 171.068C217.715 173.387 215.219 174.98 212.428 175.556C212.607 174.428 212.897 173.322 213.292 172.255C215.112 167.183 215.112 161.607 213.292 156.535C212.53 154.59 212.167 152.502 212.225 150.405C212.145 148.255 212.509 146.111 213.292 144.117C213.821 142.661 214.196 141.15 214.409 139.611C216.669 140.59 218.589 142.248 219.921 144.37C221.253 146.491 221.935 148.978 221.876 151.505L221.927 162.928ZM262.968 123.158H250.27V115.298C250.27 113.214 249.467 111.215 248.038 109.741C246.609 108.267 244.671 107.439 242.651 107.439H178.143C177.015 107.433 175.905 107.725 174.917 108.287C173.93 108.85 173.099 109.663 172.503 110.651C171.907 111.639 171.567 112.767 171.514 113.929C171.46 115.092 171.697 116.248 172.2 117.289C173.435 119.844 174.079 122.661 174.079 125.516V188.655C174.079 190.375 174.408 192.079 175.046 193.668C175.684 195.257 176.619 196.701 177.799 197.918C178.978 199.134 180.378 200.099 181.918 200.757C183.459 201.416 185.11 201.754 186.778 201.754H237.571C239.239 201.754 240.89 201.416 242.431 200.757C243.971 200.099 245.371 199.134 246.55 197.918C247.73 196.701 248.665 195.257 249.303 193.668C249.941 192.079 250.27 190.375 250.27 188.655V180.795H262.968C267.683 180.795 272.205 178.863 275.539 175.424C278.873 171.985 280.746 167.32 280.746 162.456V141.497C280.746 136.633 278.873 131.969 275.539 128.529C272.205 125.09 267.683 123.158 262.968 123.158ZM245.19 188.655C245.19 190.739 244.388 192.739 242.959 194.213C241.53 195.687 239.592 196.515 237.571 196.515H186.778C184.757 196.515 182.819 195.687 181.39 194.213C179.961 192.739 179.159 190.739 179.159 188.655V125.463C179.137 121.823 178.303 118.237 176.721 114.984C176.595 114.738 176.534 114.463 176.545 114.186C176.555 113.908 176.637 113.639 176.782 113.404C176.926 113.17 177.128 112.98 177.367 112.852C177.606 112.725 177.874 112.665 178.143 112.678H242.651C243.324 112.678 243.97 112.954 244.447 113.446C244.923 113.937 245.19 114.603 245.19 115.298V188.655ZM250.27 138.877H262.968C263.642 138.877 264.288 139.153 264.764 139.645C265.24 140.136 265.508 140.802 265.508 141.497V162.456C265.508 163.151 265.24 163.817 264.764 164.309C264.288 164.8 263.642 165.076 262.968 165.076H250.27V138.877ZM275.667 162.456C275.667 164.176 275.338 165.88 274.7 167.469C274.062 169.058 273.126 170.502 271.947 171.719C270.768 172.935 269.368 173.9 267.828 174.558C266.287 175.217 264.636 175.556 262.968 175.556H250.27V170.316H262.968C264.989 170.316 266.927 169.488 268.356 168.014C269.784 166.54 270.587 164.541 270.587 162.456V141.497C270.587 139.413 269.784 137.413 268.356 135.939C266.927 134.465 264.989 133.637 262.968 133.637H250.27V128.398H262.968C264.636 128.398 266.287 128.736 267.828 129.395C269.368 130.053 270.768 131.018 271.947 132.234C273.126 133.451 274.062 134.895 274.7 136.484C275.338 138.073 275.667 139.777 275.667 141.497V162.456ZM224.873 99.5789C224.873 100.274 225.14 100.94 225.617 101.431C226.093 101.923 226.739 102.199 227.413 102.199C228.086 102.199 228.732 101.923 229.208 101.431C229.685 100.94 229.952 100.274 229.952 99.5789C229.93 98.8063 230.163 98.0487 230.613 97.4306C231.531 96.0033 232.009 94.3229 231.984 92.6101C232.009 90.8973 231.531 89.2168 230.613 87.7895C230.163 87.1714 229.93 86.4138 229.952 85.6412C229.926 84.8679 230.159 84.1089 230.613 83.4929C231.631 82.0815 232.199 80.3787 232.238 78.6199C232.238 77.925 231.97 77.2587 231.494 76.7673C231.018 76.276 230.372 76 229.698 76C229.025 76 228.379 76.276 227.902 76.7673C227.426 77.2587 227.159 77.925 227.159 78.6199C227.185 79.3931 226.952 80.1521 226.498 80.7682C225.58 82.1955 225.102 83.876 225.127 85.5888C225.102 87.3016 225.58 88.9821 226.498 90.4094C226.948 91.0274 227.181 91.785 227.159 92.5577C227.181 93.3303 226.948 94.0879 226.498 94.706C225.57 96.1481 225.092 97.8484 225.127 99.5789H224.873ZM209.635 99.5789C209.635 100.274 209.902 100.94 210.379 101.431C210.855 101.923 211.501 102.199 212.174 102.199C212.848 102.199 213.494 101.923 213.97 101.431C214.447 100.94 214.714 100.274 214.714 99.5789C214.692 98.8063 214.924 98.0487 215.374 97.4306C216.293 96.0033 216.771 94.3229 216.746 92.6101C216.771 90.8973 216.293 89.2168 215.374 87.7895C214.924 87.1714 214.692 86.4138 214.714 85.6412C214.687 84.8679 214.921 84.1089 215.374 83.4929C216.393 82.0815 216.961 80.3787 217 78.6199C217 77.925 216.732 77.2587 216.256 76.7673C215.78 76.276 215.134 76 214.46 76C213.787 76 213.141 76.276 212.664 76.7673C212.188 77.2587 211.921 77.925 211.921 78.6199C211.947 79.3931 211.714 80.1521 211.26 80.7682C210.342 82.1955 209.864 83.876 209.889 85.5888C209.864 87.3016 210.342 88.9821 211.26 90.4094C211.71 91.0274 211.943 91.785 211.921 92.5577C211.943 93.3303 211.71 94.0879 211.26 94.706C210.332 96.1481 209.854 97.8484 209.889 99.5789H209.635ZM194.397 99.5789C194.397 100.274 194.664 100.94 195.141 101.431C195.617 101.923 196.263 102.199 196.936 102.199C197.61 102.199 198.256 101.923 198.732 101.431C199.209 100.94 199.476 100.274 199.476 99.5789C199.453 98.8063 199.686 98.0487 200.136 97.4306C201.055 96.0033 201.533 94.3229 201.508 92.6101C201.533 90.8973 201.055 89.2168 200.136 87.7895C199.686 87.1714 199.453 86.4138 199.476 85.6412C199.449 84.8679 199.683 84.1089 200.136 83.4929C201.155 82.0815 201.723 80.3787 201.762 78.6199C201.762 77.925 201.494 77.2587 201.018 76.7673C200.542 76.276 199.896 76 199.222 76C198.549 76 197.903 76.276 197.426 76.7673C196.95 77.2587 196.682 77.925 196.682 78.6199C196.709 79.3931 196.476 80.1521 196.022 80.7682C195.104 82.1955 194.626 83.876 194.651 85.5888C194.626 87.3016 195.104 88.9821 196.022 90.4094C196.472 91.0274 196.705 91.785 196.682 92.5577C196.705 93.3303 196.472 94.0879 196.022 94.706C195.094 96.1481 194.615 97.8484 194.651 99.5789H194.397Z" fill="#330000"/>
</g>
<path d="M201.5 184.5H223.5C230.793 184.5 237.788 181.603 242.945 176.445C248.103 171.288 251 164.293 251 157V151.5H256.5C260.876 151.5 265.073 149.762 268.167 146.667C271.262 143.573 273 139.376 273 135C273 130.624 271.262 126.427 268.167 123.333C265.073 120.238 260.876 118.5 256.5 118.5H251V113C251 111.541 250.421 110.142 249.389 109.111C248.358 108.079 246.959 107.5 245.5 107.5H179.5C178.041 107.5 176.642 108.079 175.611 109.111C174.579 110.142 174 111.541 174 113V157C174 164.293 176.897 171.288 182.055 176.445C187.212 181.603 194.207 184.5 201.5 184.5ZM251 129.5H256.5C257.959 129.5 259.358 130.079 260.389 131.111C261.421 132.142 262 133.541 262 135C262 136.459 261.421 137.858 260.389 138.889C259.358 139.921 257.959 140.5 256.5 140.5H251V129.5ZM185 118.5H240V157C240 161.376 238.262 165.573 235.167 168.667C232.073 171.762 227.876 173.5 223.5 173.5H201.5C197.124 173.5 192.927 171.762 189.833 168.667C186.738 165.573 185 161.376 185 157V118.5ZM267.5 195.5H168.5C167.041 195.5 165.642 196.079 164.611 197.111C163.579 198.142 163 199.541 163 201C163 202.459 163.579 203.858 164.611 204.889C165.642 205.921 167.041 206.5 168.5 206.5H267.5C268.959 206.5 270.358 205.921 271.389 204.889C272.421 203.858 273 202.459 273 201C273 199.541 272.421 198.142 271.389 197.111C270.358 196.079 268.959 195.5 267.5 195.5Z" fill="#330000"/>
<path d="M202.995 155.06C204.735 155.57 206.19 155.72 207.36 155.51C208.56 155.27 209.625 154.43 210.555 152.99L212.085 150.695L212.76 149.93L223.2 129.5H230.355L216.945 154.43C215.745 156.68 214.32 158.405 212.67 159.605C211.05 160.805 209.265 161.48 207.315 161.63C205.365 161.81 203.34 161.465 201.24 160.595L202.995 155.06ZM212.625 156.005L198.405 129.5H206.19L216.63 150.65L212.625 156.005Z" fill="#330000"/>
</g>
<path d="M28.0969 245.05C29.7469 245.62 31.2019 245.77 32.4619 245.5C33.7219 245.23 34.8469 244.315 35.8369 242.755L37.3669 240.37L37.9519 239.74L48.9319 218.5H54.6919L41.0119 243.925C39.9019 246.055 38.5819 247.675 37.0519 248.785C35.5219 249.895 33.8719 250.51 32.1019 250.63C30.3619 250.78 28.5469 250.45 26.6569 249.64L28.0969 245.05ZM37.8169 244.78L23.7769 218.5H30.0319L41.0119 240.28L37.8169 244.78ZM63.2823 250V225.97H68.9073V235.735H81.0123V225.97H86.6373V250H81.0123V240.505H68.9073V250H63.2823ZM100.251 250V225.97H105.876V241.81L119.151 225.97H124.281V250H118.656V234.16L105.426 250H100.251ZM137.923 250V225.97H149.668C152.578 225.97 154.858 226.51 156.508 227.59C158.188 228.67 159.028 230.2 159.028 232.18C159.028 234.13 158.248 235.66 156.688 236.77C155.128 237.85 153.058 238.39 150.478 238.39L151.153 236.995C154.063 236.995 156.223 237.535 157.633 238.615C159.073 239.665 159.793 241.21 159.793 243.25C159.793 245.38 158.998 247.045 157.408 248.245C155.818 249.415 153.403 250 150.163 250H137.923ZM143.278 245.905H149.713C151.243 245.905 152.398 245.665 153.178 245.185C153.958 244.675 154.348 243.91 154.348 242.89C154.348 241.81 153.988 241.015 153.268 240.505C152.548 239.995 151.423 239.74 149.893 239.74H143.278V245.905ZM143.278 236.005H149.173C150.613 236.005 151.693 235.75 152.413 235.24C153.163 234.7 153.538 233.95 153.538 232.99C153.538 232 153.163 231.265 152.413 230.785C151.693 230.305 150.613 230.065 149.173 230.065H143.278V236.005ZM183.064 250.315C180.394 250.315 178.054 249.79 176.044 248.74C174.064 247.66 172.519 246.19 171.409 244.33C170.329 242.47 169.789 240.355 169.789 237.985C169.789 235.585 170.314 233.47 171.364 231.64C172.444 229.78 173.914 228.325 175.774 227.275C177.664 226.225 179.809 225.7 182.209 225.7C184.549 225.7 186.634 226.21 188.464 227.23C190.294 228.25 191.734 229.69 192.784 231.55C193.834 233.41 194.359 235.6 194.359 238.12C194.359 238.36 194.344 238.63 194.314 238.93C194.314 239.23 194.299 239.515 194.269 239.785H174.244V236.05H191.299L189.094 237.22C189.124 235.84 188.839 234.625 188.239 233.575C187.639 232.525 186.814 231.7 185.764 231.1C184.744 230.5 183.559 230.2 182.209 230.2C180.829 230.2 179.614 230.5 178.564 231.1C177.544 231.7 176.734 232.54 176.134 233.62C175.564 234.67 175.279 235.915 175.279 237.355V238.255C175.279 239.695 175.609 240.97 176.269 242.08C176.929 243.19 177.859 244.045 179.059 244.645C180.259 245.245 181.639 245.545 183.199 245.545C184.549 245.545 185.764 245.335 186.844 244.915C187.924 244.495 188.884 243.835 189.724 242.935L192.739 246.4C191.659 247.66 190.294 248.635 188.644 249.325C187.024 249.985 185.164 250.315 183.064 250.315ZM219.906 250.315C217.956 250.315 216.171 249.865 214.551 248.965C212.961 248.065 211.686 246.715 210.726 244.915C209.796 243.085 209.331 240.775 209.331 237.985C209.331 235.165 209.781 232.855 210.681 231.055C211.611 229.255 212.871 227.92 214.461 227.05C216.051 226.15 217.866 225.7 219.906 225.7C222.276 225.7 224.361 226.21 226.161 227.23C227.991 228.25 229.431 229.675 230.481 231.505C231.561 233.335 232.101 235.495 232.101 237.985C232.101 240.475 231.561 242.65 230.481 244.51C229.431 246.34 227.991 247.765 226.161 248.785C224.361 249.805 222.276 250.315 219.906 250.315ZM206.586 258.73V225.97H211.941V231.64L211.761 238.03L212.211 244.42V258.73H206.586ZM219.276 245.5C220.626 245.5 221.826 245.2 222.876 244.6C223.956 244 224.811 243.13 225.441 241.99C226.071 240.85 226.386 239.515 226.386 237.985C226.386 236.425 226.071 235.09 225.441 233.98C224.811 232.84 223.956 231.97 222.876 231.37C221.826 230.77 220.626 230.47 219.276 230.47C217.926 230.47 216.711 230.77 215.631 231.37C214.551 231.97 213.696 232.84 213.066 233.98C212.436 235.09 212.121 236.425 212.121 237.985C212.121 239.515 212.436 240.85 213.066 241.99C213.696 243.13 214.551 244 215.631 244.6C216.711 245.2 217.926 245.5 219.276 245.5ZM254.71 250.315C252.19 250.315 249.94 249.79 247.96 248.74C246.01 247.66 244.48 246.19 243.37 244.33C242.26 242.47 241.705 240.355 241.705 237.985C241.705 235.585 242.26 233.47 243.37 231.64C244.48 229.78 246.01 228.325 247.96 227.275C249.94 226.225 252.19 225.7 254.71 225.7C257.05 225.7 259.105 226.18 260.875 227.14C262.675 228.07 264.04 229.45 264.97 231.28L260.65 233.8C259.93 232.66 259.045 231.82 257.995 231.28C256.975 230.74 255.865 230.47 254.665 230.47C253.285 230.47 252.04 230.77 250.93 231.37C249.82 231.97 248.95 232.84 248.32 233.98C247.69 235.09 247.375 236.425 247.375 237.985C247.375 239.545 247.69 240.895 248.32 242.035C248.95 243.145 249.82 244 250.93 244.6C252.04 245.2 253.285 245.5 254.665 245.5C255.865 245.5 256.975 245.23 257.995 244.69C259.045 244.15 259.93 243.31 260.65 242.17L264.97 244.69C264.04 246.49 262.675 247.885 260.875 248.875C259.105 249.835 257.05 250.315 254.71 250.315ZM275.997 250V225.97H281.622V241.81L294.897 225.97H300.027V250H294.402V234.16L281.172 250H275.997ZM318.664 250V229.39L319.969 230.74H310.204V225.97H332.704V230.74H322.984L324.289 229.39V250H318.664ZM353.009 250.315C350.339 250.315 347.999 249.79 345.989 248.74C344.009 247.66 342.464 246.19 341.354 244.33C340.274 242.47 339.734 240.355 339.734 237.985C339.734 235.585 340.259 233.47 341.309 231.64C342.389 229.78 343.859 228.325 345.719 227.275C347.609 226.225 349.754 225.7 352.154 225.7C354.494 225.7 356.579 226.21 358.409 227.23C360.239 228.25 361.679 229.69 362.729 231.55C363.779 233.41 364.304 235.6 364.304 238.12C364.304 238.36 364.289 238.63 364.259 238.93C364.259 239.23 364.244 239.515 364.214 239.785H344.189V236.05H361.244L359.039 237.22C359.069 235.84 358.784 234.625 358.184 233.575C357.584 232.525 356.759 231.7 355.709 231.1C354.689 230.5 353.504 230.2 352.154 230.2C350.774 230.2 349.559 230.5 348.509 231.1C347.489 231.7 346.679 232.54 346.079 233.62C345.509 234.67 345.224 235.915 345.224 237.355V238.255C345.224 239.695 345.554 240.97 346.214 242.08C346.874 243.19 347.804 244.045 349.004 244.645C350.204 245.245 351.584 245.545 353.144 245.545C354.494 245.545 355.709 245.335 356.789 244.915C357.869 244.495 358.829 243.835 359.669 242.935L362.684 246.4C361.604 247.66 360.239 248.635 358.589 249.325C356.969 249.985 355.109 250.315 353.009 250.315ZM380.604 250V229.39L381.909 230.74H372.144V225.97H394.644V230.74H384.924L386.229 229.39V250H380.604ZM161.431 288.8L170.746 305H158.776L152.746 293.615H149.776V305H139.156V273.5H149.776V285.245H153.016L159.721 273.5H170.791L161.431 288.8ZM194.788 305.72C191.398 305.72 188.353 305.015 185.653 303.605C182.953 302.195 180.838 300.245 179.308 297.755C177.778 295.235 177.013 292.4 177.013 289.25C177.013 286.1 177.778 283.28 179.308 280.79C180.838 278.27 182.953 276.305 185.653 274.895C188.353 273.485 191.398 272.78 194.788 272.78C198.178 272.78 201.223 273.485 203.923 274.895C206.623 276.305 208.738 278.27 210.268 280.79C211.798 283.28 212.563 286.1 212.563 289.25C212.563 292.4 211.798 295.235 210.268 297.755C208.738 300.245 206.623 302.195 203.923 303.605C201.223 305.015 198.178 305.72 194.788 305.72ZM194.788 297.125C196.108 297.125 197.293 296.81 198.343 296.18C199.423 295.52 200.278 294.605 200.908 293.435C201.538 292.235 201.853 290.84 201.853 289.25C201.853 287.66 201.538 286.28 200.908 285.11C200.278 283.91 199.423 282.995 198.343 282.365C197.293 281.705 196.108 281.375 194.788 281.375C193.468 281.375 192.268 281.705 191.188 282.365C190.138 282.995 189.298 283.91 188.668 285.11C188.038 286.28 187.723 287.66 187.723 289.25C187.723 290.84 188.038 292.235 188.668 293.435C189.298 294.605 190.138 295.52 191.188 296.18C192.268 296.81 193.468 297.125 194.788 297.125ZM262.78 289.115C262.78 293.255 261.4 296.54 258.64 298.97C255.88 301.37 251.86 302.75 246.58 303.11V306.62H236.86V303.065C231.55 302.615 227.515 301.205 224.755 298.835C222.025 296.465 220.66 293.225 220.66 289.115C220.66 285.005 222.025 281.78 224.755 279.44C227.515 277.07 231.55 275.66 236.86 275.21V271.925H246.58V275.21C251.89 275.6 255.91 276.995 258.64 279.395C261.4 281.765 262.78 285.005 262.78 289.115ZM246.58 294.83C248.68 294.53 250.195 293.93 251.125 293.03C252.055 292.1 252.52 290.78 252.52 289.07C252.52 287.39 252.04 286.1 251.08 285.2C250.15 284.3 248.65 283.7 246.58 283.4V294.83ZM230.92 289.115C230.92 290.765 231.4 292.04 232.36 292.94C233.35 293.84 234.85 294.455 236.86 294.785V283.445C234.73 283.745 233.2 284.345 232.27 285.245C231.37 286.115 230.92 287.405 230.92 289.115ZM298.846 296.99V305H272.656V273.5H298.261V281.51H283.096V285.2H296.416V292.85H283.096V296.99H298.846Z" fill="#330000"/>
<line y1="-5" x2="90.6964" y2="-5" transform="matrix(0 1 1 0 10.0883 244)" stroke="#330000" stroke-width="10"/>
<line y1="-5" x2="235.66" y2="-5" transform="matrix(0.942033 0.335519 0.326099 -0.945336 4 326.931)" stroke="#330000" stroke-width="10"/>
<line x1="438.912" y1="244" x2="438.912" y2="334.696" stroke="#330000" stroke-width="10"/>
<line y1="-5" x2="235.66" y2="-5" transform="matrix(-0.942033 0.335519 -0.326099 -0.945336 440 326.931)" stroke="#330000" stroke-width="10"/>
<line x1="5.08826" y1="172" x2="5.08826" y2="81.3036" stroke="#330000" stroke-width="10"/>
<line y1="-5" x2="235.66" y2="-5" transform="matrix(0.942033 -0.335519 0.326099 0.945336 4 89.0686)" stroke="#330000" stroke-width="10"/>
<line y1="-5" x2="90.6964" y2="-5" transform="matrix(0 -1 -1 0 433.912 172)" stroke="#330000" stroke-width="10"/>
<line y1="-5" x2="235.66" y2="-5" transform="matrix(-0.942033 -0.335519 -0.326099 0.945336 440 89.0686)" stroke="#330000" stroke-width="10"/>
<defs>
<clipPath id="clip0_43_3">
<rect width="118" height="144" fill="white" transform="translate(159 70)"/>
</clipPath>
<clipPath id="clip1_43_3">
<rect width="50" height="28" fill="white" transform="translate(189 76)"/>
</clipPath>
</defs>
</svg>
