<svg width="281" height="240" viewBox="0 0 281 240" fill="none" xmlns="http://www.w3.org/2000/svg">
<g opacity="0.15">
<path d="M12.9431 228.631H249.717" stroke="#474747" stroke-width="6" stroke-miterlimit="10" stroke-linecap="round" stroke-linejoin="round"/>
<path d="M214.496 228.631V108.377" stroke="#474747" stroke-width="6" stroke-miterlimit="10" stroke-linecap="round" stroke-linejoin="round"/>
<path d="M223.82 75.7295C232.502 87.3857 255.068 161.835 214.496 161.835C173.925 161.835 196.49 87.3857 205.173 75.7295C208.206 71.6575 211.747 69.8949 214.496 69.8949C217.245 69.8949 220.786 71.6571 223.82 75.7295Z" stroke="#474747" stroke-width="6" stroke-miterlimit="10" stroke-linecap="round" stroke-linejoin="round"/>
<path d="M214.496 126.872L223.509 117.557" stroke="#474747" stroke-width="6" stroke-miterlimit="10" stroke-linecap="round" stroke-linejoin="round"/>
<path d="M214.496 148.575L202.236 135.903" stroke="#474747" stroke-width="6" stroke-miterlimit="10" stroke-linecap="round" stroke-linejoin="round"/>
<path d="M244.232 176.039C253.987 176.039 261.896 167.865 261.896 157.782C261.896 147.699 253.987 139.525 244.232 139.525C234.476 139.525 226.568 147.699 226.568 157.782C226.568 167.865 234.476 176.039 244.232 176.039Z" fill="#FFD6AE"/>
<path d="M244.232 176.039C253.987 176.039 261.896 167.865 261.896 157.782C261.896 147.699 253.987 139.525 244.232 139.525C234.476 139.525 226.568 147.699 226.568 157.782C226.568 167.865 234.476 176.039 244.232 176.039Z" stroke="#474747" stroke-width="6" stroke-miterlimit="10" stroke-linecap="round" stroke-linejoin="round"/>
<path d="M214.496 188.54L247.174 154.765" stroke="#474747" stroke-width="6" stroke-miterlimit="10" stroke-linecap="round" stroke-linejoin="round"/>
<path d="M247.865 168.504H233.881" stroke="#474747" stroke-width="6" stroke-miterlimit="10" stroke-linecap="round" stroke-linejoin="round"/>
<path d="M240.874 161.277V154.765" stroke="#474747" stroke-width="6" stroke-miterlimit="10" stroke-linecap="round" stroke-linejoin="round"/>
<path d="M214.496 210.527L185.146 180.192" stroke="#474747" stroke-width="6" stroke-miterlimit="10" stroke-linecap="round" stroke-linejoin="round"/>
<path d="M201.512 199.226C208.184 194.024 208.047 182.209 201.206 172.836C194.365 163.462 183.411 160.081 176.739 165.283C170.067 170.485 170.204 182.3 177.045 191.673C183.886 201.047 194.84 204.428 201.512 199.226Z" stroke="#474747" stroke-width="6" stroke-miterlimit="10" stroke-linecap="round" stroke-linejoin="round"/>
<path d="M199.928 195.47V185.68" stroke="#474747" stroke-width="6" stroke-miterlimit="10" stroke-linecap="round" stroke-linejoin="round"/>
<path d="M185.146 187.7H192.41" stroke="#474747" stroke-width="6" stroke-miterlimit="10" stroke-linecap="round" stroke-linejoin="round"/>
<path d="M45.7322 206.895H37.7549V227.293H45.7322V206.895Z" stroke="#474747" stroke-width="6" stroke-miterlimit="10" stroke-linecap="round" stroke-linejoin="round"/>
<path d="M128.21 206.895H120.233V227.293H128.21V206.895Z" stroke="#474747" stroke-width="6" stroke-miterlimit="10" stroke-linecap="round" stroke-linejoin="round"/>
<path d="M48.4807 153.857H42.8965V197.589H48.4807V153.857Z" stroke="#474747" stroke-width="6" stroke-miterlimit="10" stroke-linecap="round" stroke-linejoin="round"/>
<path d="M123.068 153.857H117.484V197.589H123.068V153.857Z" stroke="#474747" stroke-width="6" stroke-miterlimit="10" stroke-linecap="round" stroke-linejoin="round"/>
<path d="M136.357 160.54H24.676V172.907H136.357V160.54Z" fill="white"/>
<path d="M136.357 160.54H24.676V172.907H136.357V160.54Z" stroke="#474747" stroke-width="6" stroke-miterlimit="10" stroke-linecap="round" stroke-linejoin="round"/>
<path d="M136.357 172.907H24.676V185.275H136.357V172.907Z" fill="white"/>
<path d="M136.357 172.907H24.676V185.275H136.357V172.907Z" stroke="#474747" stroke-width="6" stroke-miterlimit="10" stroke-linecap="round" stroke-linejoin="round"/>
<path d="M120.276 168.827C121.157 168.827 121.872 168.089 121.872 167.178C121.872 166.267 121.157 165.529 120.276 165.529C119.395 165.529 118.68 166.267 118.68 167.178C118.68 168.089 119.395 168.827 120.276 168.827Z" stroke="#474747" stroke-width="6" stroke-miterlimit="10" stroke-linecap="round" stroke-linejoin="round"/>
<path d="M120.276 180.74C121.157 180.74 121.872 180.002 121.872 179.091C121.872 178.181 121.157 177.442 120.276 177.442C119.395 177.442 118.68 178.181 118.68 179.091C118.68 180.002 119.395 180.74 120.276 180.74Z" stroke="#474747" stroke-width="6" stroke-miterlimit="10" stroke-linecap="round" stroke-linejoin="round"/>
<path d="M45.6888 168.827C46.57 168.827 47.2844 168.089 47.2844 167.178C47.2844 166.267 46.57 165.529 45.6888 165.529C44.8076 165.529 44.0933 166.267 44.0933 167.178C44.0933 168.089 44.8076 168.827 45.6888 168.827Z" stroke="#474747" stroke-width="6" stroke-miterlimit="10" stroke-linecap="round" stroke-linejoin="round"/>
<path d="M45.6888 180.74C46.57 180.74 47.2844 180.002 47.2844 179.091C47.2844 178.181 46.57 177.442 45.6888 177.442C44.8076 177.442 44.0933 178.181 44.0933 179.091C44.0933 180.002 44.8076 180.74 45.6888 180.74Z" stroke="#474747" stroke-width="6" stroke-miterlimit="10" stroke-linecap="round" stroke-linejoin="round"/>
<path d="M145.378 197.589H18.9387V206.894H145.378V197.589Z" stroke="#474747" stroke-width="6" stroke-miterlimit="10" stroke-linecap="round" stroke-linejoin="round"/>
</g>
<path d="M103.431 215.284L104.847 225.865C105.059 227.448 106.491 228.631 108.197 228.631H154.042C155.749 228.631 157.181 227.448 157.392 225.865L158.808 215.284H103.431Z" fill="#330000"/>
<path d="M153.054 228.631L156.391 227.739L158.808 215.284H103.431L103.975 219.351H149.684C149.708 219.351 149.732 219.351 149.757 219.351C156.292 219.351 153.054 228.631 153.054 228.631Z" fill="#3C2719"/>
<path d="M164.358 211.704L176.862 108.377H85.3772L97.8819 211.704C98.1297 213.753 99.8362 215.284 101.874 215.284H160.365C162.403 215.284 164.109 213.753 164.358 211.704Z" fill="#5EB173"/>
<path d="M164.358 211.704L176.862 108.377H85.3772L97.8819 211.704C98.1297 213.753 99.8362 215.284 101.874 215.284H160.365C162.403 215.284 164.109 213.753 164.358 211.704Z" fill="#4E0000" fill-opacity="0.78"/>
<path d="M85.3772 108.377L86.3608 116.503H162.458C165.366 116.503 167.616 119.138 167.255 122.12L159.323 207.138C159.019 210.398 156.652 213.05 153.533 213.627L144.574 215.285L157.314 215.294L157.317 215.285H160.365C162.403 215.285 164.11 213.754 164.358 211.705L176.863 108.377H85.3772V108.377Z" fill="#330000"/>
<path d="M103.431 215.284L104.847 225.865C105.059 227.448 106.491 228.631 108.197 228.631H154.042C155.749 228.631 157.181 227.448 157.392 225.865L158.808 215.284H103.431Z" stroke="black" stroke-width="6" stroke-miterlimit="10" stroke-linecap="round" stroke-linejoin="round"/>
<path d="M164.358 211.704L176.862 108.377H85.3772L97.8819 211.704C98.1297 213.753 99.8362 215.284 101.874 215.284H160.365C162.403 215.284 164.109 213.753 164.358 211.704Z" stroke="black" stroke-width="6" stroke-miterlimit="10" stroke-linecap="round" stroke-linejoin="round"/>
<path d="M178.831 108.377C147.023 108.377 115.216 108.377 83.4083 108.377C80.3002 108.406 80.7279 106.682 81.8049 103.371C82.4465 101.425 82.4465 99.3128 81.8049 97.3668C80.7279 94.056 80.3002 92.3315 83.4083 92.3607C115.216 92.3607 147.023 92.3607 178.831 92.3607C181.939 92.3315 181.511 94.056 180.434 97.3668C179.793 99.3128 179.793 101.425 180.434 103.371C181.511 106.682 181.939 108.406 178.831 108.377Z" fill="#330000"/>
<path d="M180.434 97.3667C181.13 95.2289 181.553 93.7535 180.93 92.9839C180.796 93.4707 180.626 94.0075 180.434 94.5957C179.967 96.013 179.844 97.5179 180.058 98.9833C180.137 98.4366 180.26 97.8954 180.434 97.3667Z" fill="#7C7C7C"/>
<path d="M82.1817 98.983C82.3952 97.5179 82.2726 96.0126 81.8051 94.5953C81.6137 94.0075 81.4438 93.4704 81.3097 92.9835C80.6867 93.7536 81.1098 95.2289 81.8051 97.3664C81.9796 97.8954 82.1019 98.4366 82.1817 98.983Z" fill="#7C7C7C"/>
<path d="M180.93 104.982C180.588 105.405 179.932 105.616 178.831 105.605C147.023 105.605 115.216 105.605 83.4084 105.605C82.3072 105.616 81.6516 105.405 81.3096 104.982C80.6884 107.237 80.8522 108.401 83.4084 108.377C115.216 108.377 147.023 108.377 178.831 108.377C181.387 108.401 181.551 107.237 180.93 104.982Z" fill="#7C7C7C"/>
<path d="M180.434 103.371C180.376 103.194 180.329 103.014 180.281 102.834C179.818 104.576 179.853 106.422 180.39 108.147C181.721 107.578 181.276 105.959 180.434 103.371Z" fill="#646464"/>
<path d="M82.2806 101.028C82.6519 100.869 84.0368 97.2921 86.1774 97.2921C117.985 97.2921 145.054 97.2921 176.862 97.2921C179.451 97.2921 179.909 102.675 180.281 102.834C180.297 102.783 180.417 97.4178 180.434 97.3668C181.512 94.0534 181.939 92.3289 178.823 92.361C147.046 92.3614 115.282 92.3618 83.5049 92.3625C80.2913 92.2967 80.7169 94.0224 81.805 97.3672C81.8221 97.4182 82.2649 100.977 82.2806 101.028Z" fill="#3C2719"/>
<path d="M81.8492 108.147C82.3857 106.422 82.4215 104.576 81.9583 102.834C81.9104 103.014 81.8635 103.194 81.8052 103.371C80.9629 105.959 80.518 107.578 81.8492 108.147Z" fill="#646464"/>
<path d="M178.831 108.377C147.023 108.377 115.216 108.377 83.4083 108.377C80.3002 108.406 80.7279 106.682 81.8049 103.371C82.4465 101.425 82.4465 99.3128 81.8049 97.3668C80.7279 94.056 80.3002 92.3315 83.4083 92.3607C115.216 92.3607 147.023 92.3607 178.831 92.3607C181.939 92.3315 181.511 94.056 180.434 97.3668C179.793 99.3128 179.793 101.425 180.434 103.371C181.511 106.682 181.939 108.406 178.831 108.377Z" stroke="black" stroke-width="6" stroke-miterlimit="10" stroke-linecap="round" stroke-linejoin="round"/>
<path d="M176.061 92.3611H86.1777L87.0576 89.1198C88.4614 83.9488 93.2427 80.3492 98.7075 80.3492H163.532C168.997 80.3492 173.778 83.9488 175.182 89.1198L176.061 92.3611Z" fill="#D6D6D4"/>
<path d="M176.061 92.3611H86.1777L87.0576 89.1198C88.4614 83.9488 93.2427 80.3492 98.7075 80.3492H163.532C168.997 80.3492 173.778 83.9488 175.182 89.1198L176.061 92.3611Z" fill="#330000"/>
<path d="M105.04 84.1768L166.373 84.1576C170.808 84.1576 173.541 87.4592 174.761 87.8636C172.596 84.5044 167.752 80.3492 163.532 80.3492H98.7075C93.2427 80.3492 88.4614 83.9488 87.0576 89.1198L86.1777 92.3611H93.973C95.854 88.0869 100.175 84.1768 105.04 84.1768Z" fill="#3C2719"/>
<path d="M176.061 92.3611H86.1777L87.0576 89.1198C88.4614 83.9488 93.2427 80.3492 98.7075 80.3492H163.532C168.997 80.3492 173.778 83.9488 175.182 89.1198L176.061 92.3611Z" stroke="black" stroke-width="6" stroke-miterlimit="10" stroke-linecap="round" stroke-linejoin="round"/>
<path d="M158.359 80.3493H133.822V77.9815C133.822 75.2352 135.976 73.0087 138.633 73.0087H153.548C156.205 73.0087 158.359 75.2352 158.359 77.9815V80.3493Z" fill="#D6D6D4"/>
<path d="M158.359 80.3493H133.822V77.9815C133.822 75.2352 135.976 73.0087 138.633 73.0087H153.548C156.205 73.0087 158.359 75.2352 158.359 77.9815V80.3493Z" fill="#D6D6D4"/>
<path d="M133.863 80.2698C133.863 77.6529 135.916 75.5317 138.448 75.5317H153.816C156.15 75.5317 158.072 77.335 158.359 79.6661V77.7472C158.359 75.1302 156.307 73.009 153.775 73.009H138.406C135.875 73.009 133.822 75.1302 133.822 77.7472V80.3496H133.863V80.2698Z" fill="white"/>
<path d="M158.359 80.3492H133.822V77.9814C133.822 75.2351 135.976 73.0085 138.633 73.0085H153.548C156.205 73.0085 158.359 75.2351 158.359 77.9814V80.3492Z" stroke="black" stroke-width="6" stroke-miterlimit="10" stroke-linecap="round" stroke-linejoin="round"/>
<path d="M94.1323 127.945C93.0041 127.425 91.2969 125.733 91.5132 123.404C91.5857 121.455 92.6931 119.642 94.4042 118.672C95.6467 117.967 96.982 117.849 98.0673 118.349C98.3989 118.502 98.7043 118.711 98.9752 118.971L98.9884 118.984L98.9997 118.999C99.1734 119.224 99.2413 119.425 99.2071 119.614C99.149 119.936 98.8231 120.114 98.4103 120.339C97.5823 120.791 96.4481 121.409 96.4036 123.495C96.352 125.912 95.525 127.846 94.8151 128.07C94.6537 128.121 94.424 128.079 94.1323 127.945Z" fill="#885F3E"/>
<path d="M97.1256 129.208C96.711 129.017 96.3887 128.689 96.2413 128.306C96.1119 127.971 96.1256 127.622 96.2799 127.323C96.6808 126.548 96.7209 125.648 96.7596 124.778C96.795 123.984 96.8283 123.235 97.1126 122.569C98.1592 120.12 100.232 120.146 100.484 120.159C100.655 120.144 100.829 120.177 101 120.256C101.692 120.575 102.264 121.607 102.457 122.887C102.586 123.741 102.789 126.683 100.009 128.675C99.0044 129.396 97.9535 129.59 97.1256 129.208Z" fill="#885F3E"/>
<path d="M99.0325 118.872C99.9714 120.095 96.5229 119.481 96.4367 123.148C96.3777 125.653 95.5236 127.291 95.017 127.453C94.5104 127.615 91.8352 125.911 92.104 123.116C92.2544 119.184 96.7063 116.627 99.0325 118.872Z" fill="#F5EAC4" fill-opacity="0.7"/>
<path d="M100.558 120.194C100.558 120.194 98.6732 120.13 97.6461 122.531C97.0719 123.874 97.4635 125.666 96.7079 127.157C96.1831 128.193 97.592 129.685 99.661 128.029C103.307 125.11 101.982 119.959 100.558 120.194Z" fill="#F5EAC4" fill-opacity="0.7"/>
<path d="M150.157 209.283C149.029 208.763 147.322 207.071 147.538 204.742C147.611 202.794 148.718 200.981 150.429 200.01C151.672 199.305 153.007 199.187 154.092 199.687C154.424 199.84 154.729 200.049 155 200.31L155.014 200.322L155.025 200.337C155.198 200.562 155.266 200.763 155.232 200.952C155.174 201.275 154.848 201.452 154.435 201.677C153.607 202.129 152.473 202.748 152.429 204.833C152.377 207.25 151.55 209.184 150.84 209.409C150.679 209.46 150.449 209.417 150.157 209.283Z" fill="#885F3E"/>
<path d="M153.151 210.547C152.736 210.356 152.414 210.027 152.266 209.645C152.137 209.309 152.151 208.96 152.305 208.661C152.706 207.886 152.746 206.986 152.785 206.116C152.82 205.323 152.853 204.573 153.138 203.908C154.184 201.458 156.258 201.484 156.509 201.497C156.68 201.482 156.854 201.515 157.026 201.594C157.717 201.913 158.289 202.946 158.482 204.226C158.611 205.08 158.815 208.021 156.034 210.014C155.03 210.734 153.979 210.928 153.151 210.547Z" fill="#885F3E"/>
<path d="M155.058 200.21C155.997 201.434 152.548 200.819 152.462 204.487C152.403 206.991 151.549 208.629 151.042 208.791C150.536 208.953 147.86 207.249 148.129 204.454C148.28 200.523 152.731 197.966 155.058 200.21Z" fill="#F5EAC4" fill-opacity="0.7"/>
<path d="M156.583 201.532C156.583 201.532 154.698 201.468 153.671 203.869C153.097 205.212 153.489 207.004 152.733 208.495C152.208 209.531 153.617 211.024 155.686 209.367C159.332 206.448 158.007 201.297 156.583 201.532Z" fill="#F5EAC4" fill-opacity="0.7"/>
<path d="M158.749 26.6604C155.976 30.6776 152.88 31.6972 150.541 36.3673C149.895 37.656 147.999 41.4422 148.574 45.9788C149.334 51.9838 153.691 53.5205 154.118 58.9174C154.311 61.3713 153.669 64.328 151.256 67.7896" stroke="#3C2719" stroke-width="6" stroke-miterlimit="10" stroke-linecap="round" stroke-linejoin="round"/>
<path d="M167.709 7.71753C169.892 17.0773 168.324 22.8387 166.457 26.3861C163.05 32.8572 156.861 35.3569 156.442 41.8713C156.244 44.947 157.422 47.5325 158.359 49.1421" stroke="#3C2719" stroke-width="6" stroke-miterlimit="10" stroke-linecap="round" stroke-linejoin="round"/>
<path d="M147.203 29.8979C147.203 29.8979 142.911 35.0734 142.911 39.756" stroke="#3C2719" stroke-width="6" stroke-miterlimit="10" stroke-linecap="round" stroke-linejoin="round"/>
<path d="M95.1469 155.865C95.4769 155.979 95.7679 156.009 96.0199 155.955C96.2719 155.901 96.4969 155.718 96.6949 155.406L97.0009 154.929L97.1179 154.803L99.3139 150.555H100.466L97.7299 155.64C97.5079 156.066 97.2439 156.39 96.9379 156.612C96.6319 156.834 96.3019 156.957 95.9479 156.981C95.5999 157.011 95.2369 156.945 94.8589 156.783L95.1469 155.865ZM97.0909 155.811L94.2829 150.555H95.5339L97.7299 154.911L97.0909 155.811ZM101.779 156.855V152.049H102.904V154.002H105.325V152.049H106.45V156.855H105.325V154.956H102.904V156.855H101.779ZM108.768 156.855V152.049H109.893V155.217L112.548 152.049H113.574V156.855H112.449V153.687L109.803 156.855H108.768ZM115.897 156.855V152.049H118.246C118.828 152.049 119.284 152.157 119.614 152.373C119.95 152.589 120.118 152.895 120.118 153.291C120.118 153.681 119.962 153.987 119.65 154.209C119.338 154.425 118.924 154.533 118.408 154.533L118.543 154.254C119.125 154.254 119.557 154.362 119.839 154.578C120.127 154.788 120.271 155.097 120.271 155.505C120.271 155.931 120.112 156.264 119.794 156.504C119.476 156.738 118.993 156.855 118.345 156.855H115.897ZM116.968 156.036H118.255C118.561 156.036 118.792 155.988 118.948 155.892C119.104 155.79 119.182 155.637 119.182 155.433C119.182 155.217 119.11 155.058 118.966 154.956C118.822 154.854 118.597 154.803 118.291 154.803H116.968V156.036ZM116.968 154.056H118.147C118.435 154.056 118.651 154.005 118.795 153.903C118.945 153.795 119.02 153.645 119.02 153.453C119.02 153.255 118.945 153.108 118.795 153.012C118.651 152.916 118.435 152.868 118.147 152.868H116.968V154.056ZM124.52 156.918C123.986 156.918 123.518 156.813 123.116 156.603C122.72 156.387 122.411 156.093 122.189 155.721C121.973 155.349 121.865 154.926 121.865 154.452C121.865 153.972 121.97 153.549 122.18 153.183C122.396 152.811 122.69 152.52 123.062 152.31C123.44 152.1 123.869 151.995 124.349 151.995C124.817 151.995 125.234 152.097 125.6 152.301C125.966 152.505 126.254 152.793 126.464 153.165C126.674 153.537 126.779 153.975 126.779 154.479C126.779 154.527 126.776 154.581 126.77 154.641C126.77 154.701 126.767 154.758 126.761 154.812H122.756V154.065H126.167L125.726 154.299C125.732 154.023 125.675 153.78 125.555 153.57C125.435 153.36 125.27 153.195 125.06 153.075C124.856 152.955 124.619 152.895 124.349 152.895C124.073 152.895 123.83 152.955 123.62 153.075C123.416 153.195 123.254 153.363 123.134 153.579C123.02 153.789 122.963 154.038 122.963 154.326V154.506C122.963 154.794 123.029 155.049 123.161 155.271C123.293 155.493 123.479 155.664 123.719 155.784C123.959 155.904 124.235 155.964 124.547 155.964C124.817 155.964 125.06 155.922 125.276 155.838C125.492 155.754 125.684 155.622 125.852 155.442L126.455 156.135C126.239 156.387 125.966 156.582 125.636 156.72C125.312 156.852 124.94 156.918 124.52 156.918ZM131.484 156.918C131.094 156.918 130.737 156.828 130.413 156.648C130.095 156.468 129.84 156.198 129.648 155.838C129.462 155.472 129.369 155.01 129.369 154.452C129.369 153.888 129.459 153.426 129.639 153.066C129.825 152.706 130.077 152.439 130.395 152.265C130.713 152.085 131.076 151.995 131.484 151.995C131.958 151.995 132.375 152.097 132.735 152.301C133.101 152.505 133.389 152.79 133.599 153.156C133.815 153.522 133.923 153.954 133.923 154.452C133.923 154.95 133.815 155.385 133.599 155.757C133.389 156.123 133.101 156.408 132.735 156.612C132.375 156.816 131.958 156.918 131.484 156.918ZM128.82 158.601V152.049H129.891V153.183L129.855 154.461L129.945 155.739V158.601H128.82ZM131.358 155.955C131.628 155.955 131.868 155.895 132.078 155.775C132.294 155.655 132.465 155.481 132.591 155.253C132.717 155.025 132.78 154.758 132.78 154.452C132.78 154.14 132.717 153.873 132.591 153.651C132.465 153.423 132.294 153.249 132.078 153.129C131.868 153.009 131.628 152.949 131.358 152.949C131.088 152.949 130.845 153.009 130.629 153.129C130.413 153.249 130.242 153.423 130.116 153.651C129.99 153.873 129.927 154.14 129.927 154.452C129.927 154.758 129.99 155.025 130.116 155.253C130.242 155.481 130.413 155.655 130.629 155.775C130.845 155.895 131.088 155.955 131.358 155.955ZM138.039 156.918C137.535 156.918 137.085 156.813 136.689 156.603C136.299 156.387 135.993 156.093 135.771 155.721C135.549 155.349 135.438 154.926 135.438 154.452C135.438 153.972 135.549 153.549 135.771 153.183C135.993 152.811 136.299 152.52 136.689 152.31C137.085 152.1 137.535 151.995 138.039 151.995C138.507 151.995 138.918 152.091 139.272 152.283C139.632 152.469 139.905 152.745 140.091 153.111L139.227 153.615C139.083 153.387 138.906 153.219 138.696 153.111C138.492 153.003 138.27 152.949 138.03 152.949C137.754 152.949 137.505 153.009 137.283 153.129C137.061 153.249 136.887 153.423 136.761 153.651C136.635 153.873 136.572 154.14 136.572 154.452C136.572 154.764 136.635 155.034 136.761 155.262C136.887 155.484 137.061 155.655 137.283 155.775C137.505 155.895 137.754 155.955 138.03 155.955C138.27 155.955 138.492 155.901 138.696 155.793C138.906 155.685 139.083 155.517 139.227 155.289L140.091 155.793C139.905 156.153 139.632 156.432 139.272 156.63C138.918 156.822 138.507 156.918 138.039 156.918ZM141.892 156.855V152.049H143.017V155.217L145.672 152.049H146.698V156.855H145.573V153.687L142.927 156.855H141.892ZM150.02 156.855V152.733L150.281 153.003H148.328V152.049H152.828V153.003H150.884L151.145 152.733V156.855H150.02ZM156.484 156.918C155.95 156.918 155.482 156.813 155.08 156.603C154.684 156.387 154.375 156.093 154.153 155.721C153.937 155.349 153.829 154.926 153.829 154.452C153.829 153.972 153.934 153.549 154.144 153.183C154.36 152.811 154.654 152.52 155.026 152.31C155.404 152.1 155.833 151.995 156.313 151.995C156.781 151.995 157.198 152.097 157.564 152.301C157.93 152.505 158.218 152.793 158.428 153.165C158.638 153.537 158.743 153.975 158.743 154.479C158.743 154.527 158.74 154.581 158.734 154.641C158.734 154.701 158.731 154.758 158.725 154.812H154.72V154.065H158.131L157.69 154.299C157.696 154.023 157.639 153.78 157.519 153.57C157.399 153.36 157.234 153.195 157.024 153.075C156.82 152.955 156.583 152.895 156.313 152.895C156.037 152.895 155.794 152.955 155.584 153.075C155.38 153.195 155.218 153.363 155.098 153.579C154.984 153.789 154.927 154.038 154.927 154.326V154.506C154.927 154.794 154.993 155.049 155.125 155.271C155.257 155.493 155.443 155.664 155.683 155.784C155.923 155.904 156.199 155.964 156.511 155.964C156.781 155.964 157.024 155.922 157.24 155.838C157.456 155.754 157.648 155.622 157.816 155.442L158.419 156.135C158.203 156.387 157.93 156.582 157.6 156.72C157.276 156.852 156.904 156.918 156.484 156.918ZM161.598 156.855V152.733L161.859 153.003H159.906V152.049H164.406V153.003H162.462L162.723 152.733V156.855H161.598ZM120.194 164.615L122.057 167.855H119.663L118.457 165.578H117.863V167.855H115.739V161.555H117.863V163.904H118.511L119.852 161.555H122.066L120.194 164.615ZM126.46 167.999C125.782 167.999 125.173 167.858 124.633 167.576C124.093 167.294 123.67 166.904 123.364 166.406C123.058 165.902 122.905 165.335 122.905 164.705C122.905 164.075 123.058 163.511 123.364 163.013C123.67 162.509 124.093 162.116 124.633 161.834C125.173 161.552 125.782 161.411 126.46 161.411C127.138 161.411 127.747 161.552 128.287 161.834C128.827 162.116 129.25 162.509 129.556 163.013C129.862 163.511 130.015 164.075 130.015 164.705C130.015 165.335 129.862 165.902 129.556 166.406C129.25 166.904 128.827 167.294 128.287 167.576C127.747 167.858 127.138 167.999 126.46 167.999ZM126.46 166.28C126.724 166.28 126.961 166.217 127.171 166.091C127.387 165.959 127.558 165.776 127.684 165.542C127.81 165.302 127.873 165.023 127.873 164.705C127.873 164.387 127.81 164.111 127.684 163.877C127.558 163.637 127.387 163.454 127.171 163.328C126.961 163.196 126.724 163.13 126.46 163.13C126.196 163.13 125.956 163.196 125.74 163.328C125.53 163.454 125.362 163.637 125.236 163.877C125.11 164.111 125.047 164.387 125.047 164.705C125.047 165.023 125.11 165.302 125.236 165.542C125.362 165.776 125.53 165.959 125.74 166.091C125.956 166.217 126.196 166.28 126.46 166.28ZM139.653 164.678C139.653 165.506 139.377 166.163 138.825 166.649C138.273 167.129 137.469 167.405 136.413 167.477V168.179H134.469V167.468C133.407 167.378 132.6 167.096 132.048 166.622C131.502 166.148 131.229 165.5 131.229 164.678C131.229 163.856 131.502 163.211 132.048 162.743C132.6 162.269 133.407 161.987 134.469 161.897V161.24H136.413V161.897C137.475 161.975 138.279 162.254 138.825 162.734C139.377 163.208 139.653 163.856 139.653 164.678ZM136.413 165.821C136.833 165.761 137.136 165.641 137.322 165.461C137.508 165.275 137.601 165.011 137.601 164.669C137.601 164.333 137.505 164.075 137.313 163.895C137.127 163.715 136.827 163.595 136.413 163.535V165.821ZM133.281 164.678C133.281 165.008 133.377 165.263 133.569 165.443C133.767 165.623 134.067 165.746 134.469 165.812V163.544C134.043 163.604 133.737 163.724 133.551 163.904C133.371 164.078 133.281 164.336 133.281 164.678ZM146.462 166.253V167.855H141.224V161.555H146.345V163.157H143.312V163.895H145.976V165.425H143.312V166.253H146.462Z" fill="#D4C09C"/>
</svg>
