<svg width="335" height="141" viewBox="0 0 335 141" fill="none" xmlns="http://www.w3.org/2000/svg">
<path d="M83.8268 93.8086L84.9948 92.8184C85.2572 92.5983 85.5661 92.319 85.9216 91.9805L87.0134 90.9268L89.8444 88.0957C91.0716 86.8685 91.7445 86.1618 91.863 85.9756V85.1631L91.9899 85.0615C92.6755 85.0954 93.251 85.1123 93.7165 85.1123L96.1032 85.0742L96.2302 85.1885V85.7725L96.1286 85.8867C95.3669 85.8952 94.7956 85.9417 94.4147 86.0264C94.0423 86.1025 93.6488 86.276 93.2341 86.5469C92.8193 86.8092 92.0999 87.4017 91.0759 88.3242L85.985 92.9326L93.8434 100.309C95.0114 101.4 95.6885 102.006 95.8747 102.124C96.0693 102.243 96.3867 102.306 96.8268 102.314L96.9157 102.416V102.949L96.8268 103.051C95.2949 103.017 94.3724 102.979 94.0593 102.937C93.7461 102.894 93.4287 102.793 93.1071 102.632C92.794 102.471 89.7005 99.6992 83.8268 94.3164V97.0205L83.8395 99.5088C83.848 100.457 83.8734 101.075 83.9157 101.362C83.958 101.642 84.0173 101.828 84.0934 101.921C84.1781 102.006 84.3304 102.082 84.5505 102.149C84.779 102.209 85.3503 102.255 86.2643 102.289L86.3532 102.365V103L86.2643 103.102C86.1458 103.102 85.3968 103.076 84.0173 103.025C83.4079 103.008 82.9382 103 82.6081 103C82.4727 103 81.2624 103.034 78.9772 103.102L78.8757 103V102.365L78.9772 102.289C80.1452 102.247 80.8223 102.158 81.0085 102.022C81.1947 101.887 81.3005 101.625 81.3259 101.235C81.3597 100.838 81.3851 99.4326 81.402 97.0205V91.1426L81.3766 88.6543C81.3766 87.6979 81.3555 87.0801 81.3132 86.8008C81.2708 86.5215 81.2074 86.3353 81.1227 86.2422C81.0466 86.1491 80.8942 86.0729 80.6657 86.0137C80.4457 85.9544 79.8828 85.9079 78.9772 85.874L78.8757 85.7852V85.1504L78.9772 85.0615C81.0677 85.1292 82.278 85.1631 82.6081 85.1631C82.972 85.1631 84.1908 85.1292 86.2643 85.0615L86.3532 85.1504V85.7852L86.2643 85.874C85.4349 85.8994 84.8932 85.9417 84.6393 86.001C84.3939 86.0518 84.2289 86.1195 84.1442 86.2041C84.0596 86.2887 83.9876 86.4622 83.9284 86.7246C83.8776 86.987 83.848 87.5625 83.8395 88.4512L83.8268 91.1426V93.8086ZM97.8988 102.467L98.0004 102.378C98.4405 102.344 98.7917 102.255 99.0541 102.111C99.3249 101.959 99.6973 101.595 100.171 101.02C100.645 100.444 101.365 99.5173 102.329 98.2393L104.957 94.7227C105.745 93.6647 106.185 93.0511 106.278 92.8818C106.379 92.7041 106.43 92.5687 106.43 92.4756C106.43 92.2809 106.337 92.1582 106.151 92.1074C105.965 92.0482 105.33 91.972 104.246 91.8789L104.158 91.7773V91.2441L104.246 91.1553C105.059 91.223 106.02 91.2568 107.128 91.2568C108.119 91.2568 109.02 91.223 109.832 91.1553L109.934 91.2441C109.875 92.6829 109.845 94.2064 109.845 95.8145V98.2773C109.845 100.266 109.909 101.413 110.036 101.718C110.171 102.022 110.73 102.243 111.711 102.378L111.813 102.467V103L111.711 103.102C110.535 103.034 109.557 103 108.779 103C108 103 107.023 103.034 105.846 103.102L105.757 103V102.467L105.846 102.378C106.362 102.302 106.739 102.217 106.976 102.124C107.221 102.031 107.386 101.925 107.471 101.807C107.556 101.68 107.607 101.527 107.623 101.35C107.64 101.172 107.662 100.719 107.687 99.9912C107.712 99.2549 107.725 98.6836 107.725 98.2773V92.501H107.535L104.589 96.6904L102.304 99.9658C101.72 100.812 101.407 101.299 101.365 101.426C101.322 101.544 101.301 101.642 101.301 101.718C101.301 101.912 101.399 102.056 101.593 102.149C101.796 102.234 102.245 102.31 102.939 102.378L103.04 102.467V103L102.939 103.102C101.932 103.034 101.107 103 100.463 103C99.8793 103 99.0583 103.034 98.0004 103.102L97.8988 103V102.467ZM116.3 94.3926L115.805 94.2656L115.703 94.1387C115.712 94.0033 115.716 93.8298 115.716 93.6182L115.703 92.5645C116.617 91.972 117.392 91.5446 118.026 91.2822C118.661 91.0199 119.351 90.8887 120.096 90.8887C121.408 90.8887 122.444 91.2314 123.206 91.917C123.968 92.6025 124.349 93.5335 124.349 94.71L124.285 97.2617V101.045C124.285 101.502 124.323 101.802 124.4 101.946C124.476 102.09 124.577 102.188 124.704 102.238C124.84 102.289 125.115 102.331 125.529 102.365L125.631 102.479V102.987L125.529 103.089C124.869 103.03 124.353 103 123.981 103C123.625 103 123.075 103.03 122.33 103.089L122.14 102.911L122.191 100.867L120.566 102.137C119.998 102.585 119.618 102.882 119.423 103.025C118.957 103.22 118.45 103.317 117.9 103.317C116.892 103.317 116.097 103.051 115.513 102.518C114.937 101.976 114.65 101.244 114.65 100.321C114.65 99.3649 114.899 98.5863 115.399 97.9854C115.898 97.376 116.651 96.902 117.658 96.5635C118.674 96.2165 120.185 95.9033 122.191 95.624C122.191 95.0993 122.152 94.6507 122.076 94.2783C122.009 93.9059 121.835 93.5547 121.556 93.2246C121.285 92.8861 120.938 92.6322 120.515 92.4629C120.1 92.2936 119.63 92.209 119.106 92.209C118.826 92.209 118.555 92.2344 118.293 92.2852C118.031 92.3275 117.785 92.3994 117.557 92.501C117.328 92.6025 117.189 92.6745 117.138 92.7168C117.087 92.7591 117.04 92.8353 116.998 92.9453C116.973 92.9961 116.88 93.1992 116.719 93.5547C116.592 93.8255 116.486 94.0837 116.401 94.3291L116.3 94.3926ZM122.191 96.3604C120.235 96.6735 118.86 97.0628 118.065 97.5283C117.277 97.9854 116.884 98.7259 116.884 99.75C116.884 100.41 117.057 100.914 117.404 101.261C117.76 101.608 118.242 101.781 118.852 101.781C119.977 101.781 121.09 101.13 122.191 99.8262V96.3604ZM138.408 101.642L137.9 102.492C136.808 103.093 135.59 103.394 134.244 103.394C132.382 103.394 130.943 102.839 129.928 101.73C128.912 100.622 128.404 99.1914 128.404 97.4395C128.404 96.6439 128.489 95.9372 128.658 95.3193C128.836 94.693 129.056 94.1768 129.318 93.7705C129.589 93.3643 129.885 93.0426 130.207 92.8057C130.528 92.5687 131.07 92.2386 131.832 91.8154C132.602 91.3923 133.182 91.1172 133.571 90.9902C133.96 90.8548 134.498 90.7871 135.183 90.7871C136.495 90.7871 137.57 91.0368 138.408 91.5361C138.247 92.4925 138.125 93.5589 138.04 94.7354L137.926 94.8369H137.405L137.291 94.7227C137.257 94.0117 137.21 93.5335 137.151 93.2881C137.092 93.0426 136.753 92.7803 136.136 92.501C135.526 92.2217 134.875 92.082 134.181 92.082C133.487 92.082 132.869 92.2301 132.327 92.5264C131.785 92.8141 131.375 93.2923 131.096 93.9609C130.825 94.6211 130.689 95.4124 130.689 96.335C130.689 97.1136 130.799 97.8753 131.019 98.6201C131.239 99.3564 131.527 99.9701 131.883 100.461C132.247 100.943 132.725 101.333 133.317 101.629C133.91 101.925 134.57 102.073 135.298 102.073C135.755 102.073 136.199 102.014 136.631 101.896C137.071 101.777 137.574 101.582 138.141 101.312L138.408 101.642ZM150.741 101.642L150.233 102.492C149.141 103.093 147.922 103.394 146.577 103.394C144.715 103.394 143.276 102.839 142.26 101.73C141.245 100.622 140.737 99.1914 140.737 97.4395C140.737 96.6439 140.822 95.9372 140.991 95.3193C141.169 94.693 141.389 94.1768 141.651 93.7705C141.922 93.3643 142.218 93.0426 142.54 92.8057C142.861 92.5687 143.403 92.2386 144.165 91.8154C144.935 91.3923 145.515 91.1172 145.904 90.9902C146.293 90.8548 146.831 90.7871 147.516 90.7871C148.828 90.7871 149.903 91.0368 150.741 91.5361C150.58 92.4925 150.457 93.5589 150.373 94.7354L150.258 94.8369H149.738L149.624 94.7227C149.59 94.0117 149.543 93.5335 149.484 93.2881C149.425 93.0426 149.086 92.7803 148.468 92.501C147.859 92.2217 147.207 92.082 146.513 92.082C145.819 92.082 145.201 92.2301 144.66 92.5264C144.118 92.8141 143.708 93.2923 143.428 93.9609C143.157 94.6211 143.022 95.4124 143.022 96.335C143.022 97.1136 143.132 97.8753 143.352 98.6201C143.572 99.3564 143.86 99.9701 144.215 100.461C144.579 100.943 145.058 101.333 145.65 101.629C146.242 101.925 146.903 102.073 147.63 102.073C148.087 102.073 148.532 102.014 148.963 101.896C149.404 101.777 149.907 101.582 150.474 101.312L150.741 101.642ZM153.057 103V102.467L153.158 102.378C153.666 102.302 154.043 102.217 154.288 102.124C154.534 102.031 154.695 101.925 154.771 101.807C154.855 101.68 154.906 101.527 154.923 101.35C154.949 101.172 154.97 100.715 154.987 99.9785C155.012 99.2337 155.025 98.6667 155.025 98.2773V95.9795C155.025 93.9821 154.957 92.8311 154.822 92.5264C154.695 92.2217 154.14 92.0059 153.158 91.8789L153.057 91.7773V91.2441L153.158 91.1553C154.335 91.223 155.312 91.2568 156.091 91.2568C156.844 91.2568 157.822 91.223 159.024 91.1553L159.113 91.2441V91.7773L159.024 91.8789C158.482 91.9551 158.101 92.0397 157.881 92.1328C157.67 92.2174 157.521 92.3105 157.437 92.4121C157.352 92.5052 157.297 92.6237 157.272 92.7676C157.246 92.9115 157.217 93.3727 157.183 94.1514C157.158 94.9215 157.145 95.5309 157.145 95.9795V101.223L157.348 101.299C158.152 100.097 159.189 98.417 160.458 96.2588C161.728 94.0921 162.697 92.391 163.366 91.1553C164.161 91.223 164.825 91.2568 165.359 91.2568C165.909 91.2568 166.586 91.223 167.39 91.1553L167.491 91.2441V91.7773L167.39 91.8789C166.4 92.0059 165.841 92.2301 165.714 92.5518C165.587 92.8649 165.524 94.0075 165.524 95.9795V98.2773C165.524 100.266 165.587 101.413 165.714 101.718C165.85 102.022 166.408 102.243 167.39 102.378L167.491 102.467V103L167.39 103.102C166.213 103.034 165.236 103 164.457 103C163.704 103 162.727 103.034 161.525 103.102L161.423 103V102.467L161.525 102.378C162.515 102.243 163.074 102.018 163.2 101.705C163.336 101.392 163.404 100.249 163.404 98.2773V93.1104L163.2 93.0342C162.583 93.9482 161.592 95.5817 160.23 97.9346C158.876 100.287 157.923 102.01 157.373 103.102C156.578 103.034 155.926 103 155.418 103C154.868 103 154.115 103.034 153.158 103.102L153.057 103ZM178.098 97.2236V95.9795C178.098 93.9821 178.03 92.8311 177.895 92.5264C177.768 92.2217 177.213 92.0059 176.231 91.8789L176.13 91.7773V91.2441L176.231 91.1553C177.408 91.223 178.385 91.2568 179.164 91.2568C179.943 91.2568 180.92 91.223 182.097 91.1553L182.186 91.2441V91.7773L182.097 91.8789C181.58 91.9466 181.2 92.027 180.954 92.1201C180.717 92.2132 180.556 92.3232 180.472 92.4502C180.387 92.5687 180.336 92.7168 180.319 92.8945C180.302 93.0723 180.281 93.5335 180.256 94.2783C180.23 95.0146 180.218 95.5817 180.218 95.9795V98.2773C180.218 100.266 180.285 101.413 180.421 101.718C180.556 102.022 181.115 102.243 182.097 102.378L182.186 102.467V103L182.097 103.102C180.92 103.034 179.943 103 179.164 103C178.377 103 177.399 103.034 176.231 103.102L176.13 103V102.467L176.231 102.378C176.731 102.293 177.09 102.204 177.311 102.111C177.531 102.018 177.687 101.917 177.78 101.807C177.873 101.697 177.937 101.561 177.971 101.4C178.005 101.231 178.034 100.702 178.06 99.8135C178.085 98.9248 178.098 98.3324 178.098 98.0361C177.217 98.4932 176.257 98.7217 175.216 98.7217C174.547 98.7217 173.862 98.6286 173.159 98.4424C172.465 98.2562 171.928 98.0107 171.547 97.7061C171.174 97.3929 170.921 97.0459 170.785 96.665C170.658 96.2842 170.595 95.734 170.595 95.0146C170.595 94.6676 170.603 94.2783 170.62 93.8467C170.646 93.1357 170.658 92.7549 170.658 92.7041C170.658 92.4079 170.586 92.2132 170.442 92.1201C170.299 92.027 169.939 91.9466 169.363 91.8789L169.262 91.7773V91.2441L169.363 91.1553C170.303 91.223 171.115 91.2568 171.801 91.2568C172.706 91.2568 173.544 91.223 174.314 91.1553L174.416 91.2441V91.7773L174.314 91.8789C173.663 91.9551 173.252 92.1582 173.083 92.4883C172.914 92.8099 172.829 93.4997 172.829 94.5576C172.829 95.8695 173.087 96.7624 173.604 97.2363C174.128 97.7103 174.784 97.9473 175.571 97.9473C176.316 97.9473 177.158 97.7061 178.098 97.2236ZM195.204 101.134L194.798 102.048C193.917 102.615 193.13 102.983 192.436 103.152C191.751 103.322 191.137 103.406 190.595 103.406C189.58 103.406 188.615 103.207 187.701 102.81C186.795 102.412 186.055 101.739 185.479 100.791C184.912 99.8431 184.629 98.7005 184.629 97.3633C184.629 96.4746 184.739 95.6748 184.959 94.9639C185.179 94.2445 185.407 93.7113 185.644 93.3643C185.89 93.0173 186.3 92.6322 186.876 92.209C187.451 91.7858 188.061 91.4473 188.704 91.1934C189.347 90.9395 190.041 90.8125 190.786 90.8125C191.801 90.8125 192.694 91.0537 193.465 91.5361C194.243 92.0101 194.789 92.6195 195.102 93.3643C195.415 94.109 195.572 94.9004 195.572 95.7383C195.572 96.0007 195.559 96.2546 195.534 96.5L195.394 96.6396C194.819 96.7666 194.044 96.8512 193.071 96.8936C192.098 96.9359 191.454 96.957 191.141 96.957H187.066C187.083 98.709 187.523 99.9997 188.386 100.829C189.25 101.659 190.308 102.073 191.56 102.073C192.153 102.073 192.72 101.972 193.261 101.769C193.812 101.565 194.391 101.282 195.001 100.918L195.204 101.134ZM187.066 95.9414C187.218 95.9668 187.802 95.9964 188.818 96.0303C189.842 96.0641 190.6 96.0811 191.091 96.0811C192.267 96.0811 192.982 96.0599 193.236 96.0176C193.245 95.8145 193.249 95.6579 193.249 95.5479C193.249 94.236 192.982 93.2627 192.449 92.6279C191.916 91.9847 191.188 91.6631 190.265 91.6631C189.258 91.6631 188.471 92.0228 187.904 92.7422C187.345 93.4616 187.066 94.528 187.066 95.9414ZM208.247 101.642L207.74 102.492C206.648 103.093 205.429 103.394 204.083 103.394C202.221 103.394 200.783 102.839 199.767 101.73C198.751 100.622 198.244 99.1914 198.244 97.4395C198.244 96.6439 198.328 95.9372 198.497 95.3193C198.675 94.693 198.895 94.1768 199.158 93.7705C199.428 93.3643 199.725 93.0426 200.046 92.8057C200.368 92.5687 200.91 92.2386 201.671 91.8154C202.442 91.3923 203.021 91.1172 203.411 90.9902C203.8 90.8548 204.337 90.7871 205.023 90.7871C206.335 90.7871 207.41 91.0368 208.247 91.5361C208.087 92.4925 207.964 93.5589 207.879 94.7354L207.765 94.8369H207.245L207.13 94.7227C207.096 94.0117 207.05 93.5335 206.991 93.2881C206.931 93.0426 206.593 92.7803 205.975 92.501C205.366 92.2217 204.714 92.082 204.02 92.082C203.326 92.082 202.708 92.2301 202.166 92.5264C201.625 92.8141 201.214 93.2923 200.935 93.9609C200.664 94.6211 200.529 95.4124 200.529 96.335C200.529 97.1136 200.639 97.8753 200.859 98.6201C201.079 99.3564 201.367 99.9701 201.722 100.461C202.086 100.943 202.564 101.333 203.157 101.629C203.749 101.925 204.409 102.073 205.137 102.073C205.594 102.073 206.039 102.014 206.47 101.896C206.91 101.777 207.414 101.582 207.981 101.312L208.247 101.642ZM210.564 103V102.467L210.665 102.378C211.3 102.319 211.685 102.264 211.82 102.213C211.956 102.154 212.066 102.044 212.151 101.883C212.244 101.722 212.299 101.333 212.316 100.715C212.333 100.097 212.341 99.2591 212.341 98.2012V96.043C212.341 95.3828 212.333 94.6465 212.316 93.834C212.299 93.013 212.244 92.5221 212.151 92.3613C212.057 92.2005 211.939 92.0947 211.795 92.0439C211.66 91.9847 211.283 91.9297 210.665 91.8789L210.564 91.7773V91.2441L210.665 91.1553C211.503 91.223 212.413 91.2568 213.395 91.2568C214.419 91.2568 215.333 91.223 216.137 91.1553L216.238 91.2441V91.7773L216.137 91.8789C215.502 91.9382 215.113 91.9974 214.969 92.0566C214.833 92.1074 214.723 92.2132 214.639 92.374C214.563 92.5348 214.512 92.9242 214.486 93.542C214.47 94.1598 214.461 94.9935 214.461 96.043V96.8809H214.563C215.654 95.9329 216.695 94.9596 217.686 93.9609C218.676 92.9538 219.218 92.391 219.311 92.2725C219.412 92.154 219.463 92.0482 219.463 91.9551C219.463 91.8535 219.387 91.7816 219.235 91.7393V91.2441L219.336 91.1426C220.064 91.2103 220.551 91.2441 220.796 91.2441C221.211 91.2441 221.697 91.2103 222.256 91.1426L222.345 91.2441V91.7773L222.256 91.8662C221.706 91.917 221.232 92.0609 220.834 92.2979C220.436 92.5264 218.985 93.779 216.48 96.0557L221.672 101.515C222.044 101.912 222.294 102.158 222.421 102.251C222.556 102.336 222.751 102.382 223.005 102.391L223.069 102.454V103L223.005 103.076C221.685 103.034 220.885 102.975 220.606 102.898C220.326 102.822 220.013 102.64 219.666 102.353C219.328 102.056 218.756 101.477 217.952 100.613C216.319 98.8783 215.189 97.7441 214.563 97.2109H214.461V98.2012C214.461 98.8952 214.47 99.6442 214.486 100.448C214.503 101.252 214.554 101.735 214.639 101.896C214.732 102.056 214.85 102.162 214.994 102.213C215.138 102.264 215.519 102.319 216.137 102.378L216.238 102.467V103L216.137 103.102C215.299 103.034 214.385 103 213.395 103C212.379 103 211.469 103.034 210.665 103.102L210.564 103ZM224.978 103V102.467L225.08 102.378C225.588 102.302 225.964 102.217 226.21 102.124C226.455 102.031 226.616 101.925 226.692 101.807C226.777 101.68 226.828 101.527 226.845 101.35C226.87 101.172 226.891 100.715 226.908 99.9785C226.933 99.2337 226.946 98.6667 226.946 98.2773V95.9795C226.946 93.9821 226.878 92.8311 226.743 92.5264C226.616 92.2217 226.062 92.0059 225.08 91.8789L224.978 91.7773V91.2441L225.08 91.1553C226.256 91.223 227.234 91.2568 228.013 91.2568C228.766 91.2568 229.743 91.223 230.945 91.1553L231.034 91.2441V91.7773L230.945 91.8789C230.404 91.9551 230.023 92.0397 229.803 92.1328C229.591 92.2174 229.443 92.3105 229.358 92.4121C229.274 92.5052 229.219 92.6237 229.193 92.7676C229.168 92.9115 229.138 93.3727 229.104 94.1514C229.079 94.9215 229.066 95.5309 229.066 95.9795V101.223L229.269 101.299C230.073 100.097 231.11 98.417 232.38 96.2588C233.649 94.0921 234.618 92.391 235.287 91.1553C236.083 91.223 236.747 91.2568 237.28 91.2568C237.83 91.2568 238.507 91.223 239.311 91.1553L239.413 91.2441V91.7773L239.311 91.8789C238.321 92.0059 237.763 92.2301 237.636 92.5518C237.509 92.8649 237.445 94.0075 237.445 95.9795V98.2773C237.445 100.266 237.509 101.413 237.636 101.718C237.771 102.022 238.33 102.243 239.311 102.378L239.413 102.467V103L239.311 103.102C238.135 103.034 237.157 103 236.379 103C235.626 103 234.648 103.034 233.446 103.102L233.345 103V102.467L233.446 102.378C234.436 102.243 234.995 102.018 235.122 101.705C235.257 101.392 235.325 100.249 235.325 98.2773V93.1104L235.122 93.0342C234.504 93.9482 233.514 95.5817 232.151 97.9346C230.797 100.287 229.845 102.01 229.295 103.102C228.499 103.034 227.848 103 227.34 103C226.79 103 226.036 103.034 225.08 103.102L224.978 103ZM242.186 103V102.467L242.288 102.378C242.796 102.302 243.172 102.217 243.418 102.124C243.663 102.031 243.824 101.925 243.9 101.807C243.985 101.68 244.035 101.527 244.052 101.35C244.078 101.172 244.099 100.715 244.116 99.9785C244.141 99.2337 244.154 98.6667 244.154 98.2773V95.9795C244.154 93.9821 244.086 92.8311 243.951 92.5264C243.824 92.2217 243.269 92.0059 242.288 91.8789L242.186 91.7773V91.2441L242.288 91.1553C243.464 91.223 244.442 91.2568 245.22 91.2568C245.974 91.2568 246.951 91.223 248.153 91.1553L248.242 91.2441V91.7773L248.153 91.8789C247.611 91.9551 247.23 92.0397 247.01 92.1328C246.799 92.2174 246.651 92.3105 246.566 92.4121C246.481 92.5052 246.426 92.6237 246.401 92.7676C246.376 92.9115 246.346 93.3727 246.312 94.1514C246.287 94.9215 246.274 95.5309 246.274 95.9795V101.223L246.477 101.299C247.281 100.097 248.318 98.417 249.587 96.2588C250.857 94.0921 251.826 92.391 252.495 91.1553C253.29 91.223 253.955 91.2568 254.488 91.2568C255.038 91.2568 255.715 91.223 256.519 91.1553L256.621 91.2441V91.7773L256.519 91.8789C255.529 92.0059 254.97 92.2301 254.843 92.5518C254.716 92.8649 254.653 94.0075 254.653 95.9795V98.2773C254.653 100.266 254.716 101.413 254.843 101.718C254.979 102.022 255.537 102.243 256.519 102.378L256.621 102.467V103L256.519 103.102C255.343 103.034 254.365 103 253.587 103C252.833 103 251.856 103.034 250.654 103.102L250.552 103V102.467L250.654 102.378C251.644 102.243 252.203 102.018 252.33 101.705C252.465 101.392 252.533 100.249 252.533 98.2773V93.1104L252.33 93.0342C251.712 93.9482 250.722 95.5817 249.359 97.9346C248.005 100.287 247.053 102.01 246.503 103.102C245.707 103.034 245.055 103 244.547 103C243.997 103 243.244 103.034 242.288 103.102L242.186 103ZM245.855 86.8516L247.099 85.8867L247.417 86.0518C247.747 87.5329 248.576 88.2734 249.905 88.2734C250.582 88.2734 251.132 88.0788 251.555 87.6895C251.987 87.2917 252.203 86.7119 252.203 85.9502L252.533 85.8486L253.079 87.207C252.038 88.4258 250.823 89.0352 249.435 89.0352C248.665 89.0352 247.984 88.849 247.391 88.4766C246.799 88.0957 246.287 87.554 245.855 86.8516ZM137.902 130V129.467L138.004 129.378C138.639 129.319 139.024 129.264 139.159 129.213C139.295 129.154 139.405 129.044 139.489 128.883C139.582 128.722 139.637 128.333 139.654 127.715C139.671 127.097 139.68 126.259 139.68 125.201V123.043C139.68 122.383 139.671 121.646 139.654 120.834C139.637 120.013 139.582 119.522 139.489 119.361C139.396 119.201 139.278 119.095 139.134 119.044C138.998 118.985 138.622 118.93 138.004 118.879L137.902 118.777V118.244L138.004 118.155C138.842 118.223 139.752 118.257 140.733 118.257C141.757 118.257 142.671 118.223 143.476 118.155L143.577 118.244V118.777L143.476 118.879C142.841 118.938 142.451 118.997 142.308 119.057C142.172 119.107 142.062 119.213 141.977 119.374C141.901 119.535 141.851 119.924 141.825 120.542C141.808 121.16 141.8 121.993 141.8 123.043V123.881H141.901C142.993 122.933 144.034 121.96 145.024 120.961C146.015 119.954 146.556 119.391 146.649 119.272C146.751 119.154 146.802 119.048 146.802 118.955C146.802 118.854 146.726 118.782 146.573 118.739V118.244L146.675 118.143C147.403 118.21 147.889 118.244 148.135 118.244C148.549 118.244 149.036 118.21 149.595 118.143L149.684 118.244V118.777L149.595 118.866C149.045 118.917 148.571 119.061 148.173 119.298C147.775 119.526 146.323 120.779 143.818 123.056L149.011 128.515C149.383 128.912 149.633 129.158 149.76 129.251C149.895 129.336 150.09 129.382 150.344 129.391L150.407 129.454V130L150.344 130.076C149.023 130.034 148.224 129.975 147.944 129.898C147.665 129.822 147.352 129.64 147.005 129.353C146.666 129.056 146.095 128.477 145.291 127.613C143.657 125.878 142.528 124.744 141.901 124.211H141.8V125.201C141.8 125.895 141.808 126.644 141.825 127.448C141.842 128.252 141.893 128.735 141.977 128.896C142.071 129.056 142.189 129.162 142.333 129.213C142.477 129.264 142.858 129.319 143.476 129.378L143.577 129.467V130L143.476 130.102C142.638 130.034 141.724 130 140.733 130C139.718 130 138.808 130.034 138.004 130.102L137.902 130ZM165 123.602C165 124.668 164.826 125.629 164.479 126.483C164.141 127.338 163.645 128.075 162.994 128.692C162.351 129.302 161.682 129.733 160.988 129.987C160.302 130.233 159.494 130.355 158.563 130.355C156.481 130.355 154.894 129.759 153.802 128.565C152.719 127.372 152.177 125.882 152.177 124.097C152.177 122.869 152.44 121.778 152.964 120.821C153.489 119.865 154.247 119.133 155.237 118.625C156.236 118.117 157.404 117.863 158.741 117.863C160.044 117.863 161.157 118.109 162.08 118.6C163.002 119.082 163.717 119.768 164.225 120.656C164.742 121.536 165 122.518 165 123.602ZM162.549 124.351C162.549 122.658 162.198 121.299 161.496 120.275C160.802 119.251 159.782 118.739 158.436 118.739C157.311 118.739 156.392 119.137 155.681 119.933C154.97 120.72 154.615 121.913 154.615 123.513C154.615 125.155 154.97 126.572 155.681 127.766C156.401 128.951 157.433 129.543 158.779 129.543C159.955 129.543 160.878 129.073 161.547 128.134C162.215 127.186 162.549 125.925 162.549 124.351ZM173.143 112.772V112.239L173.244 112.15C174.844 111.896 176.291 111.575 177.586 111.186L177.751 111.351C177.717 112.045 177.692 112.938 177.675 114.029L177.612 117.647C180.218 117.732 182.199 118.346 183.553 119.488C184.916 120.622 185.597 122.112 185.597 123.957C185.597 125.929 184.869 127.503 183.413 128.68C181.958 129.848 180.024 130.449 177.612 130.482V132.476C177.612 134.481 177.679 135.632 177.815 135.929C177.95 136.225 178.509 136.441 179.491 136.576L179.579 136.678V137.211L179.491 137.3C178.356 137.232 177.379 137.198 176.558 137.198C175.72 137.198 174.743 137.232 173.625 137.3L173.524 137.211V136.678L173.625 136.576C174.142 136.5 174.518 136.415 174.755 136.322C175.001 136.238 175.161 136.132 175.238 136.005C175.322 135.886 175.373 135.738 175.39 135.561C175.415 135.383 175.437 134.926 175.453 134.189C175.479 133.453 175.492 132.882 175.492 132.476V130.482C173.079 130.449 171.146 129.848 169.69 128.68C168.234 127.503 167.506 125.929 167.506 123.957C167.506 122.112 168.188 120.622 169.55 119.488C170.913 118.346 172.893 117.732 175.492 117.647C175.458 115.422 175.424 114.156 175.39 113.852C175.356 113.538 175.225 113.306 174.996 113.153C174.776 113.001 174.192 112.908 173.244 112.874L173.143 112.772ZM175.492 118.308C173.706 118.316 172.352 118.794 171.429 119.742C170.507 120.682 170.045 122.061 170.045 123.881C170.045 125.709 170.502 127.156 171.416 128.223C172.33 129.289 173.689 129.843 175.492 129.886V118.308ZM177.612 118.308V129.886C179.406 129.852 180.76 129.306 181.674 128.248C182.597 127.182 183.058 125.726 183.058 123.881C183.058 122.061 182.592 120.677 181.661 119.729C180.739 118.782 179.389 118.308 177.612 118.308ZM198.476 128.134L198.069 129.048C197.189 129.615 196.402 129.983 195.708 130.152C195.023 130.322 194.409 130.406 193.867 130.406C192.852 130.406 191.887 130.207 190.973 129.81C190.067 129.412 189.327 128.739 188.751 127.791C188.184 126.843 187.9 125.701 187.9 124.363C187.9 123.475 188.01 122.675 188.231 121.964C188.451 121.244 188.679 120.711 188.916 120.364C189.162 120.017 189.572 119.632 190.148 119.209C190.723 118.786 191.332 118.447 191.976 118.193C192.619 117.939 193.313 117.812 194.058 117.812C195.073 117.812 195.966 118.054 196.736 118.536C197.515 119.01 198.061 119.619 198.374 120.364C198.687 121.109 198.844 121.9 198.844 122.738C198.844 123.001 198.831 123.255 198.806 123.5L198.666 123.64C198.091 123.767 197.316 123.851 196.343 123.894C195.37 123.936 194.726 123.957 194.413 123.957H190.338C190.355 125.709 190.795 127 191.658 127.829C192.522 128.659 193.58 129.073 194.832 129.073C195.425 129.073 195.992 128.972 196.533 128.769C197.083 128.565 197.663 128.282 198.273 127.918L198.476 128.134ZM190.338 122.941C190.49 122.967 191.074 122.996 192.09 123.03C193.114 123.064 193.871 123.081 194.362 123.081C195.539 123.081 196.254 123.06 196.508 123.018C196.516 122.814 196.521 122.658 196.521 122.548C196.521 121.236 196.254 120.263 195.721 119.628C195.188 118.985 194.46 118.663 193.537 118.663C192.53 118.663 191.743 119.023 191.176 119.742C190.617 120.462 190.338 121.528 190.338 122.941Z" fill="black"/>
<rect x="268.81" y="78" width="33" height="22" rx="10" fill="#FFCC99"/>
<path d="M279.56 101.75H290.56C294.206 101.75 297.704 100.301 300.282 97.7227C302.861 95.1441 304.31 91.6467 304.31 88V85.25H307.06C309.248 85.25 311.346 84.3808 312.893 82.8336C314.44 81.2865 315.31 79.188 315.31 77C315.31 74.812 314.44 72.7135 312.893 71.1664C311.346 69.6192 309.248 68.75 307.06 68.75H304.31V66C304.31 65.2707 304.02 64.5712 303.504 64.0555C302.988 63.5397 302.289 63.25 301.56 63.25H268.56C267.83 63.25 267.131 63.5397 266.615 64.0555C266.099 64.5712 265.81 65.2707 265.81 66V88C265.81 91.6467 267.258 95.1441 269.837 97.7227C272.415 100.301 275.913 101.75 279.56 101.75ZM304.31 74.25H307.06C307.789 74.25 308.488 74.5397 309.004 75.0555C309.52 75.5712 309.81 76.2707 309.81 77C309.81 77.7293 309.52 78.4288 309.004 78.9445C308.488 79.4603 307.789 79.75 307.06 79.75H304.31V74.25ZM271.31 68.75H298.81V88C298.81 90.188 297.94 92.2865 296.393 93.8336C294.846 95.3808 292.748 96.25 290.56 96.25H279.56C277.372 96.25 275.273 95.3808 273.726 93.8336C272.179 92.2865 271.31 90.188 271.31 88V68.75ZM312.56 107.25H263.06C262.33 107.25 261.631 107.54 261.115 108.055C260.599 108.571 260.31 109.271 260.31 110C260.31 110.729 260.599 111.429 261.115 111.945C261.631 112.46 262.33 112.75 263.06 112.75H312.56C313.289 112.75 313.988 112.46 314.504 111.945C315.02 111.429 315.31 110.729 315.31 110C315.31 109.271 315.02 108.571 314.504 108.055C313.988 107.54 313.289 107.25 312.56 107.25Z" fill="#330000"/>
<path d="M280.03 86.36C280.803 86.5867 281.45 86.6533 281.97 86.56C282.503 86.4533 282.976 86.08 283.39 85.44L284.07 84.42L284.37 84.08L289.01 75H292.19L286.23 86.08C285.696 87.08 285.063 87.8467 284.33 88.38C283.61 88.9133 282.816 89.2133 281.95 89.28C281.083 89.36 280.183 89.2067 279.25 88.82L280.03 86.36ZM284.31 86.78L277.99 75H281.45L286.09 84.4L284.31 86.78Z" fill="#330000"/>
<rect width="33" height="22" rx="10" transform="matrix(-1 0 0 1 66.8096 78)" fill="#FFCC99"/>
<path d="M56.0596 101.75H45.0596C41.4128 101.75 37.9155 100.301 35.3368 97.7227C32.7582 95.1441 31.3096 91.6467 31.3096 88V85.25H28.5596C26.3715 85.25 24.2731 84.3808 22.7259 82.8336C21.1788 81.2865 20.3096 79.188 20.3096 77C20.3096 74.812 21.1788 72.7135 22.7259 71.1664C24.2731 69.6192 26.3715 68.75 28.5596 68.75H31.3096V66C31.3096 65.2707 31.5993 64.5712 32.115 64.0555C32.6307 63.5397 33.3302 63.25 34.0596 63.25H67.0596C67.7889 63.25 68.4884 63.5397 69.0041 64.0555C69.5198 64.5712 69.8096 65.2707 69.8096 66V88C69.8096 91.6467 68.3609 95.1441 65.7823 97.7227C63.2037 100.301 59.7063 101.75 56.0596 101.75ZM31.3096 74.25H28.5596C27.8302 74.25 27.1307 74.5397 26.615 75.0555C26.0993 75.5712 25.8096 76.2707 25.8096 77C25.8096 77.7293 26.0993 78.4288 26.615 78.9445C27.1307 79.4603 27.8302 79.75 28.5596 79.75H31.3096V74.25ZM64.3096 68.75H36.8096V88C36.8096 90.188 37.6788 92.2865 39.2259 93.8336C40.7731 95.3808 42.8715 96.25 45.0596 96.25H56.0596C58.2476 96.25 60.346 95.3808 61.8932 93.8336C63.4404 92.2865 64.3096 90.188 64.3096 88V68.75ZM23.0596 107.25H72.5596C73.2889 107.25 73.9884 107.54 74.5041 108.055C75.0198 108.571 75.3096 109.271 75.3096 110C75.3096 110.729 75.0198 111.429 74.5041 111.945C73.9884 112.46 73.2889 112.75 72.5596 112.75H23.0596C22.3302 112.75 21.6307 112.46 21.115 111.945C20.5993 111.429 20.3096 110.729 20.3096 110C20.3096 109.271 20.5993 108.571 21.115 108.055C21.6307 107.54 22.3302 107.25 23.0596 107.25Z" fill="#330000"/>
<path d="M46.0296 86.36C46.8029 86.5867 47.4496 86.6533 47.9696 86.56C48.5029 86.4533 48.9762 86.08 49.3896 85.44L50.0696 84.42L50.3696 84.08L55.0096 75H58.1896L52.2296 86.08C51.6962 87.08 51.0629 87.8467 50.3296 88.38C49.6096 88.9133 48.8162 89.2133 47.9496 89.28C47.0829 89.36 46.1829 89.2067 45.2496 88.82L46.0296 86.36ZM50.3096 86.78L43.9896 75H47.4496L52.0896 84.4L50.3096 86.78Z" fill="#330000"/>
<path d="M41.8096 110H285.81" stroke="#330000" stroke-width="5"/>
<line x1="5.33447" y1="112.472" x2="5.33447" y2="55.1028" stroke="#330000" stroke-width="10"/>
<path d="M2.30957 59.5L168.931 5.36616" stroke="#330000" stroke-width="10"/>
<line y1="-5" x2="57.3696" y2="-5" transform="matrix(0 -1 -1 0 324.716 112.106)" stroke="#330000" stroke-width="10"/>
<path d="M332.741 59.1339L166.119 5.00001" stroke="#330000" stroke-width="10"/>
</svg>
