<svg width="512" height="512" viewBox="0 0 512 512" fill="none" xmlns="http://www.w3.org/2000/svg">
<g clip-path="url(#clip0_64_6)">
<path d="M484.571 109.714C492.19 109.714 498.667 112.381 504 117.714C509.333 123.048 512 129.524 512 137.143V484.571C512 492.19 509.333 498.667 504 504C498.667 509.333 492.19 512 484.571 512H210.286C202.667 512 196.19 509.333 190.857 504C185.524 498.667 182.857 492.19 182.857 484.571V402.286H27.4286C19.8095 402.286 13.3333 399.619 8 394.286C2.66667 388.952 0 382.476 0 374.857V182.857C0 175.238 1.90476 166.857 5.71429 157.714C9.52381 148.571 14.0952 141.333 19.4286 136L136 19.4286C141.333 14.0952 148.571 9.52381 157.714 5.71429C166.857 1.90476 175.238 0 182.857 0H301.714C309.333 0 315.81 2.66667 321.143 8C326.476 13.3333 329.143 19.8095 329.143 27.4286V121.143C342.095 113.524 354.286 109.714 365.714 109.714H484.571ZM329.143 170.571L243.714 256H329.143V170.571ZM146.286 60.8571L60.8571 146.286H146.286V60.8571ZM202.286 245.714L292.571 155.429V36.5714H182.857V155.429C182.857 163.048 180.19 169.524 174.857 174.857C169.524 180.19 163.048 182.857 155.429 182.857H36.5714V365.714H182.857V292.571C182.857 284.952 184.762 276.571 188.571 267.429C192.381 258.286 196.952 251.048 202.286 245.714ZM475.429 475.429V146.286H365.714V265.143C365.714 272.762 363.048 279.238 357.714 284.571C352.381 289.905 345.905 292.571 338.286 292.571H219.429V475.429H475.429Z" fill="black"/>
</g>
<defs>
<clipPath id="clip0_64_6">
<rect width="512" height="512" fill="white"/>
</clipPath>
</defs>
</svg>
