<svg width="335" height="141" viewBox="0 0 335 141" fill="none" xmlns="http://www.w3.org/2000/svg">
<path d="M94.6461 100.927V100.224L94.7633 100.106C95.4176 100.097 95.857 100.038 96.0816 99.9307C96.3063 99.8135 96.5943 99.5352 96.9459 99.0957C97.2975 98.6465 97.9859 97.709 99.0113 96.2832L103.01 90.7314L100.418 86.3223C100.222 85.9902 99.7926 85.3506 99.1285 84.4033C98.4742 83.4463 97.9566 82.7822 97.5758 82.4111C97.2047 82.04 96.9264 81.8252 96.7408 81.7666C96.5553 81.708 96.0426 81.6787 95.2027 81.6787L95.0709 81.5469V80.9316L95.2027 80.7998L99.3482 80.1113C99.7096 80.3457 100.095 80.7363 100.505 81.2832C100.925 81.8203 101.531 82.7725 102.322 84.1396L104.783 88.417L110.379 80.2432C111.209 80.2725 111.712 80.2871 111.887 80.2871C111.965 80.2871 112.42 80.2725 113.25 80.2432L113.367 80.375V81.0342L113.25 81.1514C112.634 81.1807 112.224 81.2393 112.019 81.3271C111.824 81.4053 111.565 81.6104 111.243 81.9424C110.93 82.2744 110.286 83.0996 109.309 84.418L106.585 88.1094L105.486 89.5742L110.452 97.6016C110.921 98.3633 111.296 98.9346 111.58 99.3154C111.873 99.6865 112.107 99.9111 112.283 99.9893C112.459 100.058 112.859 100.097 113.484 100.106L113.601 100.224V100.941L113.484 101.059C112.556 101.02 111.902 101 111.521 101C111.023 101 110.271 101.02 109.265 101.059C108.679 100.189 108.137 99.3252 107.639 98.4658L103.787 91.8887L102.717 93.3682C101.311 95.3018 99.6559 97.8652 97.7516 101.059C97.1168 101.02 96.6188 101 96.2574 101C95.8863 101 95.3932 101.02 94.7779 101.059L94.6461 100.927ZM130.893 93.6172C130.893 94.8477 130.693 95.9561 130.292 96.9424C129.902 97.9287 129.33 98.7783 128.578 99.4912C127.836 100.194 127.065 100.692 126.264 100.985C125.473 101.269 124.54 101.41 123.466 101.41C121.064 101.41 119.233 100.722 117.973 99.3447C116.723 97.9678 116.098 96.249 116.098 94.1885C116.098 92.7725 116.401 91.5127 117.006 90.4092C117.612 89.3057 118.486 88.4609 119.628 87.875C120.78 87.2891 122.128 86.9961 123.671 86.9961C125.175 86.9961 126.459 87.2793 127.524 87.8457C128.588 88.4023 129.413 89.1934 129.999 90.2188C130.595 91.2344 130.893 92.3672 130.893 93.6172ZM128.066 94.4814C128.066 92.5283 127.66 90.9609 126.85 89.7793C126.049 88.5977 124.872 88.0068 123.32 88.0068C122.021 88.0068 120.961 88.4658 120.141 89.3838C119.321 90.292 118.91 91.6689 118.91 93.5146C118.91 95.4092 119.321 97.0449 120.141 98.4219C120.971 99.7891 122.162 100.473 123.715 100.473C125.072 100.473 126.137 99.9307 126.908 98.8467C127.68 97.7529 128.066 96.2979 128.066 94.4814ZM132.789 100.385L132.906 100.282C133.414 100.243 133.819 100.141 134.122 99.9746C134.434 99.7988 134.864 99.3789 135.411 98.7148C135.958 98.0508 136.788 96.9814 137.901 95.5068L140.933 91.4492C141.842 90.2285 142.349 89.5205 142.457 89.3252C142.574 89.1201 142.633 88.9639 142.633 88.8564C142.633 88.6318 142.525 88.4902 142.31 88.4316C142.096 88.3633 141.363 88.2754 140.113 88.168L140.011 88.0508V87.4355L140.113 87.333C141.051 87.4111 142.159 87.4502 143.438 87.4502C144.581 87.4502 145.621 87.4111 146.558 87.333L146.676 87.4355C146.607 89.0957 146.573 90.8535 146.573 92.709V95.5508C146.573 97.8457 146.646 99.1689 146.793 99.5205C146.949 99.8721 147.594 100.126 148.726 100.282L148.844 100.385V101L148.726 101.117C147.369 101.039 146.241 101 145.343 101C144.444 101 143.316 101.039 141.959 101.117L141.856 101V100.385L141.959 100.282C142.554 100.194 142.989 100.097 143.262 99.9893C143.546 99.8818 143.736 99.7598 143.834 99.623C143.931 99.4766 143.99 99.3008 144.01 99.0957C144.029 98.8906 144.054 98.3682 144.083 97.5283C144.112 96.6787 144.127 96.0195 144.127 95.5508V88.8857H143.907L140.509 93.7197L137.872 97.499C137.198 98.4756 136.837 99.0371 136.788 99.1836C136.739 99.3203 136.715 99.4326 136.715 99.5205C136.715 99.7451 136.827 99.9111 137.052 100.019C137.286 100.116 137.804 100.204 138.604 100.282L138.721 100.385V101L138.604 101.117C137.442 101.039 136.49 101 135.748 101C135.074 101 134.127 101.039 132.906 101.117L132.789 101V100.385ZM166.706 93.6172C166.706 94.8477 166.506 95.9561 166.106 96.9424C165.715 97.9287 165.144 98.7783 164.392 99.4912C163.65 100.194 162.878 100.692 162.078 100.985C161.287 101.269 160.354 101.41 159.28 101.41C156.877 101.41 155.046 100.722 153.787 99.3447C152.537 97.9678 151.912 96.249 151.912 94.1885C151.912 92.7725 152.214 91.5127 152.82 90.4092C153.425 89.3057 154.299 88.4609 155.442 87.875C156.594 87.2891 157.942 86.9961 159.485 86.9961C160.989 86.9961 162.273 87.2793 163.337 87.8457C164.402 88.4023 165.227 89.1934 165.813 90.2188C166.409 91.2344 166.706 92.3672 166.706 93.6172ZM163.879 94.4814C163.879 92.5283 163.474 90.9609 162.663 89.7793C161.863 88.5977 160.686 88.0068 159.133 88.0068C157.834 88.0068 156.775 88.4658 155.954 89.3838C155.134 90.292 154.724 91.6689 154.724 93.5146C154.724 95.4092 155.134 97.0449 155.954 98.4219C156.785 99.7891 157.976 100.473 159.529 100.473C160.886 100.473 161.951 99.9307 162.722 98.8467C163.494 97.7529 163.879 96.2979 163.879 94.4814ZM175.546 88.0508V87.4355L175.648 87.333C176.596 87.4111 177.67 87.4502 178.871 87.4502C179.916 87.4502 180.912 87.4111 181.859 87.333L181.977 87.4355C181.938 88.168 181.918 90.2627 181.918 93.7197C181.918 95.1357 181.903 97.2158 181.874 99.96L181.977 100.077C182.855 100.067 183.715 100.019 184.555 99.9307L184.745 100.121C184.286 101.557 183.842 103.339 183.412 105.468H182.782C182.782 105.019 182.758 104.32 182.709 103.373C182.67 102.426 182.602 101.859 182.504 101.674C182.416 101.488 182.23 101.332 181.947 101.205C181.664 101.088 181.083 101.029 180.204 101.029H179.721L175.868 101C175.126 101 174.242 101.015 173.217 101.044C172.191 101.083 171.581 101.132 171.386 101.19C171.2 101.249 171.049 101.356 170.932 101.513C170.814 101.669 170.731 101.923 170.683 102.274C170.644 102.626 170.624 103.422 170.624 104.662C170.624 104.887 170.629 105.155 170.639 105.468H170.009C169.579 103.153 169.11 101.303 168.603 99.916L168.793 99.7109C169.477 99.8184 170.048 99.8867 170.507 99.916L175.341 93.1631C177.011 90.8389 177.899 89.5596 178.007 89.3252C178.124 89.0908 178.183 88.915 178.183 88.7979C178.183 88.5244 177.953 88.373 177.494 88.3438L175.648 88.168L175.546 88.0508ZM179.281 89.0469C176.098 93.6758 173.651 97.3525 171.942 100.077H179.574L179.545 94.6133C179.535 91.9375 179.516 90.082 179.486 89.0469H179.281ZM191.109 93.3682C192.906 93.4072 194.146 93.4268 194.83 93.4268C195.621 93.4268 196.846 93.4072 198.506 93.3682V92.9727C198.506 92.25 198.497 91.4102 198.477 90.4531C198.458 89.4961 198.394 88.9248 198.287 88.7393C198.189 88.5439 198.057 88.417 197.891 88.3584C197.735 88.29 197.296 88.2266 196.573 88.168L196.456 88.0508V87.4355L196.573 87.333C197.549 87.4111 198.58 87.4502 199.664 87.4502C200.796 87.4502 201.827 87.4111 202.754 87.333L202.872 87.4355V88.0508L202.754 88.168C202.022 88.2363 201.573 88.3047 201.407 88.373C201.251 88.4316 201.124 88.5586 201.026 88.7539C200.928 88.9395 200.87 89.4131 200.85 90.1748C200.831 90.9268 200.821 91.8594 200.821 92.9727V95.4629L200.85 98.0264C200.87 98.9736 200.928 99.54 201.026 99.7256C201.133 99.9111 201.27 100.033 201.436 100.092C201.602 100.15 202.042 100.214 202.754 100.282L202.872 100.385V101L202.754 101.117C201.778 101.039 200.748 101 199.664 101C198.531 101 197.501 101.039 196.573 101.117L196.456 101V100.385L196.573 100.282C197.305 100.214 197.75 100.15 197.906 100.092C198.072 100.023 198.204 99.8965 198.301 99.7109C198.399 99.5254 198.458 99.0762 198.477 98.3633C198.497 97.6406 198.506 96.6738 198.506 95.4629V94.291C197.422 94.2617 196.197 94.2471 194.83 94.2471C193.589 94.2471 192.349 94.2617 191.109 94.291V95.4629C191.109 96.2344 191.119 97.0938 191.138 98.041C191.158 98.9785 191.216 99.54 191.314 99.7256C191.421 99.9111 191.558 100.033 191.724 100.092C191.89 100.15 192.33 100.214 193.043 100.282L193.16 100.385V101L193.043 101.117C192.066 101.039 191.036 101 189.952 101C188.809 101 187.779 101.039 186.861 101.117L186.744 101V100.385L186.861 100.282C187.593 100.214 188.038 100.15 188.194 100.092C188.35 100.023 188.477 99.8965 188.575 99.7109C188.682 99.5254 188.746 99.0762 188.765 98.3633C188.785 97.6504 188.795 96.6836 188.795 95.4629V92.9727C188.795 92.2109 188.785 91.3613 188.765 90.4238C188.746 89.4766 188.682 88.9102 188.575 88.7246C188.467 88.5391 188.331 88.417 188.165 88.3584C188.008 88.29 187.574 88.2266 186.861 88.168L186.744 88.0508V87.4355L186.861 87.333C187.828 87.4111 188.858 87.4502 189.952 87.4502C191.085 87.4502 192.115 87.4111 193.043 87.333L193.16 87.4355V88.0508L193.043 88.168C192.31 88.2363 191.861 88.2998 191.695 88.3584C191.539 88.417 191.412 88.5439 191.314 88.7393C191.216 88.9248 191.158 89.374 191.138 90.0869C191.119 90.79 191.109 91.752 191.109 92.9727V93.3682ZM205.632 101V100.385L205.749 100.282C206.335 100.194 206.77 100.097 207.053 99.9893C207.336 99.8818 207.522 99.7598 207.61 99.623C207.707 99.4766 207.766 99.3008 207.785 99.0957C207.815 98.8906 207.839 98.3633 207.859 97.5137C207.888 96.6543 207.903 96 207.903 95.5508V92.8994C207.903 90.5947 207.824 89.2666 207.668 88.915C207.522 88.5635 206.882 88.3145 205.749 88.168L205.632 88.0508V87.4355L205.749 87.333C207.107 87.4111 208.235 87.4502 209.133 87.4502C210.002 87.4502 211.13 87.4111 212.517 87.333L212.619 87.4355V88.0508L212.517 88.168C211.892 88.2559 211.452 88.3535 211.198 88.4609C210.954 88.5586 210.783 88.666 210.686 88.7832C210.588 88.8906 210.525 89.0273 210.495 89.1934C210.466 89.3594 210.432 89.8916 210.393 90.79C210.363 91.6787 210.349 92.3818 210.349 92.8994V93.1484C211.198 93.0996 211.985 93.0752 212.707 93.0752C213.977 93.0752 214.944 93.1973 215.608 93.4414C216.281 93.6758 216.814 94.0957 217.204 94.7012C217.595 95.3066 217.79 96.0098 217.79 96.8105C217.79 97.7285 217.546 98.5293 217.058 99.2129C216.57 99.8965 215.974 100.385 215.271 100.678C214.577 100.971 213.654 101.117 212.502 101.117C212.199 101.117 211.623 101.098 210.774 101.059C210.051 101.02 209.504 101 209.133 101C208.225 101 207.097 101.039 205.749 101.117L205.632 101ZM210.349 93.8369V96.5029C210.368 97.958 210.388 98.8906 210.407 99.3008C210.437 99.7109 210.52 99.9893 210.656 100.136C210.803 100.282 211.115 100.355 211.594 100.355C212.766 100.355 213.65 100.009 214.245 99.3154C214.851 98.6221 215.154 97.7236 215.154 96.6201C215.154 96.0146 215.046 95.502 214.831 95.082C214.626 94.6621 214.304 94.3447 213.864 94.1299C213.435 93.915 212.805 93.8076 211.975 93.8076C211.584 93.8076 211.042 93.8174 210.349 93.8369ZM218.083 88.0508V87.4355L218.2 87.333C219.558 87.4111 220.686 87.4502 221.584 87.4502C222.492 87.4502 223.62 87.4111 224.968 87.333L225.085 87.4355V88.0508L224.968 88.168C224.382 88.2461 223.947 88.3389 223.664 88.4463C223.381 88.5537 223.191 88.6807 223.093 88.8271C223.005 88.9639 222.946 89.1348 222.917 89.3398C222.898 89.5449 222.873 90.0723 222.844 90.9219C222.824 91.7715 222.815 92.4307 222.815 92.8994V95.5508C222.815 97.8555 222.888 99.1836 223.034 99.5352C223.191 99.877 223.835 100.126 224.968 100.282L225.085 100.385V101L224.968 101.117C223.611 101.039 222.483 101 221.584 101C220.676 101 219.548 101.039 218.2 101.117L218.083 101V100.385L218.2 100.282C219.343 100.126 219.988 99.8672 220.134 99.5059C220.29 99.1445 220.368 97.8262 220.368 95.5508V92.8994C220.368 90.6045 220.29 89.2812 220.134 88.9297C219.978 88.5684 219.333 88.3145 218.2 88.168L218.083 88.0508ZM240.092 98.8467L239.623 99.9014C238.607 100.556 237.699 100.98 236.898 101.176C236.107 101.371 235.399 101.469 234.774 101.469C233.602 101.469 232.489 101.239 231.434 100.78C230.389 100.321 229.535 99.5449 228.871 98.4512C228.217 97.3574 227.889 96.0391 227.889 94.4961C227.889 93.4707 228.016 92.5479 228.27 91.7275C228.524 90.8975 228.788 90.2822 229.061 89.8818C229.345 89.4814 229.818 89.0371 230.482 88.5488C231.146 88.0605 231.849 87.6699 232.592 87.377C233.334 87.084 234.135 86.9375 234.994 86.9375C236.166 86.9375 237.196 87.2158 238.085 87.7725C238.983 88.3193 239.613 89.0225 239.974 89.8818C240.336 90.7412 240.516 91.6543 240.516 92.6211C240.516 92.9238 240.502 93.2168 240.472 93.5L240.311 93.6611C239.647 93.8076 238.754 93.9053 237.631 93.9541C236.508 94.0029 235.765 94.0273 235.404 94.0273H230.702C230.721 96.0488 231.229 97.5381 232.225 98.4951C233.221 99.4521 234.442 99.9307 235.888 99.9307C236.571 99.9307 237.225 99.8135 237.85 99.5791C238.485 99.3447 239.154 99.0176 239.857 98.5977L240.092 98.8467ZM230.702 92.8555C230.878 92.8848 231.552 92.9189 232.723 92.958C233.905 92.9971 234.779 93.0166 235.346 93.0166C236.703 93.0166 237.528 92.9922 237.821 92.9434C237.831 92.709 237.836 92.5283 237.836 92.4014C237.836 90.8877 237.528 89.7646 236.913 89.0322C236.298 88.29 235.458 87.9189 234.393 87.9189C233.231 87.9189 232.323 88.334 231.669 89.1641C231.024 89.9941 230.702 91.2246 230.702 92.8555ZM110.971 125.368C112.768 125.407 114.008 125.427 114.692 125.427C115.483 125.427 116.708 125.407 118.368 125.368V124.973C118.368 124.25 118.359 123.41 118.339 122.453C118.32 121.496 118.256 120.925 118.149 120.739C118.051 120.544 117.919 120.417 117.753 120.358C117.597 120.29 117.157 120.227 116.435 120.168L116.318 120.051V119.436L116.435 119.333C117.411 119.411 118.442 119.45 119.526 119.45C120.658 119.45 121.689 119.411 122.616 119.333L122.734 119.436V120.051L122.616 120.168C121.884 120.236 121.435 120.305 121.269 120.373C121.112 120.432 120.986 120.559 120.888 120.754C120.79 120.939 120.732 121.413 120.712 122.175C120.693 122.927 120.683 123.859 120.683 124.973V127.463L120.712 130.026C120.732 130.974 120.79 131.54 120.888 131.726C120.995 131.911 121.132 132.033 121.298 132.092C121.464 132.15 121.904 132.214 122.616 132.282L122.734 132.385V133L122.616 133.117C121.64 133.039 120.61 133 119.526 133C118.393 133 117.362 133.039 116.435 133.117L116.318 133V132.385L116.435 132.282C117.167 132.214 117.612 132.15 117.768 132.092C117.934 132.023 118.066 131.896 118.163 131.711C118.261 131.525 118.32 131.076 118.339 130.363C118.359 129.641 118.368 128.674 118.368 127.463V126.291C117.284 126.262 116.059 126.247 114.692 126.247C113.451 126.247 112.211 126.262 110.971 126.291V127.463C110.971 128.234 110.981 129.094 111 130.041C111.02 130.979 111.078 131.54 111.176 131.726C111.283 131.911 111.42 132.033 111.586 132.092C111.752 132.15 112.192 132.214 112.904 132.282L113.022 132.385V133L112.904 133.117C111.928 133.039 110.898 133 109.814 133C108.671 133 107.641 133.039 106.723 133.117L106.606 133V132.385L106.723 132.282C107.455 132.214 107.9 132.15 108.056 132.092C108.212 132.023 108.339 131.896 108.437 131.711C108.544 131.525 108.608 131.076 108.627 130.363C108.647 129.65 108.656 128.684 108.656 127.463V124.973C108.656 124.211 108.647 123.361 108.627 122.424C108.608 121.477 108.544 120.91 108.437 120.725C108.329 120.539 108.193 120.417 108.027 120.358C107.87 120.29 107.436 120.227 106.723 120.168L106.606 120.051V119.436L106.723 119.333C107.69 119.411 108.72 119.45 109.814 119.45C110.946 119.45 111.977 119.411 112.904 119.333L113.022 119.436V120.051L112.904 120.168C112.172 120.236 111.723 120.3 111.557 120.358C111.401 120.417 111.274 120.544 111.176 120.739C111.078 120.925 111.02 121.374 111 122.087C110.981 122.79 110.971 123.752 110.971 124.973V125.368ZM127.442 123.068L126.871 122.922L126.754 122.775C126.763 122.619 126.768 122.419 126.768 122.175L126.754 120.959C127.808 120.275 128.702 119.782 129.434 119.479C130.167 119.177 130.963 119.025 131.822 119.025C133.336 119.025 134.532 119.421 135.411 120.212C136.29 121.003 136.729 122.077 136.729 123.435L136.656 126.379V130.744C136.656 131.271 136.7 131.618 136.788 131.784C136.876 131.95 136.993 132.062 137.139 132.121C137.296 132.18 137.613 132.229 138.092 132.268L138.209 132.399V132.985L138.092 133.103C137.33 133.034 136.734 133 136.304 133C135.894 133 135.26 133.034 134.4 133.103L134.18 132.897L134.239 130.539L132.364 132.004C131.71 132.521 131.27 132.863 131.046 133.029C130.509 133.254 129.923 133.366 129.288 133.366C128.126 133.366 127.208 133.059 126.534 132.443C125.87 131.818 125.538 130.974 125.538 129.909C125.538 128.806 125.826 127.907 126.402 127.214C126.978 126.511 127.847 125.964 129.01 125.573C130.181 125.173 131.925 124.812 134.239 124.489C134.239 123.884 134.195 123.366 134.107 122.937C134.029 122.507 133.829 122.102 133.507 121.721C133.194 121.33 132.794 121.037 132.305 120.842C131.827 120.646 131.285 120.549 130.679 120.549C130.357 120.549 130.045 120.578 129.742 120.637C129.439 120.686 129.156 120.769 128.892 120.886C128.629 121.003 128.468 121.086 128.409 121.135C128.35 121.184 128.297 121.271 128.248 121.398C128.219 121.457 128.111 121.691 127.926 122.102C127.779 122.414 127.657 122.712 127.559 122.995L127.442 123.068ZM134.239 125.339C131.983 125.7 130.396 126.149 129.478 126.687C128.57 127.214 128.116 128.068 128.116 129.25C128.116 130.012 128.316 130.593 128.717 130.993C129.127 131.394 129.683 131.594 130.387 131.594C131.685 131.594 132.97 130.842 134.239 129.338V125.339ZM141.394 133V132.385L141.511 132.282C142.097 132.194 142.532 132.097 142.815 131.989C143.098 131.882 143.284 131.76 143.371 131.623C143.469 131.477 143.528 131.301 143.547 131.096C143.577 130.891 143.601 130.363 143.621 129.514C143.65 128.654 143.664 128 143.664 127.551V124.899C143.664 122.595 143.586 121.267 143.43 120.915C143.284 120.563 142.644 120.314 141.511 120.168L141.394 120.051V119.436L141.511 119.333C144.451 119.411 147.204 119.45 149.773 119.45C152.175 119.45 154.934 119.411 158.049 119.333L158.152 119.436V120.051L158.049 120.168C157.424 120.256 156.985 120.354 156.731 120.461C156.477 120.559 156.301 120.666 156.204 120.783C156.116 120.891 156.057 121.027 156.028 121.193C155.998 121.359 155.964 121.887 155.925 122.775C155.896 123.654 155.881 124.362 155.881 124.899V127.551C155.881 129.855 155.959 131.184 156.116 131.535C156.272 131.877 156.916 132.126 158.049 132.282L158.152 132.385V133L158.049 133.117C156.682 133.039 155.549 133 154.651 133C153.782 133 152.654 133.039 151.267 133.117L151.164 133V132.385L151.267 132.282C152.419 132.126 153.069 131.867 153.215 131.506C153.362 131.145 153.435 129.826 153.435 127.551V120.476L153.318 120.373H146.228L146.111 120.476V127.551C146.111 129.846 146.189 131.169 146.345 131.521C146.501 131.872 147.146 132.126 148.279 132.282L148.381 132.385V133L148.279 133.117C146.912 133.039 145.784 133 144.895 133C143.987 133 142.859 133.039 141.511 133.117L141.394 133ZM161.366 133V132.385L161.483 132.282C162.069 132.194 162.504 132.097 162.787 131.989C163.07 131.882 163.256 131.76 163.344 131.623C163.441 131.477 163.5 131.301 163.52 131.096C163.549 130.891 163.573 130.363 163.593 129.514C163.622 128.654 163.637 128 163.637 127.551V124.899C163.637 122.595 163.559 121.267 163.402 120.915C163.256 120.563 162.616 120.314 161.483 120.168L161.366 120.051V119.436L161.483 119.333C162.841 119.411 163.969 119.45 164.867 119.45C165.736 119.45 166.864 119.411 168.251 119.333L168.354 119.436V120.051L168.251 120.168C167.626 120.256 167.187 120.354 166.933 120.461C166.688 120.559 166.518 120.666 166.42 120.783C166.322 120.891 166.259 121.027 166.229 121.193C166.2 121.359 166.166 121.892 166.127 122.79C166.098 123.679 166.083 124.382 166.083 124.899V130.949L166.317 131.037C167.245 129.65 168.441 127.712 169.906 125.222C171.371 122.722 172.489 120.759 173.261 119.333C174.179 119.411 174.945 119.45 175.561 119.45C176.195 119.45 176.977 119.411 177.904 119.333L178.021 119.436V120.051L177.904 120.168C176.762 120.314 176.117 120.573 175.971 120.944C175.824 121.306 175.751 122.624 175.751 124.899V127.551C175.751 129.846 175.824 131.169 175.971 131.521C176.127 131.872 176.771 132.126 177.904 132.282L178.021 132.385V133L177.904 133.117C176.547 133.039 175.419 133 174.521 133C173.651 133 172.523 133.039 171.137 133.117L171.02 133V132.385L171.137 132.282C172.279 132.126 172.924 131.867 173.07 131.506C173.227 131.145 173.305 129.826 173.305 127.551V121.589L173.07 121.501C172.357 122.556 171.215 124.44 169.643 127.155C168.08 129.87 166.981 131.857 166.347 133.117C165.429 133.039 164.677 133 164.091 133C163.456 133 162.587 133.039 161.483 133.117L161.366 133ZM180.621 119.436L180.738 119.333C182.642 119.431 184.776 119.479 187.139 119.479C189.542 119.479 191.675 119.431 193.541 119.333L193.643 119.436C193.585 120.725 193.555 121.813 193.555 122.702L193.467 122.79H192.881L192.794 122.702C192.667 121.647 192.564 121.027 192.486 120.842C192.408 120.646 192.296 120.52 192.149 120.461C192.012 120.402 191.739 120.373 191.329 120.373H188.355L188.296 124.123V127.463C188.296 128.186 188.306 129.03 188.326 129.997C188.345 130.954 188.404 131.525 188.502 131.711C188.599 131.896 188.731 132.023 188.897 132.092C189.063 132.15 189.507 132.214 190.23 132.282L190.347 132.385V133L190.23 133.117C189.254 133.039 188.223 133 187.139 133C186.006 133 184.976 133.039 184.048 133.117L183.931 133V132.385L184.048 132.282C184.781 132.214 185.225 132.15 185.381 132.092C185.547 132.023 185.679 131.896 185.777 131.711C185.875 131.516 185.933 131.042 185.953 130.29C185.972 129.528 185.982 128.586 185.982 127.463V124.167C185.953 122.897 185.928 121.633 185.909 120.373H182.935C182.515 120.373 182.232 120.407 182.086 120.476C181.949 120.534 181.841 120.671 181.763 120.886C181.695 121.091 181.597 121.696 181.47 122.702L181.382 122.79H180.811L180.709 122.702C180.709 122.312 180.679 121.223 180.621 119.436ZM196.272 133V132.385L196.389 132.282C197.121 132.214 197.566 132.15 197.722 132.092C197.878 132.023 198.005 131.896 198.103 131.711C198.21 131.525 198.274 131.076 198.293 130.363C198.313 129.65 198.322 128.684 198.322 127.463V124.973C198.322 124.211 198.313 123.361 198.293 122.424C198.274 121.477 198.21 120.91 198.103 120.725C197.995 120.539 197.859 120.417 197.693 120.358C197.536 120.29 197.102 120.227 196.389 120.168L196.272 120.051V119.436L196.389 119.333C197.356 119.411 198.405 119.45 199.538 119.45C200.72 119.45 201.775 119.411 202.702 119.333L202.82 119.436V120.051L202.702 120.168C201.97 120.236 201.521 120.305 201.355 120.373C201.198 120.432 201.071 120.554 200.974 120.739C200.886 120.925 200.827 121.374 200.798 122.087C200.779 122.8 200.769 123.762 200.769 124.973V125.939H200.886C202.146 124.846 203.347 123.723 204.489 122.57C205.632 121.408 206.257 120.759 206.364 120.622C206.482 120.485 206.54 120.363 206.54 120.256C206.54 120.139 206.452 120.056 206.277 120.007V119.436L206.394 119.318C207.234 119.396 207.795 119.436 208.078 119.436C208.557 119.436 209.118 119.396 209.763 119.318L209.865 119.436V120.051L209.763 120.153C209.128 120.212 208.581 120.378 208.122 120.651C207.663 120.915 205.988 122.36 203.098 124.987L209.089 131.286C209.519 131.745 209.807 132.028 209.953 132.136C210.11 132.233 210.334 132.287 210.627 132.297L210.7 132.37V133L210.627 133.088C209.104 133.039 208.181 132.971 207.859 132.883C207.536 132.795 207.175 132.585 206.775 132.253C206.384 131.911 205.725 131.242 204.797 130.246C202.912 128.244 201.609 126.936 200.886 126.32H200.769V127.463C200.769 128.264 200.779 129.128 200.798 130.056C200.818 130.983 200.876 131.54 200.974 131.726C201.081 131.911 201.218 132.033 201.384 132.092C201.55 132.15 201.989 132.214 202.702 132.282L202.82 132.385V133L202.702 133.117C201.736 133.039 200.681 133 199.538 133C198.366 133 197.317 133.039 196.389 133.117L196.272 133ZM212.904 133V132.385L213.021 132.282C213.607 132.194 214.042 132.097 214.325 131.989C214.608 131.882 214.794 131.76 214.882 131.623C214.979 131.477 215.038 131.301 215.057 131.096C215.087 130.891 215.111 130.363 215.131 129.514C215.16 128.654 215.175 128 215.175 127.551V124.899C215.175 122.595 215.096 121.267 214.94 120.915C214.794 120.563 214.154 120.314 213.021 120.168L212.904 120.051V119.436L213.021 119.333C214.379 119.411 215.507 119.45 216.405 119.45C217.274 119.45 218.402 119.411 219.789 119.333L219.891 119.436V120.051L219.789 120.168C219.164 120.256 218.724 120.354 218.471 120.461C218.226 120.559 218.055 120.666 217.958 120.783C217.86 120.891 217.797 121.027 217.767 121.193C217.738 121.359 217.704 121.892 217.665 122.79C217.636 123.679 217.621 124.382 217.621 124.899V130.949L217.855 131.037C218.783 129.65 219.979 127.712 221.444 125.222C222.909 122.722 224.027 120.759 224.799 119.333C225.717 119.411 226.483 119.45 227.098 119.45C227.733 119.45 228.514 119.411 229.442 119.333L229.559 119.436V120.051L229.442 120.168C228.3 120.314 227.655 120.573 227.509 120.944C227.362 121.306 227.289 122.624 227.289 124.899V127.551C227.289 129.846 227.362 131.169 227.509 131.521C227.665 131.872 228.309 132.126 229.442 132.282L229.559 132.385V133L229.442 133.117C228.085 133.039 226.957 133 226.058 133C225.189 133 224.061 133.039 222.675 133.117L222.557 133V132.385L222.675 132.282C223.817 132.126 224.462 131.867 224.608 131.506C224.764 131.145 224.843 129.826 224.843 127.551V121.589L224.608 121.501C223.895 122.556 222.753 124.44 221.18 127.155C219.618 129.87 218.519 131.857 217.885 133.117C216.967 133.039 216.215 133 215.629 133C214.994 133 214.125 133.039 213.021 133.117L212.904 133Z" fill="black"/>
<rect x="268.81" y="78" width="33" height="22" rx="10" fill="#8BC2F4"/>
<path d="M279.56 101.75H290.56C294.206 101.75 297.704 100.301 300.282 97.7227C302.861 95.1441 304.31 91.6467 304.31 88V85.25H307.06C309.248 85.25 311.346 84.3808 312.893 82.8336C314.44 81.2865 315.31 79.188 315.31 77C315.31 74.812 314.44 72.7135 312.893 71.1664C311.346 69.6192 309.248 68.75 307.06 68.75H304.31V66C304.31 65.2707 304.02 64.5712 303.504 64.0555C302.988 63.5397 302.289 63.25 301.56 63.25H268.56C267.83 63.25 267.131 63.5397 266.615 64.0555C266.099 64.5712 265.81 65.2707 265.81 66V88C265.81 91.6467 267.258 95.1441 269.837 97.7227C272.415 100.301 275.913 101.75 279.56 101.75ZM304.31 74.25H307.06C307.789 74.25 308.488 74.5397 309.004 75.0555C309.52 75.5712 309.81 76.2707 309.81 77C309.81 77.7293 309.52 78.4288 309.004 78.9445C308.488 79.4603 307.789 79.75 307.06 79.75H304.31V74.25ZM271.31 68.75H298.81V88C298.81 90.188 297.94 92.2865 296.393 93.8336C294.846 95.3808 292.748 96.25 290.56 96.25H279.56C277.372 96.25 275.273 95.3808 273.726 93.8336C272.179 92.2865 271.31 90.188 271.31 88V68.75ZM312.56 107.25H263.06C262.33 107.25 261.631 107.54 261.115 108.055C260.599 108.571 260.31 109.271 260.31 110C260.31 110.729 260.599 111.429 261.115 111.945C261.631 112.46 262.33 112.75 263.06 112.75H312.56C313.289 112.75 313.988 112.46 314.504 111.945C315.02 111.429 315.31 110.729 315.31 110C315.31 109.271 315.02 108.571 314.504 108.055C313.988 107.54 313.289 107.25 312.56 107.25Z" fill="#330000"/>
<path d="M280.03 86.36C280.803 86.5867 281.45 86.6533 281.97 86.56C282.503 86.4533 282.976 86.08 283.39 85.44L284.07 84.42L284.37 84.08L289.01 75H292.19L286.23 86.08C285.696 87.08 285.063 87.8467 284.33 88.38C283.61 88.9133 282.816 89.2133 281.95 89.28C281.083 89.36 280.183 89.2067 279.25 88.82L280.03 86.36ZM284.31 86.78L277.99 75H281.45L286.09 84.4L284.31 86.78Z" fill="#330000"/>
<rect width="33" height="22" rx="10" transform="matrix(-1 0 0 1 66.8096 78)" fill="#8BC2F4"/>
<path d="M56.0596 101.75H45.0596C41.4128 101.75 37.9155 100.301 35.3368 97.7227C32.7582 95.1441 31.3096 91.6467 31.3096 88V85.25H28.5596C26.3715 85.25 24.2731 84.3808 22.7259 82.8336C21.1788 81.2865 20.3096 79.188 20.3096 77C20.3096 74.812 21.1788 72.7135 22.7259 71.1664C24.2731 69.6192 26.3715 68.75 28.5596 68.75H31.3096V66C31.3096 65.2707 31.5993 64.5712 32.115 64.0555C32.6307 63.5397 33.3302 63.25 34.0596 63.25H67.0596C67.7889 63.25 68.4884 63.5397 69.0041 64.0555C69.5198 64.5712 69.8096 65.2707 69.8096 66V88C69.8096 91.6467 68.3609 95.1441 65.7823 97.7227C63.2037 100.301 59.7063 101.75 56.0596 101.75ZM31.3096 74.25H28.5596C27.8302 74.25 27.1307 74.5397 26.615 75.0555C26.0993 75.5712 25.8096 76.2707 25.8096 77C25.8096 77.7293 26.0993 78.4288 26.615 78.9445C27.1307 79.4603 27.8302 79.75 28.5596 79.75H31.3096V74.25ZM64.3096 68.75H36.8096V88C36.8096 90.188 37.6788 92.2865 39.2259 93.8336C40.7731 95.3808 42.8715 96.25 45.0596 96.25H56.0596C58.2476 96.25 60.346 95.3808 61.8932 93.8336C63.4404 92.2865 64.3096 90.188 64.3096 88V68.75ZM23.0596 107.25H72.5596C73.2889 107.25 73.9884 107.54 74.5041 108.055C75.0198 108.571 75.3096 109.271 75.3096 110C75.3096 110.729 75.0198 111.429 74.5041 111.945C73.9884 112.46 73.2889 112.75 72.5596 112.75H23.0596C22.3302 112.75 21.6307 112.46 21.115 111.945C20.5993 111.429 20.3096 110.729 20.3096 110C20.3096 109.271 20.5993 108.571 21.115 108.055C21.6307 107.54 22.3302 107.25 23.0596 107.25Z" fill="#330000"/>
<path d="M46.0296 86.36C46.8029 86.5867 47.4496 86.6533 47.9696 86.56C48.5029 86.4533 48.9762 86.08 49.3896 85.44L50.0696 84.42L50.3696 84.08L55.0096 75H58.1896L52.2296 86.08C51.6962 87.08 51.0629 87.8467 50.3296 88.38C49.6096 88.9133 48.8162 89.2133 47.9496 89.28C47.0829 89.36 46.1829 89.2067 45.2496 88.82L46.0296 86.36ZM50.3096 86.78L43.9896 75H47.4496L52.0896 84.4L50.3096 86.78Z" fill="#330000"/>
<path d="M41.8096 110H285.81" stroke="#330000" stroke-width="5"/>
<line x1="5.33447" y1="112.472" x2="5.33447" y2="55.1028" stroke="#330000" stroke-width="10"/>
<path d="M2.30957 59.5L168.931 5.36616" stroke="#330000" stroke-width="10"/>
<line y1="-5" x2="57.3696" y2="-5" transform="matrix(0 -1 -1 0 324.716 112.106)" stroke="#330000" stroke-width="10"/>
<path d="M332.741 59.1339L166.119 5.00001" stroke="#330000" stroke-width="10"/>
</svg>
