<svg width="335" height="141" viewBox="0 0 335 141" fill="none" xmlns="http://www.w3.org/2000/svg">
<path d="M84.633 83.3018C87.1232 83.3799 88.5197 83.4189 88.8225 83.4189C89.1447 83.4189 90.5461 83.3799 93.0266 83.3018L93.1438 83.4043V84.1367L93.0266 84.2393C92.3527 84.2588 91.8303 84.2881 91.4592 84.3271C91.0979 84.3662 90.8342 84.4395 90.6682 84.5469C90.5022 84.6543 90.3898 84.9082 90.3313 85.3086C90.2824 85.6992 90.258 86.2461 90.258 86.9492L90.2287 90.3184V92.3691C92.3674 92.4277 94.3938 92.457 96.3078 92.457C98.925 92.457 100.917 92.4277 102.284 92.3691V90.3184L102.255 87.4619C102.245 86.3486 102.216 85.6309 102.167 85.3086C102.118 84.9863 102.05 84.7715 101.962 84.6641C101.874 84.5566 101.698 84.4688 101.435 84.4004C101.171 84.332 100.517 84.2783 99.4719 84.2393L99.3693 84.1367V83.4043L99.4719 83.3018C101.972 83.3799 103.373 83.4189 103.676 83.4189C104.008 83.4189 105.409 83.3799 107.88 83.3018L107.997 83.4043V84.1367L107.88 84.2393C107.196 84.2588 106.669 84.2881 106.298 84.3271C105.937 84.3662 105.673 84.4395 105.507 84.5469C105.341 84.6543 105.234 84.9082 105.185 85.3086C105.136 85.6992 105.107 86.2461 105.097 86.9492L105.068 90.3184V97.1006L105.097 99.957C105.107 101.061 105.136 101.773 105.185 102.096C105.234 102.418 105.302 102.633 105.39 102.74C105.488 102.848 105.663 102.94 105.917 103.019C106.181 103.087 106.835 103.141 107.88 103.18L107.997 103.268V104L107.88 104.117C105.38 104.039 103.979 104 103.676 104C103.363 104 101.962 104.039 99.4719 104.117L99.3693 104V103.268L99.4719 103.18C100.39 103.141 101 103.092 101.303 103.033C101.606 102.975 101.806 102.901 101.904 102.813C102.001 102.716 102.084 102.516 102.153 102.213C102.221 101.91 102.255 101.236 102.255 100.191L102.284 97.1006V93.7607C99.3938 93.7021 97.3674 93.6729 96.2053 93.6729C95.0139 93.6729 93.0217 93.7021 90.2287 93.7607V97.1006L90.2434 99.957C90.2531 101.061 90.2824 101.773 90.3313 102.096C90.3801 102.418 90.4484 102.633 90.5363 102.74C90.634 102.848 90.8147 102.94 91.0783 103.019C91.342 103.087 91.9914 103.141 93.0266 103.18L93.1438 103.268V104L93.0266 104.117C90.5363 104.039 89.135 104 88.8225 104C88.5197 104 87.1232 104.039 84.633 104.117L84.5158 104V103.268L84.633 103.18C85.5412 103.141 86.1467 103.092 86.4494 103.033C86.7522 102.975 86.9523 102.901 87.05 102.813C87.1574 102.716 87.2404 102.516 87.299 102.213C87.3674 101.91 87.4064 101.236 87.4162 100.191L87.4309 97.1006V90.3184L87.4016 87.4619C87.3918 86.3486 87.3625 85.6309 87.3137 85.3086C87.2746 84.9863 87.2063 84.7715 87.1086 84.6641C87.0207 84.5566 86.8449 84.4688 86.5813 84.4004C86.3176 84.332 85.6682 84.2783 84.633 84.2393L84.5158 84.1367V83.4043L84.633 83.3018ZM110.333 93.9072C110.333 92.4424 110.543 91.0752 110.963 89.8057C111.383 88.5361 112.096 87.3643 113.101 86.29C114.117 85.2061 115.338 84.3711 116.763 83.7852C118.189 83.1895 119.801 82.8916 121.597 82.8916C124.928 82.8916 127.579 83.7998 129.552 85.6162C131.524 87.4229 132.511 89.8936 132.511 93.0283C132.511 95.2354 132.027 97.2178 131.06 98.9756C130.094 100.733 128.707 102.101 126.9 103.077C125.103 104.054 123.082 104.542 120.836 104.542C119.244 104.542 117.779 104.278 116.441 103.751C115.103 103.214 113.961 102.418 113.013 101.363C112.076 100.309 111.392 99.0879 110.963 97.7012C110.543 96.3145 110.333 95.0498 110.333 93.9072ZM113.38 92.9404C113.38 94.1318 113.57 95.416 113.951 96.793C114.342 98.1602 114.918 99.3369 115.679 100.323C116.451 101.3 117.335 102.027 118.331 102.506C119.337 102.984 120.479 103.224 121.759 103.224C123.272 103.224 124.62 102.877 125.802 102.184C126.983 101.49 127.882 100.416 128.497 98.9609C129.112 97.4961 129.42 95.8555 129.42 94.0391C129.42 92.0664 129.068 90.2842 128.365 88.6924C127.662 87.1006 126.661 85.9434 125.362 85.2207C124.063 84.498 122.623 84.1367 121.041 84.1367C118.668 84.1367 116.798 84.8789 115.43 86.3633C114.063 87.8477 113.38 90.04 113.38 92.9404ZM134.641 84.2393L134.524 84.1367V83.4043L134.641 83.3018C136.311 83.3799 137.6 83.4189 138.508 83.4189C138.85 83.4189 140.203 83.3799 142.566 83.3018C143.328 83.2822 143.879 83.2725 144.221 83.2725C145.539 83.2725 146.584 83.4043 147.356 83.668C148.127 83.9316 148.747 84.4004 149.216 85.0742C149.685 85.7383 149.919 86.4951 149.919 87.3447C149.919 88.4287 149.529 89.4346 148.747 90.3623C147.966 91.29 146.697 91.9541 144.939 92.3545C145.994 92.4521 146.863 92.5938 147.546 92.7793C148.23 92.9648 148.821 93.2529 149.319 93.6436C149.817 94.0244 150.207 94.5225 150.491 95.1377C150.784 95.7529 150.93 96.4658 150.93 97.2764C150.93 97.9111 150.832 98.5557 150.637 99.21C150.442 99.8643 150.08 100.514 149.553 101.158C149.036 101.803 148.406 102.354 147.663 102.813C146.921 103.272 146.16 103.604 145.378 103.81C144.607 104.015 143.645 104.117 142.493 104.117C142.258 104.117 141.555 104.093 140.383 104.044C139.084 104.015 138.381 104 138.274 104C137.61 104 136.794 104.039 135.828 104.117L135.71 104V103.517L135.828 103.37C136.394 103.116 136.721 102.94 136.809 102.843C136.897 102.745 136.965 101.881 137.014 100.25C137.073 98.6191 137.102 97.374 137.102 96.5146V91.1387L137.087 87.8135C137.087 87.0908 137.078 86.5049 137.058 86.0557C137.038 85.5967 137.009 85.2695 136.97 85.0742C136.941 84.8789 136.887 84.7422 136.809 84.6641C136.731 84.5859 136.619 84.5225 136.472 84.4736C136.335 84.415 136.096 84.3662 135.754 84.3271L134.641 84.2393ZM139.9 91.9297C140.388 91.9688 140.94 91.9883 141.555 91.9883C143.577 91.9883 144.983 91.627 145.774 90.9043C146.565 90.1816 146.96 89.1904 146.96 87.9307C146.96 87.1982 146.809 86.5781 146.506 86.0703C146.204 85.5527 145.725 85.1572 145.071 84.8838C144.426 84.6104 143.547 84.4736 142.434 84.4736C141.526 84.4736 140.725 84.5469 140.032 84.6934C139.944 85.5723 139.9 87.1055 139.9 89.293V91.9297ZM139.929 102.608C140.681 102.784 141.453 102.872 142.244 102.872C143.64 102.872 144.734 102.647 145.525 102.198C146.316 101.749 146.897 101.129 147.268 100.338C147.649 99.5371 147.839 98.668 147.839 97.7305C147.839 96.3242 147.439 95.2012 146.638 94.3613C145.847 93.5117 144.128 93.0869 141.482 93.0869C141.042 93.0869 140.515 93.1064 139.9 93.1455V98.1406L139.929 102.608ZM154.101 104V103.268L154.218 103.18C155.077 103.15 155.673 103.106 156.005 103.048C156.347 102.989 156.571 102.896 156.679 102.77C156.786 102.643 156.859 102.438 156.898 102.154C156.938 101.861 156.967 101.134 156.986 99.9717C157.006 98.7998 157.016 97.8428 157.016 97.1006V90.3184C157.016 89.3027 157.001 88.2236 156.972 87.0811C156.952 85.9385 156.913 85.2646 156.854 85.0596C156.806 84.8447 156.728 84.6934 156.62 84.6055C156.522 84.5078 156.317 84.4297 156.005 84.3711C155.702 84.3125 155.106 84.2686 154.218 84.2393L154.101 84.1367V83.4043L154.218 83.3018C154.267 83.3018 154.906 83.3213 156.137 83.3604C157.299 83.3994 158.07 83.4189 158.451 83.4189C158.686 83.4189 160.072 83.3799 162.611 83.3018L162.729 83.4043V84.1367L162.611 84.2393C161.752 84.2686 161.151 84.3125 160.81 84.3711C160.478 84.4297 160.258 84.5225 160.15 84.6494C160.043 84.7666 159.97 84.9668 159.931 85.25C159.892 85.5332 159.862 86.2754 159.843 87.4766C159.823 88.6777 159.813 89.625 159.813 90.3184V101.568L160.033 101.671C162.094 98.7021 164.428 95.167 167.035 91.0654C169.643 86.9639 171.239 84.376 171.825 83.3018C172.851 83.3799 173.803 83.4189 174.682 83.4189C175.678 83.4189 176.625 83.3799 177.523 83.3018L177.641 83.4043V84.1367L177.523 84.2393C176.566 84.2686 175.941 84.3174 175.648 84.3857C175.365 84.4443 175.175 84.5225 175.077 84.6201C174.979 84.7178 174.906 84.8838 174.857 85.1182C174.809 85.3525 174.774 86.0898 174.755 87.3301C174.735 88.5703 174.726 89.5664 174.726 90.3184V97.1006C174.726 97.9014 174.735 98.873 174.755 100.016C174.774 101.148 174.804 101.861 174.843 102.154C174.882 102.447 174.96 102.657 175.077 102.784C175.194 102.901 175.424 102.989 175.766 103.048C176.117 103.106 176.703 103.146 177.523 103.165L177.641 103.268V104L177.523 104.117C177.475 104.117 176.835 104.098 175.604 104.059C174.472 104.02 173.7 104 173.29 104C173.026 104 171.64 104.039 169.13 104.117L169.013 104V103.268L169.13 103.165C169.989 103.146 170.585 103.106 170.917 103.048C171.259 102.979 171.483 102.887 171.591 102.77C171.698 102.652 171.771 102.452 171.811 102.169C171.85 101.876 171.879 101.134 171.898 99.9424C171.918 98.7412 171.928 97.7939 171.928 97.1006L171.942 86.1729L171.649 86.0703C170.8 87.3105 168.827 90.2939 165.731 95.0205L159.843 104.117C159.013 104.039 158.051 104 156.957 104C156.195 104 155.282 104.039 154.218 104.117L154.101 104ZM180.137 83.3018C182.628 83.3799 184.024 83.4189 184.327 83.4189C184.649 83.4189 186.05 83.3799 188.531 83.3018L188.648 83.4043V84.1367L188.531 84.2393C187.857 84.2588 187.335 84.2881 186.963 84.3271C186.602 84.3662 186.338 84.4395 186.172 84.5469C186.006 84.6543 185.894 84.9082 185.836 85.3086C185.787 85.6992 185.762 86.2461 185.762 86.9492L185.733 90.3184V92.3691C187.872 92.4277 189.898 92.457 191.812 92.457C194.429 92.457 196.421 92.4277 197.789 92.3691V90.3184L197.759 87.4619C197.75 86.3486 197.72 85.6309 197.671 85.3086C197.623 84.9863 197.554 84.7715 197.466 84.6641C197.379 84.5566 197.203 84.4688 196.939 84.4004C196.675 84.332 196.021 84.2783 194.976 84.2393L194.874 84.1367V83.4043L194.976 83.3018C197.476 83.3799 198.878 83.4189 199.18 83.4189C199.512 83.4189 200.914 83.3799 203.384 83.3018L203.502 83.4043V84.1367L203.384 84.2393C202.701 84.2588 202.173 84.2881 201.802 84.3271C201.441 84.3662 201.177 84.4395 201.011 84.5469C200.845 84.6543 200.738 84.9082 200.689 85.3086C200.64 85.6992 200.611 86.2461 200.601 86.9492L200.572 90.3184V97.1006L200.601 99.957C200.611 101.061 200.64 101.773 200.689 102.096C200.738 102.418 200.806 102.633 200.894 102.74C200.992 102.848 201.168 102.94 201.421 103.019C201.685 103.087 202.339 103.141 203.384 103.18L203.502 103.268V104L203.384 104.117C200.884 104.039 199.483 104 199.18 104C198.868 104 197.466 104.039 194.976 104.117L194.874 104V103.268L194.976 103.18C195.894 103.141 196.504 103.092 196.807 103.033C197.11 102.975 197.31 102.901 197.408 102.813C197.505 102.716 197.588 102.516 197.657 102.213C197.725 101.91 197.759 101.236 197.759 100.191L197.789 97.1006V93.7607C194.898 93.7021 192.872 93.6729 191.71 93.6729C190.518 93.6729 188.526 93.7021 185.733 93.7607V97.1006L185.748 99.957C185.757 101.061 185.787 101.773 185.836 102.096C185.884 102.418 185.953 102.633 186.041 102.74C186.138 102.848 186.319 102.94 186.583 103.019C186.846 103.087 187.496 103.141 188.531 103.18L188.648 103.268V104L188.531 104.117C186.041 104.039 184.639 104 184.327 104C184.024 104 182.628 104.039 180.137 104.117L180.02 104V103.268L180.137 103.18C181.046 103.141 181.651 103.092 181.954 103.033C182.256 102.975 182.457 102.901 182.554 102.813C182.662 102.716 182.745 102.516 182.803 102.213C182.872 101.91 182.911 101.236 182.921 100.191L182.935 97.1006V90.3184L182.906 87.4619C182.896 86.3486 182.867 85.6309 182.818 85.3086C182.779 84.9863 182.711 84.7715 182.613 84.6641C182.525 84.5566 182.349 84.4688 182.086 84.4004C181.822 84.332 181.172 84.2783 180.137 84.2393L180.02 84.1367V83.4043L180.137 83.3018ZM211.594 93.3945L212.942 92.252C213.244 91.998 213.601 91.6758 214.011 91.2852L215.271 90.0693L218.537 86.8027C219.953 85.3867 220.73 84.5713 220.866 84.3564V83.4189L221.013 83.3018C221.804 83.3408 222.468 83.3604 223.005 83.3604L225.759 83.3164L225.905 83.4482V84.1221L225.788 84.2539C224.909 84.2637 224.25 84.3174 223.811 84.415C223.381 84.5029 222.927 84.7031 222.448 85.0156C221.97 85.3184 221.14 86.002 219.958 87.0664L214.084 92.3838L223.152 100.895C224.499 102.154 225.28 102.853 225.495 102.989C225.72 103.126 226.086 103.199 226.594 103.209L226.696 103.326V103.941L226.594 104.059C224.826 104.02 223.762 103.976 223.401 103.927C223.039 103.878 222.673 103.761 222.302 103.575C221.941 103.39 218.371 100.191 211.594 93.9805V97.1006L211.609 99.9717C211.618 101.065 211.648 101.778 211.696 102.11C211.745 102.433 211.814 102.647 211.902 102.755C211.999 102.853 212.175 102.94 212.429 103.019C212.693 103.087 213.352 103.141 214.406 103.18L214.509 103.268V104L214.406 104.117C214.27 104.117 213.405 104.088 211.814 104.029C211.111 104.01 210.569 104 210.188 104C210.031 104 208.635 104.039 205.998 104.117L205.881 104V103.268L205.998 103.18C207.346 103.131 208.127 103.028 208.342 102.872C208.557 102.716 208.679 102.413 208.708 101.964C208.747 101.505 208.777 99.8838 208.796 97.1006V90.3184L208.767 87.4473C208.767 86.3438 208.742 85.6309 208.694 85.3086C208.645 84.9863 208.571 84.7715 208.474 84.6641C208.386 84.5566 208.21 84.4688 207.946 84.4004C207.693 84.332 207.043 84.2783 205.998 84.2393L205.881 84.1367V83.4043L205.998 83.3018C208.41 83.3799 209.807 83.4189 210.188 83.4189C210.608 83.4189 212.014 83.3799 214.406 83.3018L214.509 83.4043V84.1367L214.406 84.2393C213.449 84.2686 212.824 84.3174 212.531 84.3857C212.248 84.4443 212.058 84.5225 211.96 84.6201C211.863 84.7178 211.779 84.918 211.711 85.2207C211.653 85.5234 211.618 86.1875 211.609 87.2129L211.594 90.3184V93.3945ZM228.578 104V103.268L228.695 103.18C229.554 103.15 230.15 103.106 230.482 103.048C230.824 102.989 231.049 102.896 231.156 102.77C231.263 102.643 231.337 102.438 231.376 102.154C231.415 101.861 231.444 101.134 231.464 99.9717C231.483 98.7998 231.493 97.8428 231.493 97.1006V90.3184C231.493 89.3027 231.478 88.2236 231.449 87.0811C231.429 85.9385 231.39 85.2646 231.332 85.0596C231.283 84.8447 231.205 84.6934 231.097 84.6055C231 84.5078 230.795 84.4297 230.482 84.3711C230.179 84.3125 229.584 84.2686 228.695 84.2393L228.578 84.1367V83.4043L228.695 83.3018C228.744 83.3018 229.384 83.3213 230.614 83.3604C231.776 83.3994 232.548 83.4189 232.929 83.4189C233.163 83.4189 234.55 83.3799 237.089 83.3018L237.206 83.4043V84.1367L237.089 84.2393C236.229 84.2686 235.629 84.3125 235.287 84.3711C234.955 84.4297 234.735 84.5225 234.628 84.6494C234.52 84.7666 234.447 84.9668 234.408 85.25C234.369 85.5332 234.34 86.2754 234.32 87.4766C234.301 88.6777 234.291 89.625 234.291 90.3184V101.568L234.511 101.671C236.571 98.7021 238.905 95.167 241.512 91.0654C244.12 86.9639 245.717 84.376 246.303 83.3018C247.328 83.3799 248.28 83.4189 249.159 83.4189C250.155 83.4189 251.102 83.3799 252.001 83.3018L252.118 83.4043V84.1367L252.001 84.2393C251.044 84.2686 250.419 84.3174 250.126 84.3857C249.843 84.4443 249.652 84.5225 249.554 84.6201C249.457 84.7178 249.384 84.8838 249.335 85.1182C249.286 85.3525 249.252 86.0898 249.232 87.3301C249.213 88.5703 249.203 89.5664 249.203 90.3184V97.1006C249.203 97.9014 249.213 98.873 249.232 100.016C249.252 101.148 249.281 101.861 249.32 102.154C249.359 102.447 249.437 102.657 249.554 102.784C249.672 102.901 249.901 102.989 250.243 103.048C250.595 103.106 251.18 103.146 252.001 103.165L252.118 103.268V104L252.001 104.117C251.952 104.117 251.312 104.098 250.082 104.059C248.949 104.02 248.178 104 247.767 104C247.504 104 246.117 104.039 243.607 104.117L243.49 104V103.268L243.607 103.165C244.467 103.146 245.062 103.106 245.394 103.048C245.736 102.979 245.961 102.887 246.068 102.77C246.176 102.652 246.249 102.452 246.288 102.169C246.327 101.876 246.356 101.134 246.376 99.9424C246.395 98.7412 246.405 97.7939 246.405 97.1006L246.42 86.1729L246.127 86.0703C245.277 87.3105 243.304 90.2939 240.209 95.0205L234.32 104.117C233.49 104.039 232.528 104 231.434 104C230.673 104 229.76 104.039 228.695 104.117L228.578 104Z" fill="black"/>
<rect x="268.81" y="78" width="33" height="22" rx="10" fill="url(#paint0_linear_70_69)"/>
<path d="M279.56 101.75H290.56C294.206 101.75 297.704 100.301 300.282 97.7227C302.861 95.1441 304.31 91.6467 304.31 88V85.25H307.06C309.248 85.25 311.346 84.3808 312.893 82.8336C314.44 81.2865 315.31 79.188 315.31 77C315.31 74.812 314.44 72.7135 312.893 71.1664C311.346 69.6192 309.248 68.75 307.06 68.75H304.31V66C304.31 65.2707 304.02 64.5712 303.504 64.0555C302.988 63.5397 302.289 63.25 301.56 63.25H268.56C267.83 63.25 267.131 63.5397 266.615 64.0555C266.099 64.5712 265.81 65.2707 265.81 66V88C265.81 91.6467 267.258 95.1441 269.837 97.7227C272.415 100.301 275.913 101.75 279.56 101.75ZM304.31 74.25H307.06C307.789 74.25 308.488 74.5397 309.004 75.0555C309.52 75.5712 309.81 76.2707 309.81 77C309.81 77.7293 309.52 78.4288 309.004 78.9445C308.488 79.4603 307.789 79.75 307.06 79.75H304.31V74.25ZM271.31 68.75H298.81V88C298.81 90.188 297.94 92.2865 296.393 93.8336C294.846 95.3808 292.748 96.25 290.56 96.25H279.56C277.372 96.25 275.273 95.3808 273.726 93.8336C272.179 92.2865 271.31 90.188 271.31 88V68.75ZM312.56 107.25H263.06C262.33 107.25 261.631 107.54 261.115 108.055C260.599 108.571 260.31 109.271 260.31 110C260.31 110.729 260.599 111.429 261.115 111.945C261.631 112.46 262.33 112.75 263.06 112.75H312.56C313.289 112.75 313.988 112.46 314.504 111.945C315.02 111.429 315.31 110.729 315.31 110C315.31 109.271 315.02 108.571 314.504 108.055C313.988 107.54 313.289 107.25 312.56 107.25Z" fill="#330000"/>
<path d="M280.03 86.36C280.803 86.5867 281.45 86.6533 281.97 86.56C282.503 86.4533 282.976 86.08 283.39 85.44L284.07 84.42L284.37 84.08L289.01 75H292.19L286.23 86.08C285.696 87.08 285.063 87.8467 284.33 88.38C283.61 88.9133 282.816 89.2133 281.95 89.28C281.083 89.36 280.183 89.2067 279.25 88.82L280.03 86.36ZM284.31 86.78L277.99 75H281.45L286.09 84.4L284.31 86.78Z" fill="#330000"/>
<rect width="33" height="22" rx="10" transform="matrix(-1 0 0 1 66.8096 78)" fill="url(#paint1_linear_70_69)"/>
<path d="M56.0596 101.75H45.0596C41.4128 101.75 37.9155 100.301 35.3368 97.7227C32.7582 95.1441 31.3096 91.6467 31.3096 88V85.25H28.5596C26.3715 85.25 24.2731 84.3808 22.7259 82.8336C21.1788 81.2865 20.3096 79.188 20.3096 77C20.3096 74.812 21.1788 72.7135 22.7259 71.1664C24.2731 69.6192 26.3715 68.75 28.5596 68.75H31.3096V66C31.3096 65.2707 31.5993 64.5712 32.115 64.0555C32.6307 63.5397 33.3302 63.25 34.0596 63.25H67.0596C67.7889 63.25 68.4884 63.5397 69.0041 64.0555C69.5198 64.5712 69.8096 65.2707 69.8096 66V88C69.8096 91.6467 68.3609 95.1441 65.7823 97.7227C63.2037 100.301 59.7063 101.75 56.0596 101.75ZM31.3096 74.25H28.5596C27.8302 74.25 27.1307 74.5397 26.615 75.0555C26.0993 75.5712 25.8096 76.2707 25.8096 77C25.8096 77.7293 26.0993 78.4288 26.615 78.9445C27.1307 79.4603 27.8302 79.75 28.5596 79.75H31.3096V74.25ZM64.3096 68.75H36.8096V88C36.8096 90.188 37.6788 92.2865 39.2259 93.8336C40.7731 95.3808 42.8715 96.25 45.0596 96.25H56.0596C58.2476 96.25 60.346 95.3808 61.8932 93.8336C63.4404 92.2865 64.3096 90.188 64.3096 88V68.75ZM23.0596 107.25H72.5596C73.2889 107.25 73.9884 107.54 74.5041 108.055C75.0198 108.571 75.3096 109.271 75.3096 110C75.3096 110.729 75.0198 111.429 74.5041 111.945C73.9884 112.46 73.2889 112.75 72.5596 112.75H23.0596C22.3302 112.75 21.6307 112.46 21.115 111.945C20.5993 111.429 20.3096 110.729 20.3096 110C20.3096 109.271 20.5993 108.571 21.115 108.055C21.6307 107.54 22.3302 107.25 23.0596 107.25Z" fill="#330000"/>
<path d="M46.0296 86.36C46.8029 86.5867 47.4496 86.6533 47.9696 86.56C48.5029 86.4533 48.9762 86.08 49.3896 85.44L50.0696 84.42L50.3696 84.08L55.0096 75H58.1896L52.2296 86.08C51.6962 87.08 51.0629 87.8467 50.3296 88.38C49.6096 88.9133 48.8162 89.2133 47.9496 89.28C47.0829 89.36 46.1829 89.2067 45.2496 88.82L46.0296 86.36ZM50.3096 86.78L43.9896 75H47.4496L52.0896 84.4L50.3096 86.78Z" fill="#330000"/>
<path d="M41.8096 110H285.81" stroke="#330000" stroke-width="5"/>
<line x1="5.33447" y1="112.472" x2="5.33447" y2="55.1028" stroke="#330000" stroke-width="10"/>
<path d="M2.30957 59.5L168.931 5.36616" stroke="#330000" stroke-width="10"/>
<line y1="-5" x2="57.3696" y2="-5" transform="matrix(0 -1 -1 0 324.716 112.106)" stroke="#330000" stroke-width="10"/>
<path d="M332.741 59.1339L166.119 5.00001" stroke="#330000" stroke-width="10"/>
<defs>
<linearGradient id="paint0_linear_70_69" x1="285.31" y1="96.5" x2="285.31" y2="78" gradientUnits="userSpaceOnUse">
<stop stop-color="#FF894B"/>
<stop offset="1" stop-color="#FF894B" stop-opacity="0"/>
</linearGradient>
<linearGradient id="paint1_linear_70_69" x1="16.5" y1="18" x2="16.5" y2="0" gradientUnits="userSpaceOnUse">
<stop stop-color="#FF894B"/>
<stop offset="1" stop-color="#FF9999" stop-opacity="0.06"/>
</linearGradient>
</defs>
</svg>
