<svg width="306" height="86" viewBox="0 0 306 86" fill="none" xmlns="http://www.w3.org/2000/svg">
<path d="M79.8365 45.9268V45.2236L79.9537 45.1064C80.608 45.0967 81.0475 45.0381 81.2721 44.9307C81.4967 44.8135 81.7848 44.5352 82.1363 44.0957C82.4879 43.6465 83.1764 42.709 84.2018 41.2832L88.2008 35.7314L85.608 31.3223C85.4127 30.9902 84.983 30.3506 84.3189 29.4033C83.6646 28.4463 83.1471 27.7822 82.7662 27.4111C82.3951 27.04 82.1168 26.8252 81.9313 26.7666C81.7457 26.708 81.233 26.6787 80.3932 26.6787L80.2613 26.5469V25.9316L80.3932 25.7998L84.5387 25.1113C84.9 25.3457 85.2857 25.7363 85.6959 26.2832C86.1158 26.8203 86.7213 27.7725 87.5123 29.1396L89.9732 33.417L95.5689 25.2432C96.399 25.2725 96.902 25.2871 97.0777 25.2871C97.1559 25.2871 97.61 25.2725 98.44 25.2432L98.5572 25.375V26.0342L98.44 26.1514C97.8248 26.1807 97.4146 26.2393 97.2096 26.3271C97.0143 26.4053 96.7555 26.6104 96.4332 26.9424C96.1207 27.2744 95.4762 28.0996 94.4996 29.418L91.775 33.1094L90.6764 34.5742L95.6422 42.6016C96.1109 43.3633 96.4869 43.9346 96.7701 44.3154C97.0631 44.6865 97.2975 44.9111 97.4732 44.9893C97.649 45.0576 98.0494 45.0967 98.6744 45.1064L98.7916 45.2236V45.9414L98.6744 46.0586C97.7467 46.0195 97.0924 46 96.7115 46C96.2135 46 95.4615 46.0195 94.4557 46.0586C93.8697 45.1895 93.3277 44.3252 92.8297 43.4658L88.9771 36.8887L87.9078 38.3682C86.5016 40.3018 84.8463 42.8652 82.942 46.0586C82.3072 46.0195 81.8092 46 81.4479 46C81.0768 46 80.5836 46.0195 79.9684 46.0586L79.8365 45.9268ZM116.083 38.6172C116.083 39.8477 115.883 40.9561 115.483 41.9424C115.092 42.9287 114.521 43.7783 113.769 44.4912C113.027 45.1943 112.255 45.6924 111.454 45.9854C110.663 46.2686 109.731 46.4102 108.656 46.4102C106.254 46.4102 104.423 45.7217 103.163 44.3447C101.913 42.9678 101.288 41.249 101.288 39.1885C101.288 37.7725 101.591 36.5127 102.196 35.4092C102.802 34.3057 103.676 33.4609 104.819 32.875C105.971 32.2891 107.319 31.9961 108.862 31.9961C110.365 31.9961 111.65 32.2793 112.714 32.8457C113.779 33.4023 114.604 34.1934 115.19 35.2188C115.785 36.2344 116.083 37.3672 116.083 38.6172ZM113.256 39.4814C113.256 37.5283 112.851 35.9609 112.04 34.7793C111.239 33.5977 110.063 33.0068 108.51 33.0068C107.211 33.0068 106.152 33.4658 105.331 34.3838C104.511 35.292 104.101 36.6689 104.101 38.5146C104.101 40.4092 104.511 42.0449 105.331 43.4219C106.161 44.7891 107.353 45.4727 108.905 45.4727C110.263 45.4727 111.327 44.9307 112.099 43.8467C112.87 42.7529 113.256 41.2979 113.256 39.4814ZM117.979 45.3848L118.096 45.2822C118.604 45.2432 119.01 45.1406 119.312 44.9746C119.625 44.7988 120.054 44.3789 120.601 43.7148C121.148 43.0508 121.978 41.9814 123.092 40.5068L126.124 36.4492C127.032 35.2285 127.54 34.5205 127.647 34.3252C127.764 34.1201 127.823 33.9639 127.823 33.8564C127.823 33.6318 127.716 33.4902 127.501 33.4316C127.286 33.3633 126.554 33.2754 125.304 33.168L125.201 33.0508V32.4355L125.304 32.333C126.241 32.4111 127.349 32.4502 128.629 32.4502C129.771 32.4502 130.811 32.4111 131.749 32.333L131.866 32.4355C131.798 34.0957 131.763 35.8535 131.763 37.709V40.5508C131.763 42.8457 131.837 44.1689 131.983 44.5205C132.139 44.8721 132.784 45.126 133.917 45.2822L134.034 45.3848V46L133.917 46.1172C132.559 46.0391 131.431 46 130.533 46C129.635 46 128.507 46.0391 127.149 46.1172L127.047 46V45.3848L127.149 45.2822C127.745 45.1943 128.179 45.0967 128.453 44.9893C128.736 44.8818 128.927 44.7598 129.024 44.623C129.122 44.4766 129.18 44.3008 129.2 44.0957C129.22 43.8906 129.244 43.3682 129.273 42.5283C129.303 41.6787 129.317 41.0195 129.317 40.5508V33.8857H129.097L125.699 38.7197L123.062 42.499C122.388 43.4756 122.027 44.0371 121.978 44.1836C121.929 44.3203 121.905 44.4326 121.905 44.5205C121.905 44.7451 122.017 44.9111 122.242 45.0186C122.476 45.1162 122.994 45.2041 123.795 45.2822L123.912 45.3848V46L123.795 46.1172C122.633 46.0391 121.68 46 120.938 46C120.264 46 119.317 46.0391 118.096 46.1172L117.979 46V45.3848ZM151.897 38.6172C151.897 39.8477 151.697 40.9561 151.296 41.9424C150.906 42.9287 150.334 43.7783 149.582 44.4912C148.84 45.1943 148.069 45.6924 147.268 45.9854C146.477 46.2686 145.544 46.4102 144.47 46.4102C142.068 46.4102 140.237 45.7217 138.977 44.3447C137.727 42.9678 137.102 41.249 137.102 39.1885C137.102 37.7725 137.405 36.5127 138.01 35.4092C138.616 34.3057 139.49 33.4609 140.632 32.875C141.785 32.2891 143.132 31.9961 144.675 31.9961C146.179 31.9961 147.463 32.2793 148.528 32.8457C149.592 33.4023 150.417 34.1934 151.003 35.2188C151.599 36.2344 151.897 37.3672 151.897 38.6172ZM149.07 39.4814C149.07 37.5283 148.664 35.9609 147.854 34.7793C147.053 33.5977 145.876 33.0068 144.324 33.0068C143.025 33.0068 141.965 33.4658 141.145 34.3838C140.325 35.292 139.914 36.6689 139.914 38.5146C139.914 40.4092 140.325 42.0449 141.145 43.4219C141.975 44.7891 143.166 45.4727 144.719 45.4727C146.077 45.4727 147.141 44.9307 147.913 43.8467C148.684 42.7529 149.07 41.2979 149.07 39.4814ZM160.736 33.0508V32.4355L160.839 32.333C161.786 32.4111 162.86 32.4502 164.062 32.4502C165.106 32.4502 166.103 32.4111 167.05 32.333L167.167 32.4355C167.128 33.168 167.108 35.2627 167.108 38.7197C167.108 40.1357 167.094 42.2158 167.064 44.96L167.167 45.0771C168.046 45.0674 168.905 45.0186 169.745 44.9307L169.936 45.1211C169.477 46.5566 169.032 48.3389 168.603 50.4678H167.973C167.973 50.0186 167.948 49.3203 167.899 48.373C167.86 47.4258 167.792 46.8594 167.694 46.6738C167.606 46.4883 167.421 46.332 167.138 46.2051C166.854 46.0879 166.273 46.0293 165.395 46.0293H164.911L161.059 46C160.316 46 159.433 46.0146 158.407 46.0439C157.382 46.083 156.771 46.1318 156.576 46.1904C156.391 46.249 156.239 46.3564 156.122 46.5127C156.005 46.6689 155.922 46.9229 155.873 47.2744C155.834 47.626 155.814 48.4219 155.814 49.6621C155.814 49.8867 155.819 50.1553 155.829 50.4678H155.199C154.77 48.1533 154.301 46.3027 153.793 44.916L153.983 44.7109C154.667 44.8184 155.238 44.8867 155.697 44.916L160.531 38.1631C162.201 35.8389 163.09 34.5596 163.197 34.3252C163.314 34.0908 163.373 33.915 163.373 33.7979C163.373 33.5244 163.144 33.373 162.685 33.3438L160.839 33.168L160.736 33.0508ZM164.472 34.0469C161.288 38.6758 158.842 42.3525 157.133 45.0771H164.765L164.735 39.6133C164.726 36.9375 164.706 35.082 164.677 34.0469H164.472ZM176.299 38.3682C178.096 38.4072 179.337 38.4268 180.02 38.4268C180.811 38.4268 182.037 38.4072 183.697 38.3682V37.9727C183.697 37.25 183.687 36.4102 183.668 35.4531C183.648 34.4961 183.585 33.9248 183.477 33.7393C183.379 33.5439 183.248 33.417 183.082 33.3584C182.925 33.29 182.486 33.2266 181.763 33.168L181.646 33.0508V32.4355L181.763 32.333C182.74 32.4111 183.77 32.4502 184.854 32.4502C185.987 32.4502 187.017 32.4111 187.945 32.333L188.062 32.4355V33.0508L187.945 33.168C187.213 33.2363 186.763 33.3047 186.597 33.373C186.441 33.4316 186.314 33.5586 186.216 33.7539C186.119 33.9395 186.06 34.4131 186.041 35.1748C186.021 35.9268 186.011 36.8594 186.011 37.9727V40.4629L186.041 43.0264C186.06 43.9736 186.119 44.54 186.216 44.7256C186.324 44.9111 186.461 45.0332 186.627 45.0918C186.793 45.1504 187.232 45.2139 187.945 45.2822L188.062 45.3848V46L187.945 46.1172C186.968 46.0391 185.938 46 184.854 46C183.721 46 182.691 46.0391 181.763 46.1172L181.646 46V45.3848L181.763 45.2822C182.496 45.2139 182.94 45.1504 183.096 45.0918C183.262 45.0234 183.394 44.8965 183.492 44.7109C183.589 44.5254 183.648 44.0762 183.668 43.3633C183.687 42.6406 183.697 41.6738 183.697 40.4629V39.291C182.613 39.2617 181.387 39.2471 180.02 39.2471C178.78 39.2471 177.54 39.2617 176.299 39.291V40.4629C176.299 41.2344 176.309 42.0938 176.329 43.041C176.348 43.9785 176.407 44.54 176.504 44.7256C176.612 44.9111 176.749 45.0332 176.915 45.0918C177.081 45.1504 177.52 45.2139 178.233 45.2822L178.35 45.3848V46L178.233 46.1172C177.256 46.0391 176.226 46 175.142 46C174 46 172.969 46.0391 172.051 46.1172L171.934 46V45.3848L172.051 45.2822C172.784 45.2139 173.228 45.1504 173.384 45.0918C173.541 45.0234 173.668 44.8965 173.765 44.7109C173.873 44.5254 173.936 44.0762 173.956 43.3633C173.975 42.6504 173.985 41.6836 173.985 40.4629V37.9727C173.985 37.2109 173.975 36.3613 173.956 35.4238C173.936 34.4766 173.873 33.9102 173.765 33.7246C173.658 33.5391 173.521 33.417 173.355 33.3584C173.199 33.29 172.764 33.2266 172.051 33.168L171.934 33.0508V32.4355L172.051 32.333C173.018 32.4111 174.048 32.4502 175.142 32.4502C176.275 32.4502 177.305 32.4111 178.233 32.333L178.35 32.4355V33.0508L178.233 33.168C177.501 33.2363 177.051 33.2998 176.885 33.3584C176.729 33.417 176.602 33.5439 176.504 33.7393C176.407 33.9248 176.348 34.374 176.329 35.0869C176.309 35.79 176.299 36.752 176.299 37.9727V38.3682ZM190.822 46V45.3848L190.94 45.2822C191.526 45.1943 191.96 45.0967 192.243 44.9893C192.527 44.8818 192.712 44.7598 192.8 44.623C192.898 44.4766 192.956 44.3008 192.976 44.0957C193.005 43.8906 193.029 43.3633 193.049 42.5137C193.078 41.6543 193.093 41 193.093 40.5508V37.8994C193.093 35.5947 193.015 34.2666 192.859 33.915C192.712 33.5635 192.072 33.3145 190.94 33.168L190.822 33.0508V32.4355L190.94 32.333C192.297 32.4111 193.425 32.4502 194.323 32.4502C195.193 32.4502 196.321 32.4111 197.707 32.333L197.81 32.4355V33.0508L197.707 33.168C197.082 33.2559 196.643 33.3535 196.389 33.4609C196.145 33.5586 195.974 33.666 195.876 33.7832C195.779 33.8906 195.715 34.0273 195.686 34.1934C195.656 34.3594 195.622 34.8916 195.583 35.79C195.554 36.6787 195.539 37.3818 195.539 37.8994V38.1484C196.389 38.0996 197.175 38.0752 197.898 38.0752C199.167 38.0752 200.134 38.1973 200.798 38.4414C201.472 38.6758 202.004 39.0957 202.395 39.7012C202.785 40.3066 202.981 41.0098 202.981 41.8105C202.981 42.7285 202.737 43.5293 202.248 44.2129C201.76 44.8965 201.164 45.3848 200.461 45.6777C199.768 45.9707 198.845 46.1172 197.693 46.1172C197.39 46.1172 196.814 46.0977 195.964 46.0586C195.241 46.0195 194.695 46 194.323 46C193.415 46 192.287 46.0391 190.94 46.1172L190.822 46ZM195.539 38.8369V41.5029C195.559 42.958 195.578 43.8906 195.598 44.3008C195.627 44.7109 195.71 44.9893 195.847 45.1357C195.993 45.2822 196.306 45.3555 196.784 45.3555C197.956 45.3555 198.84 45.0088 199.436 44.3154C200.041 43.6221 200.344 42.7236 200.344 41.6201C200.344 41.0146 200.237 40.502 200.022 40.082C199.817 39.6621 199.494 39.3447 199.055 39.1299C198.625 38.915 197.995 38.8076 197.165 38.8076C196.775 38.8076 196.233 38.8174 195.539 38.8369ZM203.274 33.0508V32.4355L203.391 32.333C204.748 32.4111 205.876 32.4502 206.775 32.4502C207.683 32.4502 208.811 32.4111 210.158 32.333L210.276 32.4355V33.0508L210.158 33.168C209.572 33.2461 209.138 33.3389 208.855 33.4463C208.571 33.5537 208.381 33.6807 208.283 33.8271C208.196 33.9639 208.137 34.1348 208.108 34.3398C208.088 34.5449 208.064 35.0723 208.034 35.9219C208.015 36.7715 208.005 37.4307 208.005 37.8994V40.5508C208.005 42.8555 208.078 44.1836 208.225 44.5352C208.381 44.877 209.026 45.126 210.158 45.2822L210.276 45.3848V46L210.158 46.1172C208.801 46.0391 207.673 46 206.775 46C205.866 46 204.738 46.0391 203.391 46.1172L203.274 46V45.3848L203.391 45.2822C204.533 45.126 205.178 44.8672 205.324 44.5059C205.481 44.1445 205.559 42.8262 205.559 40.5508V37.8994C205.559 35.6045 205.481 34.2812 205.324 33.9297C205.168 33.5684 204.524 33.3145 203.391 33.168L203.274 33.0508ZM225.282 43.8467L224.813 44.9014C223.798 45.5557 222.889 45.9805 222.089 46.1758C221.298 46.3711 220.59 46.4688 219.965 46.4688C218.793 46.4688 217.68 46.2393 216.625 45.7803C215.58 45.3213 214.725 44.5449 214.061 43.4512C213.407 42.3574 213.08 41.0391 213.08 39.4961C213.08 38.4707 213.207 37.5479 213.461 36.7275C213.715 35.8975 213.978 35.2822 214.252 34.8818C214.535 34.4814 215.009 34.0371 215.673 33.5488C216.337 33.0605 217.04 32.6699 217.782 32.377C218.524 32.084 219.325 31.9375 220.184 31.9375C221.356 31.9375 222.387 32.2158 223.275 32.7725C224.174 33.3193 224.804 34.0225 225.165 34.8818C225.526 35.7412 225.707 36.6543 225.707 37.6211C225.707 37.9238 225.692 38.2168 225.663 38.5L225.502 38.6611C224.838 38.8076 223.944 38.9053 222.821 38.9541C221.698 39.0029 220.956 39.0273 220.595 39.0273H215.892C215.912 41.0488 216.42 42.5381 217.416 43.4951C218.412 44.4521 219.633 44.9307 221.078 44.9307C221.762 44.9307 222.416 44.8135 223.041 44.5791C223.676 44.3447 224.345 44.0176 225.048 43.5977L225.282 43.8467ZM215.892 37.8555C216.068 37.8848 216.742 37.9189 217.914 37.958C219.096 37.9971 219.97 38.0166 220.536 38.0166C221.893 38.0166 222.719 37.9922 223.012 37.9434C223.021 37.709 223.026 37.5283 223.026 37.4014C223.026 35.8877 222.719 34.7646 222.103 34.0322C221.488 33.29 220.648 32.9189 219.584 32.9189C218.422 32.9189 217.513 33.334 216.859 34.1641C216.215 34.9941 215.892 36.2246 215.892 37.8555ZM96.1613 70.3682C97.9582 70.4072 99.1984 70.4268 99.882 70.4268C100.673 70.4268 101.899 70.4072 103.559 70.3682V69.9727C103.559 69.25 103.549 68.4102 103.529 67.4531C103.51 66.4961 103.446 65.9248 103.339 65.7393C103.241 65.5439 103.11 65.417 102.944 65.3584C102.787 65.29 102.348 65.2266 101.625 65.168L101.508 65.0508V64.4355L101.625 64.333C102.602 64.4111 103.632 64.4502 104.716 64.4502C105.849 64.4502 106.879 64.4111 107.807 64.333L107.924 64.4355V65.0508L107.807 65.168C107.074 65.2363 106.625 65.3047 106.459 65.373C106.303 65.4316 106.176 65.5586 106.078 65.7539C105.981 65.9395 105.922 66.4131 105.903 67.1748C105.883 67.9268 105.873 68.8594 105.873 69.9727V72.4629L105.903 75.0264C105.922 75.9736 105.981 76.54 106.078 76.7256C106.186 76.9111 106.322 77.0332 106.488 77.0918C106.654 77.1504 107.094 77.2139 107.807 77.2822L107.924 77.3848V78L107.807 78.1172C106.83 78.0391 105.8 78 104.716 78C103.583 78 102.553 78.0391 101.625 78.1172L101.508 78V77.3848L101.625 77.2822C102.358 77.2139 102.802 77.1504 102.958 77.0918C103.124 77.0234 103.256 76.8965 103.354 76.7109C103.451 76.5254 103.51 76.0762 103.529 75.3633C103.549 74.6406 103.559 73.6738 103.559 72.4629V71.291C102.475 71.2617 101.249 71.2471 99.882 71.2471C98.6418 71.2471 97.4016 71.2617 96.1613 71.291V72.4629C96.1613 73.2344 96.1711 74.0938 96.1906 75.041C96.2102 75.9785 96.2687 76.54 96.3664 76.7256C96.4738 76.9111 96.6105 77.0332 96.7766 77.0918C96.9426 77.1504 97.382 77.2139 98.0949 77.2822L98.2121 77.3848V78L98.0949 78.1172C97.1184 78.0391 96.0881 78 95.0041 78C93.8615 78 92.8312 78.0391 91.9133 78.1172L91.7961 78V77.3848L91.9133 77.2822C92.6457 77.2139 93.09 77.1504 93.2463 77.0918C93.4025 77.0234 93.5295 76.8965 93.6271 76.7109C93.7346 76.5254 93.798 76.0762 93.8176 75.3633C93.8371 74.6504 93.8469 73.6836 93.8469 72.4629V69.9727C93.8469 69.2109 93.8371 68.3613 93.8176 67.4238C93.798 66.4766 93.7346 65.9102 93.6271 65.7246C93.5197 65.5391 93.383 65.417 93.217 65.3584C93.0607 65.29 92.6262 65.2266 91.9133 65.168L91.7961 65.0508V64.4355L91.9133 64.333C92.8801 64.4111 93.9104 64.4502 95.0041 64.4502C96.1369 64.4502 97.1672 64.4111 98.0949 64.333L98.2121 64.4355V65.0508L98.0949 65.168C97.3625 65.2363 96.9133 65.2998 96.7473 65.3584C96.591 65.417 96.4641 65.5439 96.3664 65.7393C96.2687 65.9248 96.2102 66.374 96.1906 67.0869C96.1711 67.79 96.1613 68.752 96.1613 69.9727V70.3682ZM112.633 68.0684L112.061 67.9219L111.944 67.7754C111.954 67.6191 111.959 67.4189 111.959 67.1748L111.944 65.959C112.999 65.2754 113.892 64.7822 114.625 64.4795C115.357 64.1768 116.153 64.0254 117.012 64.0254C118.526 64.0254 119.722 64.4209 120.601 65.2119C121.48 66.0029 121.92 67.0771 121.92 68.4346L121.846 71.3789V75.7441C121.846 76.2715 121.89 76.6182 121.978 76.7842C122.066 76.9502 122.183 77.0625 122.33 77.1211C122.486 77.1797 122.804 77.2285 123.282 77.2676L123.399 77.3994V77.9854L123.282 78.1025C122.52 78.0342 121.925 78 121.495 78C121.085 78 120.45 78.0342 119.591 78.1025L119.371 77.8975L119.429 75.5391L117.554 77.0039C116.9 77.5215 116.461 77.8633 116.236 78.0293C115.699 78.2539 115.113 78.3662 114.478 78.3662C113.316 78.3662 112.398 78.0586 111.724 77.4434C111.06 76.8184 110.728 75.9736 110.728 74.9092C110.728 73.8057 111.016 72.9072 111.593 72.2139C112.169 71.5107 113.038 70.9639 114.2 70.5732C115.372 70.1729 117.115 69.8115 119.429 69.4893C119.429 68.8838 119.386 68.3662 119.298 67.9365C119.22 67.5068 119.019 67.1016 118.697 66.7207C118.385 66.3301 117.984 66.0371 117.496 65.8418C117.017 65.6465 116.475 65.5488 115.87 65.5488C115.548 65.5488 115.235 65.5781 114.932 65.6367C114.63 65.6855 114.346 65.7686 114.083 65.8857C113.819 66.0029 113.658 66.0859 113.599 66.1348C113.541 66.1836 113.487 66.2715 113.438 66.3984C113.409 66.457 113.302 66.6914 113.116 67.1016C112.97 67.4141 112.847 67.7119 112.75 67.9951L112.633 68.0684ZM119.429 70.3389C117.174 70.7002 115.587 71.1494 114.669 71.6865C113.761 72.2139 113.306 73.0684 113.306 74.25C113.306 75.0117 113.507 75.5928 113.907 75.9932C114.317 76.3936 114.874 76.5938 115.577 76.5938C116.876 76.5938 118.16 75.8418 119.429 74.3379V70.3389ZM126.584 78V77.3848L126.702 77.2822C127.287 77.1943 127.722 77.0967 128.005 76.9893C128.288 76.8818 128.474 76.7598 128.562 76.623C128.66 76.4766 128.718 76.3008 128.738 76.0957C128.767 75.8906 128.791 75.3633 128.811 74.5137C128.84 73.6543 128.855 73 128.855 72.5508V69.8994C128.855 67.5947 128.777 66.2666 128.621 65.915C128.474 65.5635 127.834 65.3145 126.702 65.168L126.584 65.0508V64.4355L126.702 64.333C129.641 64.4111 132.395 64.4502 134.963 64.4502C137.366 64.4502 140.124 64.4111 143.24 64.333L143.342 64.4355V65.0508L143.24 65.168C142.615 65.2559 142.175 65.3535 141.921 65.4609C141.667 65.5586 141.492 65.666 141.394 65.7832C141.306 65.8906 141.247 66.0273 141.218 66.1934C141.189 66.3594 141.155 66.8867 141.116 67.7754C141.086 68.6543 141.072 69.3623 141.072 69.8994V72.5508C141.072 74.8555 141.15 76.1836 141.306 76.5352C141.462 76.877 142.107 77.126 143.24 77.2822L143.342 77.3848V78L143.24 78.1172C141.872 78.0391 140.74 78 139.841 78C138.972 78 137.844 78.0391 136.457 78.1172L136.355 78V77.3848L136.457 77.2822C137.61 77.126 138.259 76.8672 138.406 76.5059C138.552 76.1445 138.625 74.8262 138.625 72.5508V65.4756L138.508 65.373H131.418L131.301 65.4756V72.5508C131.301 74.8457 131.379 76.1689 131.536 76.5205C131.692 76.8721 132.336 77.126 133.469 77.2822L133.572 77.3848V78L133.469 78.1172C132.102 78.0391 130.974 78 130.085 78C129.177 78 128.049 78.0391 126.702 78.1172L126.584 78ZM146.557 78V77.3848L146.674 77.2822C147.26 77.1943 147.694 77.0967 147.978 76.9893C148.261 76.8818 148.446 76.7598 148.534 76.623C148.632 76.4766 148.69 76.3008 148.71 76.0957C148.739 75.8906 148.764 75.3633 148.783 74.5137C148.812 73.6543 148.827 73 148.827 72.5508V69.8994C148.827 67.5947 148.749 66.2666 148.593 65.915C148.446 65.5635 147.807 65.3145 146.674 65.168L146.557 65.0508V64.4355L146.674 64.333C148.031 64.4111 149.159 64.4502 150.058 64.4502C150.927 64.4502 152.055 64.4111 153.441 64.333L153.544 64.4355V65.0508L153.441 65.168C152.816 65.2559 152.377 65.3535 152.123 65.4609C151.879 65.5586 151.708 65.666 151.61 65.7832C151.513 65.8906 151.449 66.0273 151.42 66.1934C151.391 66.3594 151.356 66.8916 151.317 67.79C151.288 68.6787 151.273 69.3818 151.273 69.8994V75.9492L151.508 76.0371C152.436 74.6504 153.632 72.7119 155.097 70.2217C156.562 67.7217 157.68 65.7588 158.451 64.333C159.369 64.4111 160.136 64.4502 160.751 64.4502C161.386 64.4502 162.167 64.4111 163.095 64.333L163.212 64.4355V65.0508L163.095 65.168C161.952 65.3145 161.308 65.5732 161.161 65.9443C161.015 66.3057 160.941 67.624 160.941 69.8994V72.5508C160.941 74.8457 161.015 76.1689 161.161 76.5205C161.317 76.8721 161.962 77.126 163.095 77.2822L163.212 77.3848V78L163.095 78.1172C161.737 78.0391 160.609 78 159.711 78C158.842 78 157.714 78.0391 156.327 78.1172L156.21 78V77.3848L156.327 77.2822C157.47 77.126 158.114 76.8672 158.261 76.5059C158.417 76.1445 158.495 74.8262 158.495 72.5508V66.5889L158.261 66.501C157.548 67.5557 156.405 69.4404 154.833 72.1553C153.271 74.8701 152.172 76.8574 151.537 78.1172C150.619 78.0391 149.867 78 149.281 78C148.646 78 147.777 78.0391 146.674 78.1172L146.557 78ZM165.811 64.4355L165.928 64.333C167.833 64.4307 169.966 64.4795 172.33 64.4795C174.732 64.4795 176.866 64.4307 178.731 64.333L178.834 64.4355C178.775 65.7246 178.746 66.8135 178.746 67.7021L178.658 67.79H178.072L177.984 67.7021C177.857 66.6475 177.754 66.0273 177.676 65.8418C177.598 65.6465 177.486 65.5195 177.339 65.4609C177.203 65.4023 176.929 65.373 176.519 65.373H173.546L173.487 69.123V72.4629C173.487 73.1855 173.497 74.0303 173.516 74.9971C173.536 75.9541 173.594 76.5254 173.692 76.7109C173.79 76.8965 173.921 77.0234 174.087 77.0918C174.254 77.1504 174.698 77.2139 175.421 77.2822L175.538 77.3848V78L175.421 78.1172C174.444 78.0391 173.414 78 172.33 78C171.197 78 170.167 78.0391 169.239 78.1172L169.122 78V77.3848L169.239 77.2822C169.971 77.2139 170.416 77.1504 170.572 77.0918C170.738 77.0234 170.87 76.8965 170.967 76.7109C171.065 76.5156 171.124 76.042 171.143 75.29C171.163 74.5283 171.172 73.5859 171.172 72.4629V69.167C171.143 67.8975 171.119 66.6328 171.099 65.373H168.126C167.706 65.373 167.422 65.4072 167.276 65.4756C167.139 65.5342 167.032 65.6709 166.954 65.8857C166.885 66.0908 166.788 66.6963 166.661 67.7021L166.573 67.79H166.002L165.899 67.7021C165.899 67.3115 165.87 66.2227 165.811 64.4355ZM181.462 78V77.3848L181.579 77.2822C182.312 77.2139 182.756 77.1504 182.912 77.0918C183.069 77.0234 183.196 76.8965 183.293 76.7109C183.401 76.5254 183.464 76.0762 183.484 75.3633C183.503 74.6504 183.513 73.6836 183.513 72.4629V69.9727C183.513 69.2109 183.503 68.3613 183.484 67.4238C183.464 66.4766 183.401 65.9102 183.293 65.7246C183.186 65.5391 183.049 65.417 182.883 65.3584C182.727 65.29 182.292 65.2266 181.579 65.168L181.462 65.0508V64.4355L181.579 64.333C182.546 64.4111 183.596 64.4502 184.729 64.4502C185.91 64.4502 186.965 64.4111 187.893 64.333L188.01 64.4355V65.0508L187.893 65.168C187.16 65.2363 186.711 65.3047 186.545 65.373C186.389 65.4316 186.262 65.5537 186.164 65.7393C186.076 65.9248 186.018 66.374 185.988 67.0869C185.969 67.7998 185.959 68.7617 185.959 69.9727V70.9395H186.076C187.336 69.8457 188.537 68.7227 189.68 67.5703C190.822 66.4082 191.447 65.7588 191.555 65.6221C191.672 65.4854 191.731 65.3633 191.731 65.2559C191.731 65.1387 191.643 65.0557 191.467 65.0068V64.4355L191.584 64.3184C192.424 64.3965 192.986 64.4355 193.269 64.4355C193.747 64.4355 194.309 64.3965 194.953 64.3184L195.056 64.4355V65.0508L194.953 65.1533C194.319 65.2119 193.772 65.3779 193.313 65.6514C192.854 65.915 191.179 67.3604 188.288 69.9873L194.279 76.2861C194.709 76.7451 194.997 77.0283 195.144 77.1357C195.3 77.2334 195.525 77.2871 195.818 77.2969L195.891 77.3701V78L195.818 78.0879C194.294 78.0391 193.371 77.9707 193.049 77.8828C192.727 77.7949 192.365 77.585 191.965 77.2529C191.574 76.9111 190.915 76.2422 189.988 75.2461C188.103 73.2441 186.799 71.9355 186.076 71.3203H185.959V72.4629C185.959 73.2637 185.969 74.1279 185.988 75.0557C186.008 75.9834 186.067 76.54 186.164 76.7256C186.272 76.9111 186.408 77.0332 186.574 77.0918C186.74 77.1504 187.18 77.2139 187.893 77.2822L188.01 77.3848V78L187.893 78.1172C186.926 78.0391 185.871 78 184.729 78C183.557 78 182.507 78.0391 181.579 78.1172L181.462 78ZM198.095 78V77.3848L198.212 77.2822C198.798 77.1943 199.232 77.0967 199.515 76.9893C199.799 76.8818 199.984 76.7598 200.072 76.623C200.17 76.4766 200.228 76.3008 200.248 76.0957C200.277 75.8906 200.302 75.3633 200.321 74.5137C200.35 73.6543 200.365 73 200.365 72.5508V69.8994C200.365 67.5947 200.287 66.2666 200.131 65.915C199.984 65.5635 199.345 65.3145 198.212 65.168L198.095 65.0508V64.4355L198.212 64.333C199.569 64.4111 200.697 64.4502 201.596 64.4502C202.465 64.4502 203.593 64.4111 204.979 64.333L205.082 64.4355V65.0508L204.979 65.168C204.354 65.2559 203.915 65.3535 203.661 65.4609C203.417 65.5586 203.246 65.666 203.148 65.7832C203.051 65.8906 202.987 66.0273 202.958 66.1934C202.929 66.3594 202.894 66.8916 202.855 67.79C202.826 68.6787 202.811 69.3818 202.811 69.8994V75.9492L203.046 76.0371C203.973 74.6504 205.17 72.7119 206.635 70.2217C208.099 67.7217 209.218 65.7588 209.989 64.333C210.907 64.4111 211.674 64.4502 212.289 64.4502C212.924 64.4502 213.705 64.4111 214.633 64.333L214.75 64.4355V65.0508L214.633 65.168C213.49 65.3145 212.846 65.5732 212.699 65.9443C212.553 66.3057 212.479 67.624 212.479 69.8994V72.5508C212.479 74.8457 212.553 76.1689 212.699 76.5205C212.855 76.8721 213.5 77.126 214.633 77.2822L214.75 77.3848V78L214.633 78.1172C213.275 78.0391 212.147 78 211.249 78C210.38 78 209.252 78.0391 207.865 78.1172L207.748 78V77.3848L207.865 77.2822C209.008 77.126 209.652 76.8672 209.799 76.5059C209.955 76.1445 210.033 74.8262 210.033 72.5508V66.5889L209.799 66.501C209.086 67.5557 207.943 69.4404 206.371 72.1553C204.808 74.8701 203.71 76.8574 203.075 78.1172C202.157 78.0391 201.405 78 200.819 78C200.184 78 199.315 78.0391 198.212 78.1172L198.095 78Z" fill="black"/>
<rect x="254" y="23" width="33" height="22" rx="10" fill="#8BC2F4"/>
<path d="M264.75 46.75H275.75C279.397 46.75 282.894 45.3013 285.473 42.7227C288.051 40.1441 289.5 36.6467 289.5 33V30.25H292.25C294.438 30.25 296.536 29.3808 298.084 27.8336C299.631 26.2865 300.5 24.188 300.5 22C300.5 19.812 299.631 17.7135 298.084 16.1664C296.536 14.6192 294.438 13.75 292.25 13.75H289.5V11C289.5 10.2707 289.21 9.57118 288.695 9.05546C288.179 8.53973 287.479 8.25 286.75 8.25H253.75C253.021 8.25 252.321 8.53973 251.805 9.05546C251.29 9.57118 251 10.2707 251 11V33C251 36.6467 252.449 40.1441 255.027 42.7227C257.606 45.3013 261.103 46.75 264.75 46.75ZM289.5 19.25H292.25C292.979 19.25 293.679 19.5397 294.195 20.0555C294.71 20.5712 295 21.2707 295 22C295 22.7293 294.71 23.4288 294.195 23.9445C293.679 24.4603 292.979 24.75 292.25 24.75H289.5V19.25ZM256.5 13.75H284V33C284 35.188 283.131 37.2865 281.584 38.8336C280.036 40.3808 277.938 41.25 275.75 41.25H264.75C262.562 41.25 260.464 40.3808 258.916 38.8336C257.369 37.2865 256.5 35.188 256.5 33V13.75ZM297.75 52.25H248.25C247.521 52.25 246.821 52.5397 246.305 53.0555C245.79 53.5712 245.5 54.2707 245.5 55C245.5 55.7293 245.79 56.4288 246.305 56.9445C246.821 57.4603 247.521 57.75 248.25 57.75H297.75C298.479 57.75 299.179 57.4603 299.695 56.9445C300.21 56.4288 300.5 55.7293 300.5 55C300.5 54.2707 300.21 53.5712 299.695 53.0555C299.179 52.5397 298.479 52.25 297.75 52.25Z" fill="#330000"/>
<path d="M265.22 31.36C265.993 31.5867 266.64 31.6533 267.16 31.56C267.693 31.4533 268.167 31.08 268.58 30.44L269.26 29.42L269.56 29.08L274.2 20H277.38L271.42 31.08C270.887 32.08 270.253 32.8467 269.52 33.38C268.8 33.9133 268.007 34.2133 267.14 34.28C266.273 34.36 265.373 34.2067 264.44 33.82L265.22 31.36ZM269.5 31.78L263.18 20H266.64L271.28 29.4L269.5 31.78Z" fill="#330000"/>
<rect width="33" height="22" rx="10" transform="matrix(-1 0 0 1 52 23)" fill="#8BC2F4"/>
<path d="M41.25 46.75H30.25C26.6033 46.75 23.1059 45.3013 20.5273 42.7227C17.9487 40.1441 16.5 36.6467 16.5 33V30.25H13.75C11.562 30.25 9.46354 29.3808 7.91637 27.8336C6.36919 26.2865 5.5 24.188 5.5 22C5.5 19.812 6.36919 17.7135 7.91637 16.1664C9.46354 14.6192 11.562 13.75 13.75 13.75H16.5V11C16.5 10.2707 16.7897 9.57118 17.3055 9.05546C17.8212 8.53973 18.5207 8.25 19.25 8.25H52.25C52.9793 8.25 53.6788 8.53973 54.1945 9.05546C54.7103 9.57118 55 10.2707 55 11V33C55 36.6467 53.5513 40.1441 50.9727 42.7227C48.3941 45.3013 44.8967 46.75 41.25 46.75ZM16.5 19.25H13.75C13.0207 19.25 12.3212 19.5397 11.8055 20.0555C11.2897 20.5712 11 21.2707 11 22C11 22.7293 11.2897 23.4288 11.8055 23.9445C12.3212 24.4603 13.0207 24.75 13.75 24.75H16.5V19.25ZM49.5 13.75H22V33C22 35.188 22.8692 37.2865 24.4164 38.8336C25.9635 40.3808 28.062 41.25 30.25 41.25H41.25C43.438 41.25 45.5365 40.3808 47.0836 38.8336C48.6308 37.2865 49.5 35.188 49.5 33V13.75ZM8.25 52.25H57.75C58.4793 52.25 59.1788 52.5397 59.6945 53.0555C60.2103 53.5712 60.5 54.2707 60.5 55C60.5 55.7293 60.2103 56.4288 59.6945 56.9445C59.1788 57.4603 58.4793 57.75 57.75 57.75H8.25C7.52065 57.75 6.82118 57.4603 6.30545 56.9445C5.78973 56.4288 5.5 55.7293 5.5 55C5.5 54.2707 5.78973 53.5712 6.30545 53.0555C6.82118 52.5397 7.52065 52.25 8.25 52.25Z" fill="#330000"/>
<path d="M31.22 31.36C31.9933 31.5867 32.64 31.6533 33.16 31.56C33.6933 31.4533 34.1667 31.08 34.58 30.44L35.26 29.42L35.56 29.08L40.2 20H43.38L37.42 31.08C36.8867 32.08 36.2533 32.8467 35.52 33.38C34.8 33.9133 34.0067 34.2133 33.14 34.28C32.2733 34.36 31.3733 34.2067 30.44 33.82L31.22 31.36ZM35.5 31.78L29.18 20H32.64L37.28 29.4L35.5 31.78Z" fill="#330000"/>
</svg>
